M48
; DRILL file {KiCad (6.0.5)} date Thu Jun  2 23:03:58 2022
; FORMAT={-:-/ absolute / inch / decimal}
; #@! TF.CreationDate,2022-06-02T23:03:58-07:00
; #@! TF.GenerationSoftware,Kicad,Pcbnew,(6.0.5)
; #@! TF.FileFunction,Plated,1,2,PTH
FMAT,2
INCH
; #@! TA.AperFunction,Plated,PTH,ViaDrill
T1C0.0157
; #@! TA.AperFunction,Plated,PTH,ViaDrill
T2C0.0197
; #@! TA.AperFunction,Plated,PTH,ComponentDrill
T3C0.0374
; #@! TA.AperFunction,Plated,PTH,ComponentDrill
T4C0.0394
; #@! TA.AperFunction,Plated,PTH,ComponentDrill
T5C0.0512
%
G90
G05
T1
X5.1378Y-2.6673
X5.4316Y-2.6659
X5.5394Y-2.6693
X5.5709Y-2.8583
X5.5994Y-2.8957
X5.6142Y-4.3996
X5.7638Y-4.626
X5.7795Y-2.813
X5.8031Y-4.626
X5.8228Y-2.813
X5.8228Y-3.1496
X5.8425Y-4.626
X5.8818Y-4.626
X5.9213Y-4.626
T2
X5.561Y-4.1535
X5.561Y-4.252
X5.561Y-4.3504
X5.561Y-4.4685
X5.561Y-4.5669
X5.5906Y-4.0846
X5.6988Y-4.3012
X5.7087Y-3.4055
X5.8957Y-3.4055
T3
X5.6975Y-3.563
X5.6975Y-3.6614
X5.6975Y-3.7598
X5.6975Y-3.8583
X5.6975Y-3.9567
X5.6975Y-4.0551
X5.6975Y-4.1535
X5.6988Y-2.9528
X5.6988Y-3.0512
X5.6988Y-3.1496
X5.6988Y-3.248
T4
X4.8972Y-3.0
X4.8972Y-3.1
X4.8972Y-3.2
X4.8972Y-3.3
X4.8972Y-3.4
X4.8972Y-3.5
X4.8972Y-3.6
X4.8972Y-3.7
X4.8972Y-3.8
X4.8972Y-3.9
X4.8972Y-4.0
X4.8972Y-4.1
X4.8972Y-4.2
X4.8972Y-4.3
X4.8972Y-4.4
X5.4972Y-3.0
X5.4972Y-3.1
X5.4972Y-3.2
X5.4972Y-3.3
X5.4972Y-3.4
X5.4972Y-3.5
X5.4972Y-3.6
X5.4972Y-3.7
X5.4972Y-3.8
X5.4972Y-3.9
X5.4972Y-4.0
X5.4972Y-4.1
X5.4972Y-4.2
X5.4972Y-4.3
X5.4972Y-4.4
X5.6975Y-4.4685
X5.6975Y-4.5669
T5
X4.5276Y-2.9134
X4.5276Y-3.189
X4.5276Y-3.4646
X4.5276Y-3.7402
X4.5276Y-4.0157
X4.5276Y-4.2913
X4.5276Y-4.5669
X4.7244Y-2.9134
X4.7244Y-3.189
X4.7244Y-3.4646
X4.7244Y-3.7402
X4.7244Y-4.0157
X4.7244Y-4.2913
X4.7244Y-4.5669
T0
M30
