%TF.GenerationSoftware,KiCad,Pcbnew,(6.0.5)*%
%TF.CreationDate,2022-06-02T23:03:52-07:00*%
%TF.ProjectId,arduino-autofire,61726475-696e-46f2-9d61-75746f666972,rev?*%
%TF.SameCoordinates,Original*%
%TF.FileFunction,Legend,Top*%
%TF.FilePolarity,Positive*%
%FSLAX46Y46*%
G04 Gerber Fmt 4.6, Leading zero omitted, Abs format (unit mm)*
G04 Created by KiCad (PCBNEW (6.0.5)) date 2022-06-02 23:03:52*
%MOMM*%
%LPD*%
G01*
G04 APERTURE LIST*
%ADD10C,0.000000*%
%ADD11C,0.150000*%
%ADD12C,0.120000*%
G04 APERTURE END LIST*
D10*
G36*
X130000000Y-119959938D02*
G01*
X130000000Y-120163667D01*
X130002646Y-120163667D01*
X130002646Y-121314605D01*
X128349000Y-121314605D01*
X128349000Y-121632104D01*
X130002646Y-121632104D01*
X130002646Y-122163917D01*
X127798667Y-122163917D01*
X127798667Y-120806605D01*
X128346354Y-120806605D01*
X129449667Y-120806605D01*
X129449667Y-120489105D01*
X128346354Y-120489105D01*
X128346354Y-120806605D01*
X127798667Y-120806605D01*
X127798667Y-119959938D01*
X130000000Y-119959938D01*
G37*
G36*
X127523500Y-119959938D02*
G01*
X127523500Y-121338417D01*
X125869854Y-121338417D01*
X125869854Y-122163917D01*
X125319521Y-122163917D01*
X125319521Y-120806605D01*
X125869854Y-120806605D01*
X126973167Y-120806605D01*
X126973167Y-120489105D01*
X125869854Y-120489105D01*
X125869854Y-120806605D01*
X125319521Y-120806605D01*
X125319521Y-119959938D01*
X127523500Y-119959938D01*
G37*
G36*
X130806979Y-121613584D02*
G01*
X131124479Y-121613584D01*
X131124479Y-119959938D01*
X131632479Y-119959938D01*
X131632479Y-121613584D01*
X131949979Y-121613584D01*
X131949979Y-119959938D01*
X132479146Y-119959938D01*
X132479146Y-122163917D01*
X130277813Y-122163917D01*
X130277813Y-119959938D01*
X130806979Y-119959938D01*
X130806979Y-121613584D01*
G37*
G36*
X127523500Y-122796272D02*
G01*
X127523500Y-124172105D01*
X125869854Y-124172105D01*
X125869854Y-124997605D01*
X125319521Y-124997605D01*
X125319521Y-123640292D01*
X125869854Y-123640292D01*
X126973167Y-123640292D01*
X126973167Y-123322792D01*
X125869854Y-123322792D01*
X125869854Y-123640292D01*
X125319521Y-123640292D01*
X125319521Y-122796272D01*
X127523500Y-122796272D01*
G37*
G36*
X130806979Y-124449917D02*
G01*
X131124479Y-124449917D01*
X131124479Y-122793625D01*
X131632479Y-122793625D01*
X131632479Y-124449917D01*
X131949979Y-124449917D01*
X131949979Y-122793625D01*
X132479146Y-122793625D01*
X132479146Y-124997605D01*
X130277813Y-124997605D01*
X130277813Y-122793625D01*
X130806979Y-122793625D01*
X130806979Y-124449917D01*
G37*
G36*
X138146522Y-119959938D02*
G01*
X138146522Y-121219355D01*
X134368272Y-121219355D01*
X134368272Y-121849063D01*
X138146522Y-121849063D01*
X138146522Y-124997605D01*
X133108854Y-124997605D01*
X133108854Y-123738188D01*
X134368271Y-123738188D01*
X136887104Y-123738188D01*
X136887104Y-123108480D01*
X134368271Y-123108480D01*
X134368271Y-123738188D01*
X133108854Y-123738188D01*
X133108854Y-119959938D01*
X138146522Y-119959938D01*
G37*
G36*
X130000000Y-122796271D02*
G01*
X130000000Y-123000000D01*
X130002646Y-123000000D01*
X130002646Y-124150938D01*
X128349000Y-124150938D01*
X128349000Y-124468438D01*
X130002646Y-124468438D01*
X130002646Y-125000250D01*
X127798667Y-125000250D01*
X127798667Y-123642938D01*
X128346354Y-123642938D01*
X129449667Y-123642938D01*
X129449667Y-123325438D01*
X128346354Y-123325438D01*
X128346354Y-123642938D01*
X127798667Y-123642938D01*
X127798667Y-122796271D01*
X130000000Y-122796271D01*
G37*
D11*
%TO.C,R4*%
X121802380Y-70016666D02*
X121326190Y-70350000D01*
X121802380Y-70588095D02*
X120802380Y-70588095D01*
X120802380Y-70207142D01*
X120850000Y-70111904D01*
X120897619Y-70064285D01*
X120992857Y-70016666D01*
X121135714Y-70016666D01*
X121230952Y-70064285D01*
X121278571Y-70111904D01*
X121326190Y-70207142D01*
X121326190Y-70588095D01*
X121135714Y-69159523D02*
X121802380Y-69159523D01*
X120754761Y-69397619D02*
X121469047Y-69635714D01*
X121469047Y-69016666D01*
%TO.C,R5*%
X129302380Y-66266666D02*
X128826190Y-66600000D01*
X129302380Y-66838095D02*
X128302380Y-66838095D01*
X128302380Y-66457142D01*
X128350000Y-66361904D01*
X128397619Y-66314285D01*
X128492857Y-66266666D01*
X128635714Y-66266666D01*
X128730952Y-66314285D01*
X128778571Y-66361904D01*
X128826190Y-66457142D01*
X128826190Y-66838095D01*
X128302380Y-65361904D02*
X128302380Y-65838095D01*
X128778571Y-65885714D01*
X128730952Y-65838095D01*
X128683333Y-65742857D01*
X128683333Y-65504761D01*
X128730952Y-65409523D01*
X128778571Y-65361904D01*
X128873809Y-65314285D01*
X129111904Y-65314285D01*
X129207142Y-65361904D01*
X129254761Y-65409523D01*
X129302380Y-65504761D01*
X129302380Y-65742857D01*
X129254761Y-65838095D01*
X129207142Y-65885714D01*
%TO.C,D4*%
X123586904Y-71952380D02*
X123586904Y-70952380D01*
X123825000Y-70952380D01*
X123967857Y-71000000D01*
X124063095Y-71095238D01*
X124110714Y-71190476D01*
X124158333Y-71380952D01*
X124158333Y-71523809D01*
X124110714Y-71714285D01*
X124063095Y-71809523D01*
X123967857Y-71904761D01*
X123825000Y-71952380D01*
X123586904Y-71952380D01*
X125015476Y-71285714D02*
X125015476Y-71952380D01*
X124777380Y-70904761D02*
X124539285Y-71619047D01*
X125158333Y-71619047D01*
%TO.C,BTN_GND1*%
X114285714Y-119078571D02*
X114428571Y-119126190D01*
X114476190Y-119173809D01*
X114523809Y-119269047D01*
X114523809Y-119411904D01*
X114476190Y-119507142D01*
X114428571Y-119554761D01*
X114333333Y-119602380D01*
X113952380Y-119602380D01*
X113952380Y-118602380D01*
X114285714Y-118602380D01*
X114380952Y-118650000D01*
X114428571Y-118697619D01*
X114476190Y-118792857D01*
X114476190Y-118888095D01*
X114428571Y-118983333D01*
X114380952Y-119030952D01*
X114285714Y-119078571D01*
X113952380Y-119078571D01*
X114809523Y-118602380D02*
X115380952Y-118602380D01*
X115095238Y-119602380D02*
X115095238Y-118602380D01*
X115714285Y-119602380D02*
X115714285Y-118602380D01*
X116285714Y-119602380D01*
X116285714Y-118602380D01*
X116523809Y-119697619D02*
X117285714Y-119697619D01*
X118047619Y-118650000D02*
X117952380Y-118602380D01*
X117809523Y-118602380D01*
X117666666Y-118650000D01*
X117571428Y-118745238D01*
X117523809Y-118840476D01*
X117476190Y-119030952D01*
X117476190Y-119173809D01*
X117523809Y-119364285D01*
X117571428Y-119459523D01*
X117666666Y-119554761D01*
X117809523Y-119602380D01*
X117904761Y-119602380D01*
X118047619Y-119554761D01*
X118095238Y-119507142D01*
X118095238Y-119173809D01*
X117904761Y-119173809D01*
X118523809Y-119602380D02*
X118523809Y-118602380D01*
X119095238Y-119602380D01*
X119095238Y-118602380D01*
X119571428Y-119602380D02*
X119571428Y-118602380D01*
X119809523Y-118602380D01*
X119952380Y-118650000D01*
X120047619Y-118745238D01*
X120095238Y-118840476D01*
X120142857Y-119030952D01*
X120142857Y-119173809D01*
X120095238Y-119364285D01*
X120047619Y-119459523D01*
X119952380Y-119554761D01*
X119809523Y-119602380D01*
X119571428Y-119602380D01*
X121095238Y-119602380D02*
X120523809Y-119602380D01*
X120809523Y-119602380D02*
X120809523Y-118602380D01*
X120714285Y-118745238D01*
X120619047Y-118840476D01*
X120523809Y-118888095D01*
%TO.C,D1*%
X123611904Y-68202380D02*
X123611904Y-67202380D01*
X123850000Y-67202380D01*
X123992857Y-67250000D01*
X124088095Y-67345238D01*
X124135714Y-67440476D01*
X124183333Y-67630952D01*
X124183333Y-67773809D01*
X124135714Y-67964285D01*
X124088095Y-68059523D01*
X123992857Y-68154761D01*
X123850000Y-68202380D01*
X123611904Y-68202380D01*
X125135714Y-68202380D02*
X124564285Y-68202380D01*
X124850000Y-68202380D02*
X124850000Y-67202380D01*
X124754761Y-67345238D01*
X124659523Y-67440476D01*
X124564285Y-67488095D01*
%TO.C,D2*%
X131061904Y-68202380D02*
X131061904Y-67202380D01*
X131300000Y-67202380D01*
X131442857Y-67250000D01*
X131538095Y-67345238D01*
X131585714Y-67440476D01*
X131633333Y-67630952D01*
X131633333Y-67773809D01*
X131585714Y-67964285D01*
X131538095Y-68059523D01*
X131442857Y-68154761D01*
X131300000Y-68202380D01*
X131061904Y-68202380D01*
X132014285Y-67297619D02*
X132061904Y-67250000D01*
X132157142Y-67202380D01*
X132395238Y-67202380D01*
X132490476Y-67250000D01*
X132538095Y-67297619D01*
X132585714Y-67392857D01*
X132585714Y-67488095D01*
X132538095Y-67630952D01*
X131966666Y-68202380D01*
X132585714Y-68202380D01*
%TO.C,J1*%
X141702380Y-115083333D02*
X142416666Y-115083333D01*
X142559523Y-115130952D01*
X142654761Y-115226190D01*
X142702380Y-115369047D01*
X142702380Y-115464285D01*
X142702380Y-114083333D02*
X142702380Y-114654761D01*
X142702380Y-114369047D02*
X141702380Y-114369047D01*
X141845238Y-114464285D01*
X141940476Y-114559523D01*
X141988095Y-114654761D01*
%TO.C,D3*%
X138511904Y-68202380D02*
X138511904Y-67202380D01*
X138750000Y-67202380D01*
X138892857Y-67250000D01*
X138988095Y-67345238D01*
X139035714Y-67440476D01*
X139083333Y-67630952D01*
X139083333Y-67773809D01*
X139035714Y-67964285D01*
X138988095Y-68059523D01*
X138892857Y-68154761D01*
X138750000Y-68202380D01*
X138511904Y-68202380D01*
X139416666Y-67202380D02*
X140035714Y-67202380D01*
X139702380Y-67583333D01*
X139845238Y-67583333D01*
X139940476Y-67630952D01*
X139988095Y-67678571D01*
X140035714Y-67773809D01*
X140035714Y-68011904D01*
X139988095Y-68107142D01*
X139940476Y-68154761D01*
X139845238Y-68202380D01*
X139559523Y-68202380D01*
X139464285Y-68154761D01*
X139416666Y-68107142D01*
%TO.C,J2*%
X141702380Y-98333333D02*
X142416666Y-98333333D01*
X142559523Y-98380952D01*
X142654761Y-98476190D01*
X142702380Y-98619047D01*
X142702380Y-98714285D01*
X141797619Y-97904761D02*
X141750000Y-97857142D01*
X141702380Y-97761904D01*
X141702380Y-97523809D01*
X141750000Y-97428571D01*
X141797619Y-97380952D01*
X141892857Y-97333333D01*
X141988095Y-97333333D01*
X142130952Y-97380952D01*
X142702380Y-97952380D01*
X142702380Y-97333333D01*
%TO.C,D6*%
X138511904Y-71952380D02*
X138511904Y-70952380D01*
X138750000Y-70952380D01*
X138892857Y-71000000D01*
X138988095Y-71095238D01*
X139035714Y-71190476D01*
X139083333Y-71380952D01*
X139083333Y-71523809D01*
X139035714Y-71714285D01*
X138988095Y-71809523D01*
X138892857Y-71904761D01*
X138750000Y-71952380D01*
X138511904Y-71952380D01*
X139940476Y-70952380D02*
X139750000Y-70952380D01*
X139654761Y-71000000D01*
X139607142Y-71047619D01*
X139511904Y-71190476D01*
X139464285Y-71380952D01*
X139464285Y-71761904D01*
X139511904Y-71857142D01*
X139559523Y-71904761D01*
X139654761Y-71952380D01*
X139845238Y-71952380D01*
X139940476Y-71904761D01*
X139988095Y-71857142D01*
X140035714Y-71761904D01*
X140035714Y-71523809D01*
X139988095Y-71428571D01*
X139940476Y-71380952D01*
X139845238Y-71333333D01*
X139654761Y-71333333D01*
X139559523Y-71380952D01*
X139511904Y-71428571D01*
X139464285Y-71523809D01*
%TO.C,R1*%
X143652380Y-66166666D02*
X143176190Y-66500000D01*
X143652380Y-66738095D02*
X142652380Y-66738095D01*
X142652380Y-66357142D01*
X142700000Y-66261904D01*
X142747619Y-66214285D01*
X142842857Y-66166666D01*
X142985714Y-66166666D01*
X143080952Y-66214285D01*
X143128571Y-66261904D01*
X143176190Y-66357142D01*
X143176190Y-66738095D01*
X143652380Y-65214285D02*
X143652380Y-65785714D01*
X143652380Y-65500000D02*
X142652380Y-65500000D01*
X142795238Y-65595238D01*
X142890476Y-65690476D01*
X142938095Y-65785714D01*
%TO.C,R8*%
X136752380Y-70016666D02*
X136276190Y-70350000D01*
X136752380Y-70588095D02*
X135752380Y-70588095D01*
X135752380Y-70207142D01*
X135800000Y-70111904D01*
X135847619Y-70064285D01*
X135942857Y-70016666D01*
X136085714Y-70016666D01*
X136180952Y-70064285D01*
X136228571Y-70111904D01*
X136276190Y-70207142D01*
X136276190Y-70588095D01*
X136180952Y-69445238D02*
X136133333Y-69540476D01*
X136085714Y-69588095D01*
X135990476Y-69635714D01*
X135942857Y-69635714D01*
X135847619Y-69588095D01*
X135800000Y-69540476D01*
X135752380Y-69445238D01*
X135752380Y-69254761D01*
X135800000Y-69159523D01*
X135847619Y-69111904D01*
X135942857Y-69064285D01*
X135990476Y-69064285D01*
X136085714Y-69111904D01*
X136133333Y-69159523D01*
X136180952Y-69254761D01*
X136180952Y-69445238D01*
X136228571Y-69540476D01*
X136276190Y-69588095D01*
X136371428Y-69635714D01*
X136561904Y-69635714D01*
X136657142Y-69588095D01*
X136704761Y-69540476D01*
X136752380Y-69445238D01*
X136752380Y-69254761D01*
X136704761Y-69159523D01*
X136657142Y-69111904D01*
X136561904Y-69064285D01*
X136371428Y-69064285D01*
X136276190Y-69111904D01*
X136228571Y-69159523D01*
X136180952Y-69254761D01*
%TO.C,R6*%
X129302380Y-70016666D02*
X128826190Y-70350000D01*
X129302380Y-70588095D02*
X128302380Y-70588095D01*
X128302380Y-70207142D01*
X128350000Y-70111904D01*
X128397619Y-70064285D01*
X128492857Y-70016666D01*
X128635714Y-70016666D01*
X128730952Y-70064285D01*
X128778571Y-70111904D01*
X128826190Y-70207142D01*
X128826190Y-70588095D01*
X128302380Y-69159523D02*
X128302380Y-69350000D01*
X128350000Y-69445238D01*
X128397619Y-69492857D01*
X128540476Y-69588095D01*
X128730952Y-69635714D01*
X129111904Y-69635714D01*
X129207142Y-69588095D01*
X129254761Y-69540476D01*
X129302380Y-69445238D01*
X129302380Y-69254761D01*
X129254761Y-69159523D01*
X129207142Y-69111904D01*
X129111904Y-69064285D01*
X128873809Y-69064285D01*
X128778571Y-69111904D01*
X128730952Y-69159523D01*
X128683333Y-69254761D01*
X128683333Y-69445238D01*
X128730952Y-69540476D01*
X128778571Y-69588095D01*
X128873809Y-69635714D01*
%TO.C,BUTTON_2*%
X114380952Y-84078571D02*
X114523809Y-84126190D01*
X114571428Y-84173809D01*
X114619047Y-84269047D01*
X114619047Y-84411904D01*
X114571428Y-84507142D01*
X114523809Y-84554761D01*
X114428571Y-84602380D01*
X114047619Y-84602380D01*
X114047619Y-83602380D01*
X114380952Y-83602380D01*
X114476190Y-83650000D01*
X114523809Y-83697619D01*
X114571428Y-83792857D01*
X114571428Y-83888095D01*
X114523809Y-83983333D01*
X114476190Y-84030952D01*
X114380952Y-84078571D01*
X114047619Y-84078571D01*
X115047619Y-83602380D02*
X115047619Y-84411904D01*
X115095238Y-84507142D01*
X115142857Y-84554761D01*
X115238095Y-84602380D01*
X115428571Y-84602380D01*
X115523809Y-84554761D01*
X115571428Y-84507142D01*
X115619047Y-84411904D01*
X115619047Y-83602380D01*
X115952380Y-83602380D02*
X116523809Y-83602380D01*
X116238095Y-84602380D02*
X116238095Y-83602380D01*
X116714285Y-83602380D02*
X117285714Y-83602380D01*
X117000000Y-84602380D02*
X117000000Y-83602380D01*
X117809523Y-83602380D02*
X118000000Y-83602380D01*
X118095238Y-83650000D01*
X118190476Y-83745238D01*
X118238095Y-83935714D01*
X118238095Y-84269047D01*
X118190476Y-84459523D01*
X118095238Y-84554761D01*
X118000000Y-84602380D01*
X117809523Y-84602380D01*
X117714285Y-84554761D01*
X117619047Y-84459523D01*
X117571428Y-84269047D01*
X117571428Y-83935714D01*
X117619047Y-83745238D01*
X117714285Y-83650000D01*
X117809523Y-83602380D01*
X118666666Y-84602380D02*
X118666666Y-83602380D01*
X119238095Y-84602380D01*
X119238095Y-83602380D01*
X119476190Y-84697619D02*
X120238095Y-84697619D01*
X120428571Y-83697619D02*
X120476190Y-83650000D01*
X120571428Y-83602380D01*
X120809523Y-83602380D01*
X120904761Y-83650000D01*
X120952380Y-83697619D01*
X121000000Y-83792857D01*
X121000000Y-83888095D01*
X120952380Y-84030952D01*
X120380952Y-84602380D01*
X121000000Y-84602380D01*
%TO.C,BUTTON_5*%
X114380952Y-105078571D02*
X114523809Y-105126190D01*
X114571428Y-105173809D01*
X114619047Y-105269047D01*
X114619047Y-105411904D01*
X114571428Y-105507142D01*
X114523809Y-105554761D01*
X114428571Y-105602380D01*
X114047619Y-105602380D01*
X114047619Y-104602380D01*
X114380952Y-104602380D01*
X114476190Y-104650000D01*
X114523809Y-104697619D01*
X114571428Y-104792857D01*
X114571428Y-104888095D01*
X114523809Y-104983333D01*
X114476190Y-105030952D01*
X114380952Y-105078571D01*
X114047619Y-105078571D01*
X115047619Y-104602380D02*
X115047619Y-105411904D01*
X115095238Y-105507142D01*
X115142857Y-105554761D01*
X115238095Y-105602380D01*
X115428571Y-105602380D01*
X115523809Y-105554761D01*
X115571428Y-105507142D01*
X115619047Y-105411904D01*
X115619047Y-104602380D01*
X115952380Y-104602380D02*
X116523809Y-104602380D01*
X116238095Y-105602380D02*
X116238095Y-104602380D01*
X116714285Y-104602380D02*
X117285714Y-104602380D01*
X117000000Y-105602380D02*
X117000000Y-104602380D01*
X117809523Y-104602380D02*
X118000000Y-104602380D01*
X118095238Y-104650000D01*
X118190476Y-104745238D01*
X118238095Y-104935714D01*
X118238095Y-105269047D01*
X118190476Y-105459523D01*
X118095238Y-105554761D01*
X118000000Y-105602380D01*
X117809523Y-105602380D01*
X117714285Y-105554761D01*
X117619047Y-105459523D01*
X117571428Y-105269047D01*
X117571428Y-104935714D01*
X117619047Y-104745238D01*
X117714285Y-104650000D01*
X117809523Y-104602380D01*
X118666666Y-105602380D02*
X118666666Y-104602380D01*
X119238095Y-105602380D01*
X119238095Y-104602380D01*
X119476190Y-105697619D02*
X120238095Y-105697619D01*
X120952380Y-104602380D02*
X120476190Y-104602380D01*
X120428571Y-105078571D01*
X120476190Y-105030952D01*
X120571428Y-104983333D01*
X120809523Y-104983333D01*
X120904761Y-105030952D01*
X120952380Y-105078571D01*
X121000000Y-105173809D01*
X121000000Y-105411904D01*
X120952380Y-105507142D01*
X120904761Y-105554761D01*
X120809523Y-105602380D01*
X120571428Y-105602380D01*
X120476190Y-105554761D01*
X120428571Y-105507142D01*
%TO.C,BUTTON_1*%
X114380952Y-77078571D02*
X114523809Y-77126190D01*
X114571428Y-77173809D01*
X114619047Y-77269047D01*
X114619047Y-77411904D01*
X114571428Y-77507142D01*
X114523809Y-77554761D01*
X114428571Y-77602380D01*
X114047619Y-77602380D01*
X114047619Y-76602380D01*
X114380952Y-76602380D01*
X114476190Y-76650000D01*
X114523809Y-76697619D01*
X114571428Y-76792857D01*
X114571428Y-76888095D01*
X114523809Y-76983333D01*
X114476190Y-77030952D01*
X114380952Y-77078571D01*
X114047619Y-77078571D01*
X115047619Y-76602380D02*
X115047619Y-77411904D01*
X115095238Y-77507142D01*
X115142857Y-77554761D01*
X115238095Y-77602380D01*
X115428571Y-77602380D01*
X115523809Y-77554761D01*
X115571428Y-77507142D01*
X115619047Y-77411904D01*
X115619047Y-76602380D01*
X115952380Y-76602380D02*
X116523809Y-76602380D01*
X116238095Y-77602380D02*
X116238095Y-76602380D01*
X116714285Y-76602380D02*
X117285714Y-76602380D01*
X117000000Y-77602380D02*
X117000000Y-76602380D01*
X117809523Y-76602380D02*
X118000000Y-76602380D01*
X118095238Y-76650000D01*
X118190476Y-76745238D01*
X118238095Y-76935714D01*
X118238095Y-77269047D01*
X118190476Y-77459523D01*
X118095238Y-77554761D01*
X118000000Y-77602380D01*
X117809523Y-77602380D01*
X117714285Y-77554761D01*
X117619047Y-77459523D01*
X117571428Y-77269047D01*
X117571428Y-76935714D01*
X117619047Y-76745238D01*
X117714285Y-76650000D01*
X117809523Y-76602380D01*
X118666666Y-77602380D02*
X118666666Y-76602380D01*
X119238095Y-77602380D01*
X119238095Y-76602380D01*
X119476190Y-77697619D02*
X120238095Y-77697619D01*
X121000000Y-77602380D02*
X120428571Y-77602380D01*
X120714285Y-77602380D02*
X120714285Y-76602380D01*
X120619047Y-76745238D01*
X120523809Y-76840476D01*
X120428571Y-76888095D01*
%TO.C,D5*%
X131061904Y-71952380D02*
X131061904Y-70952380D01*
X131300000Y-70952380D01*
X131442857Y-71000000D01*
X131538095Y-71095238D01*
X131585714Y-71190476D01*
X131633333Y-71380952D01*
X131633333Y-71523809D01*
X131585714Y-71714285D01*
X131538095Y-71809523D01*
X131442857Y-71904761D01*
X131300000Y-71952380D01*
X131061904Y-71952380D01*
X132538095Y-70952380D02*
X132061904Y-70952380D01*
X132014285Y-71428571D01*
X132061904Y-71380952D01*
X132157142Y-71333333D01*
X132395238Y-71333333D01*
X132490476Y-71380952D01*
X132538095Y-71428571D01*
X132585714Y-71523809D01*
X132585714Y-71761904D01*
X132538095Y-71857142D01*
X132490476Y-71904761D01*
X132395238Y-71952380D01*
X132157142Y-71952380D01*
X132061904Y-71904761D01*
X132014285Y-71857142D01*
%TO.C,BUTTON_6*%
X114380952Y-112078571D02*
X114523809Y-112126190D01*
X114571428Y-112173809D01*
X114619047Y-112269047D01*
X114619047Y-112411904D01*
X114571428Y-112507142D01*
X114523809Y-112554761D01*
X114428571Y-112602380D01*
X114047619Y-112602380D01*
X114047619Y-111602380D01*
X114380952Y-111602380D01*
X114476190Y-111650000D01*
X114523809Y-111697619D01*
X114571428Y-111792857D01*
X114571428Y-111888095D01*
X114523809Y-111983333D01*
X114476190Y-112030952D01*
X114380952Y-112078571D01*
X114047619Y-112078571D01*
X115047619Y-111602380D02*
X115047619Y-112411904D01*
X115095238Y-112507142D01*
X115142857Y-112554761D01*
X115238095Y-112602380D01*
X115428571Y-112602380D01*
X115523809Y-112554761D01*
X115571428Y-112507142D01*
X115619047Y-112411904D01*
X115619047Y-111602380D01*
X115952380Y-111602380D02*
X116523809Y-111602380D01*
X116238095Y-112602380D02*
X116238095Y-111602380D01*
X116714285Y-111602380D02*
X117285714Y-111602380D01*
X117000000Y-112602380D02*
X117000000Y-111602380D01*
X117809523Y-111602380D02*
X118000000Y-111602380D01*
X118095238Y-111650000D01*
X118190476Y-111745238D01*
X118238095Y-111935714D01*
X118238095Y-112269047D01*
X118190476Y-112459523D01*
X118095238Y-112554761D01*
X118000000Y-112602380D01*
X117809523Y-112602380D01*
X117714285Y-112554761D01*
X117619047Y-112459523D01*
X117571428Y-112269047D01*
X117571428Y-111935714D01*
X117619047Y-111745238D01*
X117714285Y-111650000D01*
X117809523Y-111602380D01*
X118666666Y-112602380D02*
X118666666Y-111602380D01*
X119238095Y-112602380D01*
X119238095Y-111602380D01*
X119476190Y-112697619D02*
X120238095Y-112697619D01*
X120904761Y-111602380D02*
X120714285Y-111602380D01*
X120619047Y-111650000D01*
X120571428Y-111697619D01*
X120476190Y-111840476D01*
X120428571Y-112030952D01*
X120428571Y-112411904D01*
X120476190Y-112507142D01*
X120523809Y-112554761D01*
X120619047Y-112602380D01*
X120809523Y-112602380D01*
X120904761Y-112554761D01*
X120952380Y-112507142D01*
X121000000Y-112411904D01*
X121000000Y-112173809D01*
X120952380Y-112078571D01*
X120904761Y-112030952D01*
X120809523Y-111983333D01*
X120619047Y-111983333D01*
X120523809Y-112030952D01*
X120476190Y-112078571D01*
X120428571Y-112173809D01*
%TO.C,R7*%
X136752380Y-66266666D02*
X136276190Y-66600000D01*
X136752380Y-66838095D02*
X135752380Y-66838095D01*
X135752380Y-66457142D01*
X135800000Y-66361904D01*
X135847619Y-66314285D01*
X135942857Y-66266666D01*
X136085714Y-66266666D01*
X136180952Y-66314285D01*
X136228571Y-66361904D01*
X136276190Y-66457142D01*
X136276190Y-66838095D01*
X135752380Y-65933333D02*
X135752380Y-65266666D01*
X136752380Y-65695238D01*
%TO.C,R2*%
X143652380Y-69916666D02*
X143176190Y-70250000D01*
X143652380Y-70488095D02*
X142652380Y-70488095D01*
X142652380Y-70107142D01*
X142700000Y-70011904D01*
X142747619Y-69964285D01*
X142842857Y-69916666D01*
X142985714Y-69916666D01*
X143080952Y-69964285D01*
X143128571Y-70011904D01*
X143176190Y-70107142D01*
X143176190Y-70488095D01*
X142747619Y-69535714D02*
X142700000Y-69488095D01*
X142652380Y-69392857D01*
X142652380Y-69154761D01*
X142700000Y-69059523D01*
X142747619Y-69011904D01*
X142842857Y-68964285D01*
X142938095Y-68964285D01*
X143080952Y-69011904D01*
X143652380Y-69583333D01*
X143652380Y-68964285D01*
%TO.C,A1*%
X131295714Y-74916666D02*
X131771904Y-74916666D01*
X131200476Y-75202380D02*
X131533809Y-74202380D01*
X131867142Y-75202380D01*
X132724285Y-75202380D02*
X132152857Y-75202380D01*
X132438571Y-75202380D02*
X132438571Y-74202380D01*
X132343333Y-74345238D01*
X132248095Y-74440476D01*
X132152857Y-74488095D01*
%TO.C,R3*%
X121802380Y-66266666D02*
X121326190Y-66600000D01*
X121802380Y-66838095D02*
X120802380Y-66838095D01*
X120802380Y-66457142D01*
X120850000Y-66361904D01*
X120897619Y-66314285D01*
X120992857Y-66266666D01*
X121135714Y-66266666D01*
X121230952Y-66314285D01*
X121278571Y-66361904D01*
X121326190Y-66457142D01*
X121326190Y-66838095D01*
X120802380Y-65933333D02*
X120802380Y-65314285D01*
X121183333Y-65647619D01*
X121183333Y-65504761D01*
X121230952Y-65409523D01*
X121278571Y-65361904D01*
X121373809Y-65314285D01*
X121611904Y-65314285D01*
X121707142Y-65361904D01*
X121754761Y-65409523D01*
X121802380Y-65504761D01*
X121802380Y-65790476D01*
X121754761Y-65885714D01*
X121707142Y-65933333D01*
%TO.C,BUTTON_4*%
X114380952Y-98078571D02*
X114523809Y-98126190D01*
X114571428Y-98173809D01*
X114619047Y-98269047D01*
X114619047Y-98411904D01*
X114571428Y-98507142D01*
X114523809Y-98554761D01*
X114428571Y-98602380D01*
X114047619Y-98602380D01*
X114047619Y-97602380D01*
X114380952Y-97602380D01*
X114476190Y-97650000D01*
X114523809Y-97697619D01*
X114571428Y-97792857D01*
X114571428Y-97888095D01*
X114523809Y-97983333D01*
X114476190Y-98030952D01*
X114380952Y-98078571D01*
X114047619Y-98078571D01*
X115047619Y-97602380D02*
X115047619Y-98411904D01*
X115095238Y-98507142D01*
X115142857Y-98554761D01*
X115238095Y-98602380D01*
X115428571Y-98602380D01*
X115523809Y-98554761D01*
X115571428Y-98507142D01*
X115619047Y-98411904D01*
X115619047Y-97602380D01*
X115952380Y-97602380D02*
X116523809Y-97602380D01*
X116238095Y-98602380D02*
X116238095Y-97602380D01*
X116714285Y-97602380D02*
X117285714Y-97602380D01*
X117000000Y-98602380D02*
X117000000Y-97602380D01*
X117809523Y-97602380D02*
X118000000Y-97602380D01*
X118095238Y-97650000D01*
X118190476Y-97745238D01*
X118238095Y-97935714D01*
X118238095Y-98269047D01*
X118190476Y-98459523D01*
X118095238Y-98554761D01*
X118000000Y-98602380D01*
X117809523Y-98602380D01*
X117714285Y-98554761D01*
X117619047Y-98459523D01*
X117571428Y-98269047D01*
X117571428Y-97935714D01*
X117619047Y-97745238D01*
X117714285Y-97650000D01*
X117809523Y-97602380D01*
X118666666Y-98602380D02*
X118666666Y-97602380D01*
X119238095Y-98602380D01*
X119238095Y-97602380D01*
X119476190Y-98697619D02*
X120238095Y-98697619D01*
X120904761Y-97935714D02*
X120904761Y-98602380D01*
X120666666Y-97554761D02*
X120428571Y-98269047D01*
X121047619Y-98269047D01*
%TO.C,BUTTON_3*%
X114380952Y-91078571D02*
X114523809Y-91126190D01*
X114571428Y-91173809D01*
X114619047Y-91269047D01*
X114619047Y-91411904D01*
X114571428Y-91507142D01*
X114523809Y-91554761D01*
X114428571Y-91602380D01*
X114047619Y-91602380D01*
X114047619Y-90602380D01*
X114380952Y-90602380D01*
X114476190Y-90650000D01*
X114523809Y-90697619D01*
X114571428Y-90792857D01*
X114571428Y-90888095D01*
X114523809Y-90983333D01*
X114476190Y-91030952D01*
X114380952Y-91078571D01*
X114047619Y-91078571D01*
X115047619Y-90602380D02*
X115047619Y-91411904D01*
X115095238Y-91507142D01*
X115142857Y-91554761D01*
X115238095Y-91602380D01*
X115428571Y-91602380D01*
X115523809Y-91554761D01*
X115571428Y-91507142D01*
X115619047Y-91411904D01*
X115619047Y-90602380D01*
X115952380Y-90602380D02*
X116523809Y-90602380D01*
X116238095Y-91602380D02*
X116238095Y-90602380D01*
X116714285Y-90602380D02*
X117285714Y-90602380D01*
X117000000Y-91602380D02*
X117000000Y-90602380D01*
X117809523Y-90602380D02*
X118000000Y-90602380D01*
X118095238Y-90650000D01*
X118190476Y-90745238D01*
X118238095Y-90935714D01*
X118238095Y-91269047D01*
X118190476Y-91459523D01*
X118095238Y-91554761D01*
X118000000Y-91602380D01*
X117809523Y-91602380D01*
X117714285Y-91554761D01*
X117619047Y-91459523D01*
X117571428Y-91269047D01*
X117571428Y-90935714D01*
X117619047Y-90745238D01*
X117714285Y-90650000D01*
X117809523Y-90602380D01*
X118666666Y-91602380D02*
X118666666Y-90602380D01*
X119238095Y-91602380D01*
X119238095Y-90602380D01*
X119476190Y-91697619D02*
X120238095Y-91697619D01*
X120380952Y-90602380D02*
X121000000Y-90602380D01*
X120666666Y-90983333D01*
X120809523Y-90983333D01*
X120904761Y-91030952D01*
X120952380Y-91078571D01*
X121000000Y-91173809D01*
X121000000Y-91411904D01*
X120952380Y-91507142D01*
X120904761Y-91554761D01*
X120809523Y-91602380D01*
X120523809Y-91602380D01*
X120428571Y-91554761D01*
X120380952Y-91507142D01*
%TO.C,J3*%
X141734880Y-79083333D02*
X142449166Y-79083333D01*
X142592023Y-79130952D01*
X142687261Y-79226190D01*
X142734880Y-79369047D01*
X142734880Y-79464285D01*
X141734880Y-78702380D02*
X141734880Y-78083333D01*
X142115833Y-78416666D01*
X142115833Y-78273809D01*
X142163452Y-78178571D01*
X142211071Y-78130952D01*
X142306309Y-78083333D01*
X142544404Y-78083333D01*
X142639642Y-78130952D01*
X142687261Y-78178571D01*
X142734880Y-78273809D01*
X142734880Y-78559523D01*
X142687261Y-78654761D01*
X142639642Y-78702380D01*
D12*
%TO.C,R4*%
X122085000Y-70077064D02*
X122085000Y-69622936D01*
X120615000Y-70077064D02*
X120615000Y-69622936D01*
%TO.C,R5*%
X129585000Y-66327064D02*
X129585000Y-65872936D01*
X128115000Y-66327064D02*
X128115000Y-65872936D01*
%TO.C,D4*%
X123325000Y-70810000D02*
X126185000Y-70810000D01*
X126185000Y-68890000D02*
X123325000Y-68890000D01*
X126185000Y-70810000D02*
X126185000Y-68890000D01*
%TO.C,BTN_GND1*%
X113150000Y-117500000D02*
X116850000Y-117500000D01*
X118150000Y-117500000D02*
X121850000Y-117500000D01*
X121850000Y-114500000D02*
X118150000Y-114500000D01*
X116850000Y-114500000D02*
X113150000Y-114500000D01*
X121850000Y-114500000D02*
X121850000Y-117500000D01*
X113150000Y-114500000D02*
X113150000Y-117500000D01*
X118150000Y-114500000D02*
X118150000Y-117500000D01*
X116850000Y-114500000D02*
X116850000Y-117500000D01*
%TO.C,D1*%
X123350000Y-67060000D02*
X126210000Y-67060000D01*
X126210000Y-67060000D02*
X126210000Y-65140000D01*
X126210000Y-65140000D02*
X123350000Y-65140000D01*
%TO.C,D2*%
X133660000Y-67060000D02*
X133660000Y-65140000D01*
X133660000Y-65140000D02*
X130800000Y-65140000D01*
X130800000Y-67060000D02*
X133660000Y-67060000D01*
%TO.C,J1*%
X151527500Y-118610000D02*
X143107500Y-118610000D01*
X143217500Y-113500000D02*
X142617500Y-113200000D01*
X146307500Y-112110000D02*
X146307500Y-117390000D01*
X149807500Y-113500000D02*
X149727500Y-113820000D01*
X142617500Y-113800000D02*
X143217500Y-113500000D01*
X146307500Y-116320000D02*
X146307500Y-116000000D01*
X149727500Y-113180000D02*
X149807500Y-113500000D01*
X146307500Y-115680000D02*
X149727500Y-115680000D01*
X145307500Y-114670000D02*
X145307500Y-114830000D01*
X150307500Y-117390000D02*
X145307500Y-117390000D01*
X142617500Y-113200000D02*
X142617500Y-113800000D01*
X143107500Y-117390000D02*
X145307500Y-117390000D01*
X149727500Y-116320000D02*
X146307500Y-116320000D01*
X145307500Y-117390000D02*
X145307500Y-118610000D01*
X146307500Y-113180000D02*
X149727500Y-113180000D01*
X149727500Y-115680000D02*
X149807500Y-116000000D01*
X149727500Y-113820000D02*
X146307500Y-113820000D01*
X149807500Y-116000000D02*
X149727500Y-116320000D01*
X150307500Y-112110000D02*
X145307500Y-112110000D01*
X145307500Y-112110000D02*
X143107500Y-112110000D01*
X146307500Y-113820000D02*
X146307500Y-113500000D01*
X143107500Y-112110000D02*
X143107500Y-110890000D01*
X143107500Y-118610000D02*
X143107500Y-117390000D01*
X146307500Y-116000000D02*
X146307500Y-115680000D01*
X150307500Y-110890000D02*
X150307500Y-112110000D01*
X150307500Y-118610000D02*
X150307500Y-117390000D01*
X151527500Y-110890000D02*
X151527500Y-118610000D01*
X146307500Y-113500000D02*
X146307500Y-113180000D01*
X143107500Y-110890000D02*
X151527500Y-110890000D01*
X145307500Y-112110000D02*
X145307500Y-110890000D01*
%TO.C,D3*%
X141110000Y-67060000D02*
X141110000Y-65140000D01*
X138250000Y-67060000D02*
X141110000Y-67060000D01*
X141110000Y-65140000D02*
X138250000Y-65140000D01*
%TO.C,J2*%
X149727500Y-95180000D02*
X149807500Y-95500000D01*
X145307500Y-89110000D02*
X145307500Y-87890000D01*
X146307500Y-100500000D02*
X146307500Y-100180000D01*
X149727500Y-90820000D02*
X146307500Y-90820000D01*
X146307500Y-90820000D02*
X146307500Y-90500000D01*
X146307500Y-95820000D02*
X146307500Y-95500000D01*
X150307500Y-108110000D02*
X150307500Y-106890000D01*
X149727500Y-92680000D02*
X149807500Y-93000000D01*
X146307500Y-105820000D02*
X146307500Y-105500000D01*
X146307500Y-93000000D02*
X146307500Y-92680000D01*
X146307500Y-98320000D02*
X146307500Y-98000000D01*
X146307500Y-102680000D02*
X149727500Y-102680000D01*
X146307500Y-92680000D02*
X149727500Y-92680000D01*
X149727500Y-102680000D02*
X149807500Y-103000000D01*
X146307500Y-100180000D02*
X149727500Y-100180000D01*
X146307500Y-90500000D02*
X146307500Y-90180000D01*
X145307500Y-101670000D02*
X145307500Y-101830000D01*
X146307500Y-103320000D02*
X146307500Y-103000000D01*
X149727500Y-105180000D02*
X149807500Y-105500000D01*
X146307500Y-98000000D02*
X146307500Y-97680000D01*
X143107500Y-106890000D02*
X145307500Y-106890000D01*
X149727500Y-93320000D02*
X146307500Y-93320000D01*
X142617500Y-90800000D02*
X143217500Y-90500000D01*
X146307500Y-105500000D02*
X146307500Y-105180000D01*
X146307500Y-95500000D02*
X146307500Y-95180000D01*
X145307500Y-96670000D02*
X145307500Y-96830000D01*
X146307500Y-95180000D02*
X149727500Y-95180000D01*
X149727500Y-97680000D02*
X149807500Y-98000000D01*
X146307500Y-97680000D02*
X149727500Y-97680000D01*
X149727500Y-100820000D02*
X146307500Y-100820000D01*
X149807500Y-95500000D02*
X149727500Y-95820000D01*
X151527500Y-108110000D02*
X143107500Y-108110000D01*
X145307500Y-99170000D02*
X145307500Y-99330000D01*
X143107500Y-108110000D02*
X143107500Y-106890000D01*
X149727500Y-98320000D02*
X146307500Y-98320000D01*
X146307500Y-103000000D02*
X146307500Y-102680000D01*
X146307500Y-93320000D02*
X146307500Y-93000000D01*
X143217500Y-90500000D02*
X142617500Y-90200000D01*
X149807500Y-100500000D02*
X149727500Y-100820000D01*
X145307500Y-91670000D02*
X145307500Y-91830000D01*
X145307500Y-94170000D02*
X145307500Y-94330000D01*
X142617500Y-90200000D02*
X142617500Y-90800000D01*
X145307500Y-104170000D02*
X145307500Y-104330000D01*
X151527500Y-87890000D02*
X151527500Y-108110000D01*
X146307500Y-100820000D02*
X146307500Y-100500000D01*
X143107500Y-87890000D02*
X151527500Y-87890000D01*
X149727500Y-90180000D02*
X149807500Y-90500000D01*
X145307500Y-106890000D02*
X145307500Y-108110000D01*
X150307500Y-87890000D02*
X150307500Y-89110000D01*
X150307500Y-89110000D02*
X145307500Y-89110000D01*
X149807500Y-98000000D02*
X149727500Y-98320000D01*
X149807500Y-103000000D02*
X149727500Y-103320000D01*
X149727500Y-95820000D02*
X146307500Y-95820000D01*
X146307500Y-89110000D02*
X146307500Y-106890000D01*
X143107500Y-89110000D02*
X143107500Y-87890000D01*
X146307500Y-90180000D02*
X149727500Y-90180000D01*
X145307500Y-89110000D02*
X143107500Y-89110000D01*
X146307500Y-105180000D02*
X149727500Y-105180000D01*
X149727500Y-103320000D02*
X146307500Y-103320000D01*
X149727500Y-105820000D02*
X146307500Y-105820000D01*
X150307500Y-106890000D02*
X145307500Y-106890000D01*
X149807500Y-105500000D02*
X149727500Y-105820000D01*
X149807500Y-93000000D02*
X149727500Y-93320000D01*
X149727500Y-100180000D02*
X149807500Y-100500000D01*
X149807500Y-90500000D02*
X149727500Y-90820000D01*
%TO.C,D6*%
X141110000Y-68890000D02*
X138250000Y-68890000D01*
X138250000Y-70810000D02*
X141110000Y-70810000D01*
X141110000Y-70810000D02*
X141110000Y-68890000D01*
%TO.C,R1*%
X142465000Y-66227064D02*
X142465000Y-65772936D01*
X143935000Y-66227064D02*
X143935000Y-65772936D01*
%TO.C,R8*%
X135565000Y-70077064D02*
X135565000Y-69622936D01*
X137035000Y-70077064D02*
X137035000Y-69622936D01*
%TO.C,R6*%
X128115000Y-70077064D02*
X128115000Y-69622936D01*
X129585000Y-70077064D02*
X129585000Y-69622936D01*
%TO.C,BUTTON_2*%
X113150000Y-82500000D02*
X116850000Y-82500000D01*
X118150000Y-82500000D02*
X121850000Y-82500000D01*
X118150000Y-79500000D02*
X118150000Y-82500000D01*
X116850000Y-79500000D02*
X116850000Y-82500000D01*
X116850000Y-79500000D02*
X113150000Y-79500000D01*
X121850000Y-79500000D02*
X121850000Y-82500000D01*
X113150000Y-79500000D02*
X113150000Y-82500000D01*
X121850000Y-79500000D02*
X118150000Y-79500000D01*
%TO.C,BUTTON_5*%
X121850000Y-100500000D02*
X121850000Y-103500000D01*
X113150000Y-103500000D02*
X116850000Y-103500000D01*
X118150000Y-100500000D02*
X118150000Y-103500000D01*
X118150000Y-103500000D02*
X121850000Y-103500000D01*
X116850000Y-100500000D02*
X113150000Y-100500000D01*
X121850000Y-100500000D02*
X118150000Y-100500000D01*
X113150000Y-100500000D02*
X113150000Y-103500000D01*
X116850000Y-100500000D02*
X116850000Y-103500000D01*
%TO.C,BUTTON_1*%
X113150000Y-72500000D02*
X113150000Y-75500000D01*
X118150000Y-75500000D02*
X121850000Y-75500000D01*
X113150000Y-75500000D02*
X116850000Y-75500000D01*
X118150000Y-72500000D02*
X118150000Y-75500000D01*
X121850000Y-72500000D02*
X121850000Y-75500000D01*
X116850000Y-72500000D02*
X116850000Y-75500000D01*
X121850000Y-72500000D02*
X118150000Y-72500000D01*
X116850000Y-72500000D02*
X113150000Y-72500000D01*
%TO.C,D5*%
X133660000Y-70810000D02*
X133660000Y-68890000D01*
X130800000Y-70810000D02*
X133660000Y-70810000D01*
X133660000Y-68890000D02*
X130800000Y-68890000D01*
%TO.C,BUTTON_6*%
X113150000Y-110500000D02*
X116850000Y-110500000D01*
X121850000Y-107500000D02*
X121850000Y-110500000D01*
X116850000Y-107500000D02*
X113150000Y-107500000D01*
X116850000Y-107500000D02*
X116850000Y-110500000D01*
X118150000Y-107500000D02*
X118150000Y-110500000D01*
X121850000Y-107500000D02*
X118150000Y-107500000D01*
X113150000Y-107500000D02*
X113150000Y-110500000D01*
X118150000Y-110500000D02*
X121850000Y-110500000D01*
%TO.C,R7*%
X137035000Y-66327064D02*
X137035000Y-65872936D01*
X135565000Y-66327064D02*
X135565000Y-65872936D01*
%TO.C,R2*%
X142465000Y-69977064D02*
X142465000Y-69522936D01*
X143935000Y-69977064D02*
X143935000Y-69522936D01*
%TO.C,A1*%
X122990000Y-115700000D02*
X141030000Y-115700000D01*
X138360000Y-74930000D02*
X138360000Y-113030000D01*
X125660000Y-77470000D02*
X122990000Y-77470000D01*
X125660000Y-74930000D02*
X122990000Y-74930000D01*
X122990000Y-77470000D02*
X122990000Y-115700000D01*
X141030000Y-115700000D02*
X141030000Y-72260000D01*
X125660000Y-113030000D02*
X122990000Y-113030000D01*
X125660000Y-77470000D02*
X125660000Y-74930000D01*
X141030000Y-72260000D02*
X122990000Y-72260000D01*
X125660000Y-77470000D02*
X125660000Y-113030000D01*
X122990000Y-72260000D02*
X122990000Y-74930000D01*
X138360000Y-113030000D02*
X141030000Y-113030000D01*
X138360000Y-74930000D02*
X141030000Y-74930000D01*
%TO.C,R3*%
X122085000Y-66327064D02*
X122085000Y-65872936D01*
X120615000Y-66327064D02*
X120615000Y-65872936D01*
%TO.C,BUTTON_4*%
X113150000Y-96500000D02*
X116850000Y-96500000D01*
X113150000Y-93500000D02*
X113150000Y-96500000D01*
X121850000Y-93500000D02*
X118150000Y-93500000D01*
X118150000Y-96500000D02*
X121850000Y-96500000D01*
X116850000Y-93500000D02*
X113150000Y-93500000D01*
X116850000Y-93500000D02*
X116850000Y-96500000D01*
X118150000Y-93500000D02*
X118150000Y-96500000D01*
X121850000Y-93500000D02*
X121850000Y-96500000D01*
%TO.C,BUTTON_3*%
X113150000Y-89500000D02*
X116850000Y-89500000D01*
X118150000Y-86500000D02*
X118150000Y-89500000D01*
X113150000Y-86500000D02*
X113150000Y-89500000D01*
X116850000Y-86500000D02*
X116850000Y-89500000D01*
X118150000Y-89500000D02*
X121850000Y-89500000D01*
X121850000Y-86500000D02*
X118150000Y-86500000D01*
X116850000Y-86500000D02*
X113150000Y-86500000D01*
X121850000Y-86500000D02*
X121850000Y-89500000D01*
%TO.C,J3*%
X149760000Y-75320000D02*
X146340000Y-75320000D01*
X149760000Y-82820000D02*
X146340000Y-82820000D01*
X145340000Y-73610000D02*
X143140000Y-73610000D01*
X143140000Y-73610000D02*
X143140000Y-72390000D01*
X149840000Y-75000000D02*
X149760000Y-75320000D01*
X149760000Y-77180000D02*
X149840000Y-77500000D01*
X149840000Y-82500000D02*
X149760000Y-82820000D01*
X150340000Y-83890000D02*
X145340000Y-83890000D01*
X146340000Y-75000000D02*
X146340000Y-74680000D01*
X143140000Y-85110000D02*
X143140000Y-83890000D01*
X145340000Y-83890000D02*
X145340000Y-85110000D01*
X149760000Y-82180000D02*
X149840000Y-82500000D01*
X150340000Y-72390000D02*
X150340000Y-73610000D01*
X146340000Y-77820000D02*
X146340000Y-77500000D01*
X149760000Y-74680000D02*
X149840000Y-75000000D01*
X150340000Y-85110000D02*
X150340000Y-83890000D01*
X151560000Y-85110000D02*
X143140000Y-85110000D01*
X146340000Y-77500000D02*
X146340000Y-77180000D01*
X145340000Y-73610000D02*
X145340000Y-72390000D01*
X145340000Y-76170000D02*
X145340000Y-76330000D01*
X146340000Y-74680000D02*
X149760000Y-74680000D01*
X146340000Y-80000000D02*
X146340000Y-79680000D01*
X145340000Y-81170000D02*
X145340000Y-81330000D01*
X149840000Y-80000000D02*
X149760000Y-80320000D01*
X149840000Y-77500000D02*
X149760000Y-77820000D01*
X146340000Y-73610000D02*
X146340000Y-83890000D01*
X150340000Y-73610000D02*
X145340000Y-73610000D01*
X142650000Y-75300000D02*
X143250000Y-75000000D01*
X149760000Y-80320000D02*
X146340000Y-80320000D01*
X146340000Y-77180000D02*
X149760000Y-77180000D01*
X146340000Y-82820000D02*
X146340000Y-82500000D01*
X146340000Y-82500000D02*
X146340000Y-82180000D01*
X142650000Y-74700000D02*
X142650000Y-75300000D01*
X143140000Y-83890000D02*
X145340000Y-83890000D01*
X149760000Y-79680000D02*
X149840000Y-80000000D01*
X146340000Y-80320000D02*
X146340000Y-80000000D01*
X143140000Y-72390000D02*
X151560000Y-72390000D01*
X143250000Y-75000000D02*
X142650000Y-74700000D01*
X146340000Y-75320000D02*
X146340000Y-75000000D01*
X146340000Y-79680000D02*
X149760000Y-79680000D01*
X151560000Y-72390000D02*
X151560000Y-85110000D01*
X149760000Y-77820000D02*
X146340000Y-77820000D01*
X146340000Y-82180000D02*
X149760000Y-82180000D01*
X145340000Y-78670000D02*
X145340000Y-78830000D01*
%TD*%
M02*
