%TF.GenerationSoftware,KiCad,Pcbnew,(6.0.5)*%
%TF.CreationDate,2022-06-02T23:03:52-07:00*%
%TF.ProjectId,arduino-autofire,61726475-696e-46f2-9d61-75746f666972,rev?*%
%TF.SameCoordinates,Original*%
%TF.FileFunction,Copper,L1,Top*%
%TF.FilePolarity,Positive*%
%FSLAX46Y46*%
G04 Gerber Fmt 4.6, Leading zero omitted, Abs format (unit mm)*
G04 Created by KiCad (PCBNEW (6.0.5)) date 2022-06-02 23:03:52*
%MOMM*%
%LPD*%
G01*
G04 APERTURE LIST*
G04 Aperture macros list*
%AMRoundRect*
0 Rectangle with rounded corners*
0 $1 Rounding radius*
0 $2 $3 $4 $5 $6 $7 $8 $9 X,Y pos of 4 corners*
0 Add a 4 corners polygon primitive as box body*
4,1,4,$2,$3,$4,$5,$6,$7,$8,$9,$2,$3,0*
0 Add four circle primitives for the rounded corners*
1,1,$1+$1,$2,$3*
1,1,$1+$1,$4,$5*
1,1,$1+$1,$6,$7*
1,1,$1+$1,$8,$9*
0 Add four rect primitives between the rounded corners*
20,1,$1+$1,$2,$3,$4,$5,0*
20,1,$1+$1,$4,$5,$6,$7,0*
20,1,$1+$1,$6,$7,$8,$9,0*
20,1,$1+$1,$8,$9,$2,$3,0*%
G04 Aperture macros list end*
%TA.AperFunction,SMDPad,CuDef*%
%ADD10RoundRect,0.250000X0.450000X-0.350000X0.450000X0.350000X-0.450000X0.350000X-0.450000X-0.350000X0*%
%TD*%
%TA.AperFunction,SMDPad,CuDef*%
%ADD11RoundRect,0.250000X0.325000X0.450000X-0.325000X0.450000X-0.325000X-0.450000X0.325000X-0.450000X0*%
%TD*%
%TA.AperFunction,ComponentPad*%
%ADD12C,2.600000*%
%TD*%
%TA.AperFunction,ComponentPad*%
%ADD13RoundRect,0.250000X-0.750000X0.600000X-0.750000X-0.600000X0.750000X-0.600000X0.750000X0.600000X0*%
%TD*%
%TA.AperFunction,ComponentPad*%
%ADD14O,2.000000X1.700000*%
%TD*%
%TA.AperFunction,ComponentPad*%
%ADD15RoundRect,0.250000X-0.725000X0.600000X-0.725000X-0.600000X0.725000X-0.600000X0.725000X0.600000X0*%
%TD*%
%TA.AperFunction,ComponentPad*%
%ADD16O,1.950000X1.700000*%
%TD*%
%TA.AperFunction,ComponentPad*%
%ADD17R,1.600000X1.600000*%
%TD*%
%TA.AperFunction,ComponentPad*%
%ADD18O,1.600000X1.600000*%
%TD*%
%TA.AperFunction,ViaPad*%
%ADD19C,1.000000*%
%TD*%
%TA.AperFunction,ViaPad*%
%ADD20C,0.800000*%
%TD*%
%TA.AperFunction,Conductor*%
%ADD21C,0.250000*%
%TD*%
%TA.AperFunction,Conductor*%
%ADD22C,0.400000*%
%TD*%
G04 APERTURE END LIST*
D10*
%TO.P,R4,1*%
%TO.N,Net-(D4-Pad1)*%
X121350000Y-70850000D03*
%TO.P,R4,2*%
%TO.N,GND*%
X121350000Y-68850000D03*
%TD*%
%TO.P,R5,1*%
%TO.N,+5V*%
X128850000Y-67100000D03*
%TO.P,R5,2*%
%TO.N,Net-(D2-Pad2)*%
X128850000Y-65100000D03*
%TD*%
D11*
%TO.P,D4,1,K*%
%TO.N,Net-(D4-Pad1)*%
X125350000Y-69850000D03*
%TO.P,D4,2,A*%
%TO.N,/LED14*%
X123300000Y-69850000D03*
%TD*%
D12*
%TO.P,BTN_GND1,1,Pin_1*%
%TO.N,GND*%
X120000000Y-116000000D03*
X115000000Y-116000000D03*
%TD*%
D11*
%TO.P,D1,1,K*%
%TO.N,/LED14*%
X125375000Y-66100000D03*
%TO.P,D1,2,A*%
%TO.N,Net-(D1-Pad2)*%
X123325000Y-66100000D03*
%TD*%
%TO.P,D2,1,K*%
%TO.N,/LED25*%
X132825000Y-66100000D03*
%TO.P,D2,2,A*%
%TO.N,Net-(D2-Pad2)*%
X130775000Y-66100000D03*
%TD*%
D13*
%TO.P,J1,1,Pin_1*%
%TO.N,Net-(A1-Pad30)*%
X144717500Y-113500000D03*
D14*
%TO.P,J1,2,Pin_2*%
%TO.N,GND*%
X144717500Y-116000000D03*
%TD*%
D11*
%TO.P,D3,1,K*%
%TO.N,/LED36*%
X140275000Y-66100000D03*
%TO.P,D3,2,A*%
%TO.N,Net-(D3-Pad2)*%
X138225000Y-66100000D03*
%TD*%
D15*
%TO.P,J2,1,Pin_1*%
%TO.N,Net-(A1-Pad11)*%
X144717500Y-90500000D03*
D16*
%TO.P,J2,2,Pin_2*%
%TO.N,Net-(A1-Pad12)*%
X144717500Y-93000000D03*
%TO.P,J2,3,Pin_3*%
%TO.N,Net-(A1-Pad13)*%
X144717500Y-95500000D03*
%TO.P,J2,4,Pin_4*%
%TO.N,Net-(A1-Pad14)*%
X144717500Y-98000000D03*
%TO.P,J2,5,Pin_5*%
%TO.N,Net-(A1-Pad15)*%
X144717500Y-100500000D03*
%TO.P,J2,6,Pin_6*%
%TO.N,Net-(A1-Pad16)*%
X144717500Y-103000000D03*
%TO.P,J2,7,Pin_7*%
%TO.N,GND*%
X144717500Y-105500000D03*
%TD*%
D11*
%TO.P,D6,1,K*%
%TO.N,Net-(D6-Pad1)*%
X140275000Y-69850000D03*
%TO.P,D6,2,A*%
%TO.N,/LED36*%
X138225000Y-69850000D03*
%TD*%
D10*
%TO.P,R1,1*%
%TO.N,+5V*%
X143200000Y-67000000D03*
%TO.P,R1,2*%
%TO.N,Net-(A1-Pad23)*%
X143200000Y-65000000D03*
%TD*%
%TO.P,R8,1*%
%TO.N,Net-(D6-Pad1)*%
X136300000Y-70850000D03*
%TO.P,R8,2*%
%TO.N,GND*%
X136300000Y-68850000D03*
%TD*%
%TO.P,R6,1*%
%TO.N,Net-(D5-Pad1)*%
X128850000Y-70850000D03*
%TO.P,R6,2*%
%TO.N,GND*%
X128850000Y-68850000D03*
%TD*%
D12*
%TO.P,BUTTON_2,1,Pin_1*%
%TO.N,Net-(A1-Pad6)*%
X115000000Y-81000000D03*
X120000000Y-81000000D03*
%TD*%
%TO.P,BUTTON_5,1,Pin_1*%
%TO.N,Net-(A1-Pad9)*%
X120000000Y-102000000D03*
X115000000Y-102000000D03*
%TD*%
%TO.P,BUTTON_1,1,Pin_1*%
%TO.N,Net-(A1-Pad5)*%
X120000000Y-74000000D03*
X115000000Y-74000000D03*
%TD*%
D11*
%TO.P,D5,1,K*%
%TO.N,Net-(D5-Pad1)*%
X132825000Y-69850000D03*
%TO.P,D5,2,A*%
%TO.N,/LED25*%
X130775000Y-69850000D03*
%TD*%
D12*
%TO.P,BUTTON_6,1,Pin_1*%
%TO.N,Net-(A1-Pad10)*%
X120000000Y-109000000D03*
X115000000Y-109000000D03*
%TD*%
D10*
%TO.P,R7,1*%
%TO.N,+5V*%
X136300000Y-67100000D03*
%TO.P,R7,2*%
%TO.N,Net-(D3-Pad2)*%
X136300000Y-65100000D03*
%TD*%
%TO.P,R2,1*%
%TO.N,+5V*%
X143200000Y-70750000D03*
%TO.P,R2,2*%
%TO.N,Net-(A1-Pad24)*%
X143200000Y-68750000D03*
%TD*%
D17*
%TO.P,A1,1,D1/TX*%
%TO.N,unconnected-(A1-Pad1)*%
X124390000Y-76200000D03*
D18*
%TO.P,A1,2,D0/RX*%
%TO.N,unconnected-(A1-Pad2)*%
X124390000Y-78740000D03*
%TO.P,A1,3,~{RESET}*%
%TO.N,unconnected-(A1-Pad3)*%
X124390000Y-81280000D03*
%TO.P,A1,4,GND*%
%TO.N,GND*%
X124390000Y-83820000D03*
%TO.P,A1,5,D2*%
%TO.N,Net-(A1-Pad5)*%
X124390000Y-86360000D03*
%TO.P,A1,6,D3*%
%TO.N,Net-(A1-Pad6)*%
X124390000Y-88900000D03*
%TO.P,A1,7,D4*%
%TO.N,Net-(A1-Pad7)*%
X124390000Y-91440000D03*
%TO.P,A1,8,D5*%
%TO.N,Net-(A1-Pad8)*%
X124390000Y-93980000D03*
%TO.P,A1,9,D6*%
%TO.N,Net-(A1-Pad9)*%
X124390000Y-96520000D03*
%TO.P,A1,10,D7*%
%TO.N,Net-(A1-Pad10)*%
X124390000Y-99060000D03*
%TO.P,A1,11,D8*%
%TO.N,Net-(A1-Pad11)*%
X124390000Y-101600000D03*
%TO.P,A1,12,D9*%
%TO.N,Net-(A1-Pad12)*%
X124390000Y-104140000D03*
%TO.P,A1,13,D10*%
%TO.N,Net-(A1-Pad13)*%
X124390000Y-106680000D03*
%TO.P,A1,14,D11*%
%TO.N,Net-(A1-Pad14)*%
X124390000Y-109220000D03*
%TO.P,A1,15,D12*%
%TO.N,Net-(A1-Pad15)*%
X124390000Y-111760000D03*
%TO.P,A1,16,D13*%
%TO.N,Net-(A1-Pad16)*%
X139630000Y-111760000D03*
%TO.P,A1,17,3V3*%
%TO.N,unconnected-(A1-Pad17)*%
X139630000Y-109220000D03*
%TO.P,A1,18,AREF*%
%TO.N,unconnected-(A1-Pad18)*%
X139630000Y-106680000D03*
%TO.P,A1,19,A0*%
%TO.N,/LED14*%
X139630000Y-104140000D03*
%TO.P,A1,20,A1*%
%TO.N,/LED25*%
X139630000Y-101600000D03*
%TO.P,A1,21,A2*%
%TO.N,/LED36*%
X139630000Y-99060000D03*
%TO.P,A1,22,A3*%
%TO.N,unconnected-(A1-Pad22)*%
X139630000Y-96520000D03*
%TO.P,A1,23,A4*%
%TO.N,Net-(A1-Pad23)*%
X139630000Y-93980000D03*
%TO.P,A1,24,A5*%
%TO.N,Net-(A1-Pad24)*%
X139630000Y-91440000D03*
%TO.P,A1,25,A6*%
%TO.N,unconnected-(A1-Pad25)*%
X139630000Y-88900000D03*
%TO.P,A1,26,A7*%
%TO.N,unconnected-(A1-Pad26)*%
X139630000Y-86360000D03*
%TO.P,A1,27,+5V*%
%TO.N,+5V*%
X139630000Y-83820000D03*
%TO.P,A1,28,~{RESET}*%
%TO.N,unconnected-(A1-Pad28)*%
X139630000Y-81280000D03*
%TO.P,A1,29,GND*%
%TO.N,GND*%
X139630000Y-78740000D03*
%TO.P,A1,30,VIN*%
%TO.N,Net-(A1-Pad30)*%
X139630000Y-76200000D03*
%TD*%
D10*
%TO.P,R3,1*%
%TO.N,+5V*%
X121350000Y-67100000D03*
%TO.P,R3,2*%
%TO.N,Net-(D1-Pad2)*%
X121350000Y-65100000D03*
%TD*%
D12*
%TO.P,BUTTON_4,1,Pin_1*%
%TO.N,Net-(A1-Pad8)*%
X120000000Y-95000000D03*
X115000000Y-95000000D03*
%TD*%
%TO.P,BUTTON_3,1,Pin_1*%
%TO.N,Net-(A1-Pad7)*%
X115000000Y-88000000D03*
X120000000Y-88000000D03*
%TD*%
D15*
%TO.P,J3,1,Pin_1*%
%TO.N,+5V*%
X144750000Y-75000000D03*
D16*
%TO.P,J3,2,Pin_2*%
%TO.N,GND*%
X144750000Y-77500000D03*
%TO.P,J3,3,Pin_3*%
%TO.N,Net-(A1-Pad23)*%
X144750000Y-80000000D03*
%TO.P,J3,4,Pin_4*%
%TO.N,Net-(A1-Pad24)*%
X144750000Y-82500000D03*
%TD*%
D19*
%TO.N,GND*%
X144750000Y-109250000D03*
X142000000Y-103750000D03*
X141250000Y-108000000D03*
D20*
X130500000Y-67750000D03*
D19*
X141250000Y-113500000D03*
X141250000Y-110500000D03*
D20*
X137962701Y-67712701D03*
D19*
X141250000Y-105500000D03*
X141250000Y-116000000D03*
D20*
%TO.N,Net-(A1-Pad11)*%
X150400000Y-117500000D03*
%TO.N,Net-(A1-Pad12)*%
X149398509Y-117500000D03*
%TO.N,Net-(A1-Pad13)*%
X148399006Y-117500000D03*
%TO.N,Net-(A1-Pad14)*%
X147399503Y-117500000D03*
%TO.N,Net-(A1-Pad15)*%
X146400000Y-117500000D03*
%TO.N,Net-(A1-Pad16)*%
X142600000Y-111750000D03*
%TO.N,/LED14*%
X142224500Y-73550000D03*
%TO.N,/LED25*%
X141500000Y-72600000D03*
%TO.N,/LED36*%
X140700000Y-67800000D03*
%TO.N,Net-(A1-Pad23)*%
X147900000Y-71450000D03*
X147900000Y-80000000D03*
%TO.N,Net-(A1-Pad24)*%
X146800000Y-71450000D03*
D19*
%TO.N,+5V*%
X145000000Y-86500000D03*
X149750000Y-86500000D03*
%TD*%
D21*
%TO.N,GND*%
X128850000Y-68850000D02*
X129400000Y-68850000D01*
X136825402Y-68850000D02*
X137962701Y-67712701D01*
X136300000Y-68850000D02*
X136825402Y-68850000D01*
X129400000Y-68850000D02*
X130500000Y-67750000D01*
%TO.N,Net-(A1-Pad5)*%
X120000000Y-74000000D02*
X123265489Y-77265489D01*
X115000000Y-74000000D02*
X120000000Y-74000000D01*
X123265489Y-77265489D02*
X123265489Y-85235489D01*
X123265489Y-85235489D02*
X124390000Y-86360000D01*
%TO.N,Net-(A1-Pad6)*%
X121600000Y-81000000D02*
X122650000Y-82050000D01*
X120000000Y-81000000D02*
X121600000Y-81000000D01*
X115000000Y-81000000D02*
X120000000Y-81000000D01*
X122650000Y-87160000D02*
X124390000Y-88900000D01*
X122650000Y-82050000D02*
X122650000Y-87160000D01*
%TO.N,Net-(A1-Pad7)*%
X115000000Y-88000000D02*
X120000000Y-88000000D01*
X120000000Y-88000000D02*
X122100000Y-88000000D01*
X122800000Y-88700000D02*
X122800000Y-89850000D01*
X122100000Y-88000000D02*
X122800000Y-88700000D01*
X122800000Y-89850000D02*
X124390000Y-91440000D01*
%TO.N,Net-(A1-Pad8)*%
X115000000Y-95000000D02*
X120000000Y-95000000D01*
X120000000Y-95000000D02*
X123370000Y-95000000D01*
X123370000Y-95000000D02*
X124390000Y-93980000D01*
%TO.N,Net-(A1-Pad9)*%
X120000000Y-100910000D02*
X124390000Y-96520000D01*
X120000000Y-102000000D02*
X120000000Y-100910000D01*
X115000000Y-102000000D02*
X120000000Y-102000000D01*
%TO.N,Net-(A1-Pad10)*%
X124390000Y-100009700D02*
X124390000Y-99060000D01*
X120000000Y-109000000D02*
X120000000Y-104399700D01*
X120000000Y-104399700D02*
X124390000Y-100009700D01*
X115000000Y-109000000D02*
X120000000Y-109000000D01*
%TO.N,Net-(A1-Pad11)*%
X124390000Y-101600000D02*
X121916929Y-104073071D01*
X148274083Y-119649040D02*
X150400000Y-117523123D01*
X139000000Y-117899040D02*
X140750000Y-119649040D01*
X140750000Y-119649040D02*
X148274083Y-119649040D01*
X150400000Y-117523123D02*
X150400000Y-117500000D01*
X121916929Y-114836605D02*
X124979366Y-117899040D01*
X124979366Y-117899040D02*
X139000000Y-117899040D01*
X121916929Y-104073071D02*
X121916929Y-114836605D01*
%TO.N,Net-(A1-Pad12)*%
X125165563Y-117449520D02*
X139250000Y-117449520D01*
X149398509Y-117851491D02*
X149398509Y-117500000D01*
X122366449Y-114650407D02*
X125165563Y-117449520D01*
X141000000Y-119199520D02*
X148050480Y-119199520D01*
X124390000Y-104140000D02*
X122366449Y-106163551D01*
X122366449Y-106163551D02*
X122366449Y-114650407D01*
X148050480Y-119199520D02*
X149398509Y-117851491D01*
X139250000Y-117449520D02*
X141000000Y-119199520D01*
%TO.N,Net-(A1-Pad13)*%
X147174117Y-118750000D02*
X148399006Y-117525111D01*
X124390000Y-106680000D02*
X122815969Y-108254031D01*
X122815969Y-114464209D02*
X125351760Y-117000000D01*
X122815969Y-108254031D02*
X122815969Y-114464209D01*
X125351760Y-117000000D02*
X139750000Y-117000000D01*
X139750000Y-117000000D02*
X141500000Y-118750000D01*
X148399006Y-117525111D02*
X148399006Y-117500000D01*
X141500000Y-118750000D02*
X147174117Y-118750000D01*
%TO.N,Net-(A1-Pad14)*%
X124390000Y-109220000D02*
X123265489Y-110344511D01*
X125487478Y-116500000D02*
X139948246Y-116500000D01*
X123265489Y-110344511D02*
X123265489Y-114278011D01*
X123265489Y-114278011D02*
X125487478Y-116500000D01*
X141672757Y-118224511D02*
X147025489Y-118224511D01*
X147399503Y-117850497D02*
X147399503Y-117500000D01*
X147025489Y-118224511D02*
X147399503Y-117850497D01*
X139948246Y-116500000D02*
X141672757Y-118224511D01*
%TO.N,Net-(A1-Pad15)*%
X124390000Y-114766804D02*
X124390000Y-111760000D01*
X146400000Y-117500000D02*
X141583964Y-117500000D01*
X140108984Y-116025020D02*
X125648216Y-116025020D01*
X141583964Y-117500000D02*
X140108984Y-116025020D01*
X125648216Y-116025020D02*
X124390000Y-114766804D01*
%TO.N,Net-(A1-Pad16)*%
X142590000Y-111760000D02*
X139630000Y-111760000D01*
X142600000Y-111750000D02*
X142590000Y-111760000D01*
%TO.N,/LED14*%
X125375000Y-66100000D02*
X127050000Y-67775000D01*
X127050000Y-72400000D02*
X128150000Y-73500000D01*
X128200000Y-73550000D02*
X142224500Y-73550000D01*
X125375000Y-66100000D02*
X123300000Y-68175000D01*
X123300000Y-68175000D02*
X123300000Y-69850000D01*
X127050000Y-67775000D02*
X127050000Y-70650000D01*
X127050000Y-70650000D02*
X127050000Y-72400000D01*
X128150000Y-73500000D02*
X128200000Y-73550000D01*
%TO.N,/LED25*%
X134600000Y-67875000D02*
X134600000Y-70900000D01*
X134600000Y-71900000D02*
X135300000Y-72600000D01*
X132825000Y-66100000D02*
X134600000Y-67875000D01*
X132825000Y-66100000D02*
X132825000Y-66575000D01*
X134600000Y-70900000D02*
X134600000Y-71900000D01*
X132825000Y-66575000D02*
X130775000Y-68625000D01*
X130775000Y-68625000D02*
X130775000Y-69850000D01*
X135300000Y-72600000D02*
X141500000Y-72600000D01*
%TO.N,/LED36*%
X140275000Y-66100000D02*
X140275000Y-67375000D01*
X138225000Y-68475000D02*
X138225000Y-69850000D01*
X140275000Y-66100000D02*
X140275000Y-66425000D01*
X140275000Y-66425000D02*
X138225000Y-68475000D01*
X140275000Y-67375000D02*
X140700000Y-67800000D01*
%TO.N,Net-(A1-Pad23)*%
X147175489Y-70725489D02*
X145975489Y-70725489D01*
X144400000Y-65350000D02*
X144050000Y-65000000D01*
X147900000Y-91603522D02*
X147900000Y-80000000D01*
X145329002Y-94174520D02*
X147900000Y-91603522D01*
X147900000Y-80000000D02*
X144750000Y-80000000D01*
X147900000Y-71450000D02*
X147175489Y-70725489D01*
X144050000Y-65000000D02*
X143200000Y-65000000D01*
X145975489Y-70725489D02*
X144400000Y-69150000D01*
X139630000Y-93980000D02*
X139824520Y-94174520D01*
X144400000Y-69150000D02*
X144400000Y-65350000D01*
X139824520Y-94174520D02*
X145329002Y-94174520D01*
%TO.N,Net-(A1-Pad24)*%
X145800000Y-91800000D02*
X147450480Y-90149520D01*
X143200000Y-68750000D02*
X145900000Y-71450000D01*
X146200000Y-82500000D02*
X144750000Y-82500000D01*
X145900000Y-71450000D02*
X146800000Y-71450000D01*
X147450480Y-83750480D02*
X146200000Y-82500000D01*
X147450480Y-90149520D02*
X147450480Y-83750480D01*
X139630000Y-91440000D02*
X139990000Y-91800000D01*
X139990000Y-91800000D02*
X145800000Y-91800000D01*
D22*
%TO.N,+5V*%
X145048329Y-75000000D02*
X144750000Y-75000000D01*
D21*
X135574520Y-64175480D02*
X135275480Y-64474520D01*
X143200000Y-67000000D02*
X142175480Y-68024520D01*
X142175480Y-68024520D02*
X142175480Y-69725480D01*
X135275480Y-64474520D02*
X135275480Y-66075480D01*
X120325480Y-66075480D02*
X121350000Y-67100000D01*
X135574520Y-64175480D02*
X128324520Y-64175480D01*
D22*
X139630000Y-83820000D02*
X142320000Y-83820000D01*
D21*
X127825480Y-66075480D02*
X128850000Y-67100000D01*
X127825480Y-64512027D02*
X127825480Y-66075480D01*
X128324520Y-64175480D02*
X128162027Y-64175480D01*
X120325480Y-64512027D02*
X120325480Y-66075480D01*
X120662027Y-64175480D02*
X120325480Y-64512027D01*
D22*
X149750000Y-86500000D02*
X149750000Y-79701671D01*
X142320000Y-83820000D02*
X145000000Y-86500000D01*
X149750000Y-79701671D02*
X145048329Y-75000000D01*
D21*
X135275480Y-66075480D02*
X136300000Y-67100000D01*
X144750000Y-72300000D02*
X144750000Y-75000000D01*
X128162027Y-64175480D02*
X127825480Y-64512027D01*
X135574520Y-64175480D02*
X140375480Y-64175480D01*
X142175480Y-69725480D02*
X143200000Y-70750000D01*
X140375480Y-64175480D02*
X143200000Y-67000000D01*
X143200000Y-70750000D02*
X144750000Y-72300000D01*
X128324520Y-64175480D02*
X120662027Y-64175480D01*
D22*
%TO.N,Net-(A1-Pad30)*%
X143200000Y-76200000D02*
X139630000Y-76200000D01*
X148699511Y-79499031D02*
X145450480Y-76250000D01*
X145450480Y-76250000D02*
X143250000Y-76250000D01*
X148699511Y-109517989D02*
X148699511Y-79499031D01*
X144717500Y-113500000D02*
X148699511Y-109517989D01*
X143250000Y-76250000D02*
X143200000Y-76200000D01*
D21*
%TO.N,Net-(D1-Pad2)*%
X121350000Y-65100000D02*
X122325000Y-65100000D01*
X122325000Y-65100000D02*
X123325000Y-66100000D01*
%TO.N,Net-(D3-Pad2)*%
X136300000Y-65100000D02*
X137225000Y-65100000D01*
X137225000Y-65100000D02*
X138225000Y-66100000D01*
%TO.N,Net-(D4-Pad1)*%
X121950000Y-71450000D02*
X123750000Y-71450000D01*
X123750000Y-71450000D02*
X125350000Y-69850000D01*
X121350000Y-70850000D02*
X121950000Y-71450000D01*
%TO.N,Net-(D6-Pad1)*%
X139250480Y-70874520D02*
X140275000Y-69850000D01*
X136300000Y-70850000D02*
X136324520Y-70874520D01*
X136324520Y-70874520D02*
X139250480Y-70874520D01*
%TO.N,Net-(D2-Pad2)*%
X129775000Y-65100000D02*
X130775000Y-66100000D01*
X128850000Y-65100000D02*
X129775000Y-65100000D01*
%TO.N,Net-(D5-Pad1)*%
X128874520Y-70874520D02*
X131800480Y-70874520D01*
X131800480Y-70874520D02*
X132825000Y-69850000D01*
X128850000Y-70850000D02*
X128874520Y-70874520D01*
%TD*%
%TA.AperFunction,Conductor*%
%TO.N,GND*%
G36*
X119642209Y-64278502D02*
G01*
X119688702Y-64332158D01*
X119698806Y-64402432D01*
X119696129Y-64415835D01*
X119693952Y-64424313D01*
X119693951Y-64424319D01*
X119691980Y-64431997D01*
X119691980Y-64452251D01*
X119690429Y-64471961D01*
X119687260Y-64491970D01*
X119688006Y-64499862D01*
X119691421Y-64535988D01*
X119691980Y-64547846D01*
X119691980Y-65996713D01*
X119691453Y-66007896D01*
X119689778Y-66015389D01*
X119690027Y-66023315D01*
X119690027Y-66023316D01*
X119691918Y-66083466D01*
X119691980Y-66087425D01*
X119691980Y-66115336D01*
X119692477Y-66119270D01*
X119692477Y-66119271D01*
X119692485Y-66119336D01*
X119693418Y-66131173D01*
X119694807Y-66175369D01*
X119700458Y-66194819D01*
X119704467Y-66214180D01*
X119707006Y-66234277D01*
X119709925Y-66241648D01*
X119709925Y-66241650D01*
X119723284Y-66275392D01*
X119727129Y-66286622D01*
X119739462Y-66329073D01*
X119743495Y-66335892D01*
X119743497Y-66335897D01*
X119749773Y-66346508D01*
X119758468Y-66364256D01*
X119765928Y-66383097D01*
X119770590Y-66389513D01*
X119770590Y-66389514D01*
X119791916Y-66418867D01*
X119798432Y-66428787D01*
X119820938Y-66466842D01*
X119835259Y-66481163D01*
X119848099Y-66496196D01*
X119860008Y-66512587D01*
X119866114Y-66517638D01*
X119894085Y-66540778D01*
X119902864Y-66548768D01*
X120104595Y-66750499D01*
X120138621Y-66812811D01*
X120141500Y-66839594D01*
X120141500Y-67500400D01*
X120141837Y-67503646D01*
X120141837Y-67503650D01*
X120150133Y-67583599D01*
X120152474Y-67606166D01*
X120208450Y-67773946D01*
X120212304Y-67780174D01*
X120212305Y-67780176D01*
X120245584Y-67833953D01*
X120287197Y-67901198D01*
X120292058Y-67909054D01*
X120310896Y-67977506D01*
X120292174Y-68041472D01*
X120212186Y-68171238D01*
X120206037Y-68184424D01*
X120154862Y-68338710D01*
X120151995Y-68352086D01*
X120142328Y-68446438D01*
X120142000Y-68452855D01*
X120142000Y-68577885D01*
X120146475Y-68593124D01*
X120147865Y-68594329D01*
X120155548Y-68596000D01*
X121478000Y-68596000D01*
X121546121Y-68616002D01*
X121592614Y-68669658D01*
X121604000Y-68722000D01*
X121604000Y-68978000D01*
X121583998Y-69046121D01*
X121530342Y-69092614D01*
X121478000Y-69104000D01*
X120160116Y-69104000D01*
X120144877Y-69108475D01*
X120143672Y-69109865D01*
X120142001Y-69117548D01*
X120142001Y-69247095D01*
X120142338Y-69253614D01*
X120152257Y-69349206D01*
X120155149Y-69362600D01*
X120206588Y-69516784D01*
X120212761Y-69529962D01*
X120298063Y-69667807D01*
X120307099Y-69679208D01*
X120388462Y-69760430D01*
X120422541Y-69822713D01*
X120417538Y-69893533D01*
X120388617Y-69938620D01*
X120305870Y-70021512D01*
X120305866Y-70021517D01*
X120300695Y-70026697D01*
X120296855Y-70032927D01*
X120296854Y-70032928D01*
X120240538Y-70124290D01*
X120207885Y-70177262D01*
X120152203Y-70345139D01*
X120141500Y-70449600D01*
X120141500Y-71250400D01*
X120141837Y-71253646D01*
X120141837Y-71253650D01*
X120150796Y-71339992D01*
X120152474Y-71356166D01*
X120154655Y-71362702D01*
X120154655Y-71362704D01*
X120179439Y-71436989D01*
X120208450Y-71523946D01*
X120301522Y-71674348D01*
X120306704Y-71679521D01*
X120326523Y-71699305D01*
X120426697Y-71799305D01*
X120432927Y-71803145D01*
X120432928Y-71803146D01*
X120570090Y-71887694D01*
X120577262Y-71892115D01*
X120637048Y-71911945D01*
X120738611Y-71945632D01*
X120738613Y-71945632D01*
X120745139Y-71947797D01*
X120751975Y-71948497D01*
X120751978Y-71948498D01*
X120784286Y-71951808D01*
X120849600Y-71958500D01*
X121527620Y-71958500D01*
X121588331Y-71974091D01*
X121592441Y-71976351D01*
X121608956Y-71987199D01*
X121624959Y-71999613D01*
X121665543Y-72017176D01*
X121676173Y-72022383D01*
X121714940Y-72043695D01*
X121722617Y-72045666D01*
X121722622Y-72045668D01*
X121734558Y-72048732D01*
X121753266Y-72055137D01*
X121771855Y-72063181D01*
X121779683Y-72064421D01*
X121779690Y-72064423D01*
X121815524Y-72070099D01*
X121827144Y-72072505D01*
X121858959Y-72080673D01*
X121869970Y-72083500D01*
X121890224Y-72083500D01*
X121909934Y-72085051D01*
X121929943Y-72088220D01*
X121937835Y-72087474D01*
X121956580Y-72085702D01*
X121973962Y-72084059D01*
X121985819Y-72083500D01*
X123671233Y-72083500D01*
X123682416Y-72084027D01*
X123689909Y-72085702D01*
X123697835Y-72085453D01*
X123697836Y-72085453D01*
X123757986Y-72083562D01*
X123761945Y-72083500D01*
X123789856Y-72083500D01*
X123793791Y-72083003D01*
X123793856Y-72082995D01*
X123805693Y-72082062D01*
X123837951Y-72081048D01*
X123841970Y-72080922D01*
X123849889Y-72080673D01*
X123869343Y-72075021D01*
X123888700Y-72071013D01*
X123900930Y-72069468D01*
X123900931Y-72069468D01*
X123908797Y-72068474D01*
X123916168Y-72065555D01*
X123916170Y-72065555D01*
X123949912Y-72052196D01*
X123961142Y-72048351D01*
X123995983Y-72038229D01*
X123995984Y-72038229D01*
X124003593Y-72036018D01*
X124010412Y-72031985D01*
X124010417Y-72031983D01*
X124021028Y-72025707D01*
X124038776Y-72017012D01*
X124057617Y-72009552D01*
X124077987Y-71994753D01*
X124093387Y-71983564D01*
X124103307Y-71977048D01*
X124134535Y-71958580D01*
X124134538Y-71958578D01*
X124141362Y-71954542D01*
X124155683Y-71940221D01*
X124170717Y-71927380D01*
X124172431Y-71926135D01*
X124187107Y-71915472D01*
X124215298Y-71881395D01*
X124223288Y-71872616D01*
X125000499Y-71095405D01*
X125062811Y-71061379D01*
X125089594Y-71058500D01*
X125725400Y-71058500D01*
X125728646Y-71058163D01*
X125728650Y-71058163D01*
X125824308Y-71048238D01*
X125824312Y-71048237D01*
X125831166Y-71047526D01*
X125837702Y-71045345D01*
X125837704Y-71045345D01*
X125991998Y-70993868D01*
X125998946Y-70991550D01*
X126149348Y-70898478D01*
X126154521Y-70893296D01*
X126154526Y-70893292D01*
X126201327Y-70846409D01*
X126263609Y-70812329D01*
X126334429Y-70817332D01*
X126391302Y-70859829D01*
X126416171Y-70926327D01*
X126416500Y-70935426D01*
X126416500Y-72321233D01*
X126415973Y-72332416D01*
X126414298Y-72339909D01*
X126414547Y-72347835D01*
X126414547Y-72347836D01*
X126416438Y-72407986D01*
X126416500Y-72411945D01*
X126416500Y-72439856D01*
X126416997Y-72443790D01*
X126416997Y-72443791D01*
X126417005Y-72443856D01*
X126417938Y-72455693D01*
X126419327Y-72499889D01*
X126424978Y-72519339D01*
X126428987Y-72538700D01*
X126431526Y-72558797D01*
X126434445Y-72566168D01*
X126434445Y-72566170D01*
X126447804Y-72599912D01*
X126451649Y-72611142D01*
X126459643Y-72638658D01*
X126463982Y-72653593D01*
X126468015Y-72660412D01*
X126468017Y-72660417D01*
X126474293Y-72671028D01*
X126482988Y-72688776D01*
X126490448Y-72707617D01*
X126495110Y-72714033D01*
X126495110Y-72714034D01*
X126516436Y-72743387D01*
X126522952Y-72753307D01*
X126535645Y-72774769D01*
X126545458Y-72791362D01*
X126559779Y-72805683D01*
X126572619Y-72820716D01*
X126584528Y-72837107D01*
X126590634Y-72842158D01*
X126618605Y-72865298D01*
X126627384Y-72873288D01*
X127696348Y-73942253D01*
X127703888Y-73950539D01*
X127708000Y-73957018D01*
X127713777Y-73962443D01*
X127757667Y-74003658D01*
X127760509Y-74006413D01*
X127780231Y-74026135D01*
X127783355Y-74028558D01*
X127783359Y-74028562D01*
X127783424Y-74028612D01*
X127792445Y-74036317D01*
X127824679Y-74066586D01*
X127831627Y-74070405D01*
X127831629Y-74070407D01*
X127842432Y-74076346D01*
X127858959Y-74087202D01*
X127868698Y-74094757D01*
X127868700Y-74094758D01*
X127874960Y-74099614D01*
X127915540Y-74117174D01*
X127926188Y-74122391D01*
X127964940Y-74143695D01*
X127972616Y-74145666D01*
X127972619Y-74145667D01*
X127984562Y-74148733D01*
X128003267Y-74155137D01*
X128021855Y-74163181D01*
X128029678Y-74164420D01*
X128029688Y-74164423D01*
X128065524Y-74170099D01*
X128077144Y-74172505D01*
X128112289Y-74181528D01*
X128119970Y-74183500D01*
X128140224Y-74183500D01*
X128159934Y-74185051D01*
X128179943Y-74188220D01*
X128187835Y-74187474D01*
X128223961Y-74184059D01*
X128235819Y-74183500D01*
X141516300Y-74183500D01*
X141584421Y-74203502D01*
X141603647Y-74219843D01*
X141603920Y-74219540D01*
X141608832Y-74223963D01*
X141613247Y-74228866D01*
X141767748Y-74341118D01*
X141773776Y-74343802D01*
X141773778Y-74343803D01*
X141936181Y-74416109D01*
X141942212Y-74418794D01*
X142035613Y-74438647D01*
X142122556Y-74457128D01*
X142122561Y-74457128D01*
X142129013Y-74458500D01*
X142319987Y-74458500D01*
X142326439Y-74457128D01*
X142326444Y-74457128D01*
X142413387Y-74438647D01*
X142506788Y-74418794D01*
X142512819Y-74416109D01*
X142675222Y-74343803D01*
X142675224Y-74343802D01*
X142681252Y-74341118D01*
X142835753Y-74228866D01*
X142840175Y-74223955D01*
X142959121Y-74091852D01*
X142959122Y-74091851D01*
X142963540Y-74086944D01*
X143038553Y-73957018D01*
X143055723Y-73927279D01*
X143055724Y-73927278D01*
X143059027Y-73921556D01*
X143118042Y-73739928D01*
X143121351Y-73708450D01*
X143137314Y-73556565D01*
X143138004Y-73550000D01*
X143129571Y-73469763D01*
X143118732Y-73366635D01*
X143118732Y-73366633D01*
X143118042Y-73360072D01*
X143059027Y-73178444D01*
X143055687Y-73172658D01*
X142966841Y-73018774D01*
X142963540Y-73013056D01*
X142900696Y-72943260D01*
X142840175Y-72876045D01*
X142840174Y-72876044D01*
X142835753Y-72871134D01*
X142708167Y-72778437D01*
X142686594Y-72762763D01*
X142686593Y-72762762D01*
X142681252Y-72758882D01*
X142675224Y-72756198D01*
X142675222Y-72756197D01*
X142512819Y-72683891D01*
X142512818Y-72683891D01*
X142506788Y-72681206D01*
X142500332Y-72679834D01*
X142496941Y-72678732D01*
X142438336Y-72638658D01*
X142410568Y-72572069D01*
X142409553Y-72562405D01*
X142396692Y-72440039D01*
X142394232Y-72416635D01*
X142394232Y-72416633D01*
X142393542Y-72410072D01*
X142334527Y-72228444D01*
X142329306Y-72219400D01*
X142277035Y-72128866D01*
X142239040Y-72063056D01*
X142227294Y-72050010D01*
X142115675Y-71926045D01*
X142115674Y-71926044D01*
X142111253Y-71921134D01*
X141999457Y-71839909D01*
X141962094Y-71812763D01*
X141962093Y-71812762D01*
X141956752Y-71808882D01*
X141950724Y-71806198D01*
X141950722Y-71806197D01*
X141788319Y-71733891D01*
X141788318Y-71733891D01*
X141782288Y-71731206D01*
X141688888Y-71711353D01*
X141601944Y-71692872D01*
X141601939Y-71692872D01*
X141595487Y-71691500D01*
X141404513Y-71691500D01*
X141398061Y-71692872D01*
X141398056Y-71692872D01*
X141311112Y-71711353D01*
X141217712Y-71731206D01*
X141211682Y-71733891D01*
X141211681Y-71733891D01*
X141049278Y-71806197D01*
X141049276Y-71806198D01*
X141043248Y-71808882D01*
X141037907Y-71812762D01*
X141037906Y-71812763D01*
X140955526Y-71872616D01*
X140888747Y-71921134D01*
X140884332Y-71926037D01*
X140879420Y-71930460D01*
X140878295Y-71929211D01*
X140824986Y-71962051D01*
X140791800Y-71966500D01*
X137360435Y-71966500D01*
X137292314Y-71946498D01*
X137245821Y-71892842D01*
X137235717Y-71822568D01*
X137265211Y-71757988D01*
X137271262Y-71751482D01*
X137287087Y-71735630D01*
X137349305Y-71673303D01*
X137414274Y-71567904D01*
X137467046Y-71520411D01*
X137521534Y-71508020D01*
X139171713Y-71508020D01*
X139182896Y-71508547D01*
X139190389Y-71510222D01*
X139198315Y-71509973D01*
X139198316Y-71509973D01*
X139258466Y-71508082D01*
X139262425Y-71508020D01*
X139290336Y-71508020D01*
X139294271Y-71507523D01*
X139294336Y-71507515D01*
X139306173Y-71506582D01*
X139338431Y-71505568D01*
X139342450Y-71505442D01*
X139350369Y-71505193D01*
X139369823Y-71499541D01*
X139389180Y-71495533D01*
X139401410Y-71493988D01*
X139401411Y-71493988D01*
X139409277Y-71492994D01*
X139416648Y-71490075D01*
X139416650Y-71490075D01*
X139450392Y-71476716D01*
X139461622Y-71472871D01*
X139496463Y-71462749D01*
X139496464Y-71462749D01*
X139504073Y-71460538D01*
X139510892Y-71456505D01*
X139510897Y-71456503D01*
X139521508Y-71450227D01*
X139539256Y-71441532D01*
X139558097Y-71434072D01*
X139572035Y-71423946D01*
X139593867Y-71408084D01*
X139603787Y-71401568D01*
X139635015Y-71383100D01*
X139635018Y-71383098D01*
X139641842Y-71379062D01*
X139656163Y-71364741D01*
X139671197Y-71351900D01*
X139687587Y-71339992D01*
X139715778Y-71305915D01*
X139723768Y-71297136D01*
X139925499Y-71095405D01*
X139987811Y-71061379D01*
X140014594Y-71058500D01*
X140650400Y-71058500D01*
X140653646Y-71058163D01*
X140653650Y-71058163D01*
X140749308Y-71048238D01*
X140749312Y-71048237D01*
X140756166Y-71047526D01*
X140762702Y-71045345D01*
X140762704Y-71045345D01*
X140916998Y-70993868D01*
X140923946Y-70991550D01*
X141074348Y-70898478D01*
X141199305Y-70773303D01*
X141267443Y-70662763D01*
X141288275Y-70628968D01*
X141288276Y-70628966D01*
X141292115Y-70622738D01*
X141347797Y-70454861D01*
X141358500Y-70350400D01*
X141358500Y-70049116D01*
X141378502Y-69980995D01*
X141432158Y-69934502D01*
X141502432Y-69924398D01*
X141567012Y-69953892D01*
X141592952Y-69984974D01*
X141599773Y-69996507D01*
X141608468Y-70014256D01*
X141615928Y-70033097D01*
X141620590Y-70039513D01*
X141620590Y-70039514D01*
X141641916Y-70068867D01*
X141648432Y-70078787D01*
X141655323Y-70090438D01*
X141670938Y-70116842D01*
X141685259Y-70131163D01*
X141698099Y-70146196D01*
X141710008Y-70162587D01*
X141741078Y-70188290D01*
X141744085Y-70190778D01*
X141752864Y-70198768D01*
X141954595Y-70400499D01*
X141988621Y-70462811D01*
X141991500Y-70489594D01*
X141991500Y-71150400D01*
X141991837Y-71153646D01*
X141991837Y-71153650D01*
X142001537Y-71247134D01*
X142002474Y-71256166D01*
X142004655Y-71262702D01*
X142004655Y-71262704D01*
X142038018Y-71362704D01*
X142058450Y-71423946D01*
X142151522Y-71574348D01*
X142276697Y-71699305D01*
X142282927Y-71703145D01*
X142282928Y-71703146D01*
X142383475Y-71765124D01*
X142427262Y-71792115D01*
X142460520Y-71803146D01*
X142588611Y-71845632D01*
X142588613Y-71845632D01*
X142595139Y-71847797D01*
X142601975Y-71848497D01*
X142601978Y-71848498D01*
X142645031Y-71852909D01*
X142699600Y-71858500D01*
X143360405Y-71858500D01*
X143428526Y-71878502D01*
X143449501Y-71895405D01*
X144079596Y-72525501D01*
X144113621Y-72587813D01*
X144116500Y-72614596D01*
X144116500Y-73515500D01*
X144096498Y-73583621D01*
X144042842Y-73630114D01*
X143990500Y-73641500D01*
X143974600Y-73641500D01*
X143971354Y-73641837D01*
X143971350Y-73641837D01*
X143875692Y-73651762D01*
X143875688Y-73651763D01*
X143868834Y-73652474D01*
X143862298Y-73654655D01*
X143862296Y-73654655D01*
X143730194Y-73698728D01*
X143701054Y-73708450D01*
X143550652Y-73801522D01*
X143425695Y-73926697D01*
X143421855Y-73932927D01*
X143421854Y-73932928D01*
X143337111Y-74070407D01*
X143332885Y-74077262D01*
X143312117Y-74139875D01*
X143281313Y-74232749D01*
X143277203Y-74245139D01*
X143266500Y-74349600D01*
X143266500Y-75365500D01*
X143246498Y-75433621D01*
X143192842Y-75480114D01*
X143140500Y-75491500D01*
X140796878Y-75491500D01*
X140728757Y-75471498D01*
X140693665Y-75437771D01*
X140639357Y-75360211D01*
X140639355Y-75360208D01*
X140636198Y-75355700D01*
X140474300Y-75193802D01*
X140469792Y-75190645D01*
X140469789Y-75190643D01*
X140338775Y-75098906D01*
X140286749Y-75062477D01*
X140281767Y-75060154D01*
X140281762Y-75060151D01*
X140084225Y-74968039D01*
X140084224Y-74968039D01*
X140079243Y-74965716D01*
X140073935Y-74964294D01*
X140073933Y-74964293D01*
X139863402Y-74907881D01*
X139863400Y-74907881D01*
X139858087Y-74906457D01*
X139630000Y-74886502D01*
X139401913Y-74906457D01*
X139396600Y-74907881D01*
X139396598Y-74907881D01*
X139186067Y-74964293D01*
X139186065Y-74964294D01*
X139180757Y-74965716D01*
X139175776Y-74968039D01*
X139175775Y-74968039D01*
X138978238Y-75060151D01*
X138978233Y-75060154D01*
X138973251Y-75062477D01*
X138968744Y-75065633D01*
X138968742Y-75065634D01*
X138831199Y-75161943D01*
X138763925Y-75184631D01*
X138695064Y-75167346D01*
X138675525Y-75153175D01*
X138669067Y-75147472D01*
X138657018Y-75135276D01*
X138643573Y-75119673D01*
X138643570Y-75119671D01*
X138637713Y-75112873D01*
X138616165Y-75098906D01*
X138601291Y-75087615D01*
X138588783Y-75076569D01*
X138588782Y-75076568D01*
X138582049Y-75070622D01*
X138555287Y-75058057D01*
X138540309Y-75049737D01*
X138523017Y-75038529D01*
X138523012Y-75038527D01*
X138515485Y-75033648D01*
X138506892Y-75031078D01*
X138506887Y-75031076D01*
X138490880Y-75026289D01*
X138473436Y-75019628D01*
X138458324Y-75012533D01*
X138458322Y-75012532D01*
X138450200Y-75008719D01*
X138441333Y-75007338D01*
X138441332Y-75007338D01*
X138431690Y-75005837D01*
X138420983Y-75004170D01*
X138404268Y-75000387D01*
X138384534Y-74994485D01*
X138384528Y-74994484D01*
X138375934Y-74991914D01*
X138366963Y-74991859D01*
X138366962Y-74991859D01*
X138356903Y-74991798D01*
X138341494Y-74991704D01*
X138340711Y-74991671D01*
X138339614Y-74991500D01*
X138308623Y-74991500D01*
X138307853Y-74991498D01*
X138234215Y-74991048D01*
X138234214Y-74991048D01*
X138230279Y-74991024D01*
X138228935Y-74991408D01*
X138227590Y-74991500D01*
X125708623Y-74991500D01*
X125707853Y-74991498D01*
X125707037Y-74991493D01*
X125630279Y-74991024D01*
X125607918Y-74997415D01*
X125601847Y-74999150D01*
X125585088Y-75002728D01*
X125571931Y-75004612D01*
X125501664Y-74994470D01*
X125478503Y-74980711D01*
X125458495Y-74965716D01*
X125436705Y-74949385D01*
X125300316Y-74898255D01*
X125238134Y-74891500D01*
X123541866Y-74891500D01*
X123479684Y-74898255D01*
X123343295Y-74949385D01*
X123226739Y-75036739D01*
X123139385Y-75153295D01*
X123088255Y-75289684D01*
X123081500Y-75351866D01*
X123081500Y-75881406D01*
X123061498Y-75949527D01*
X123007842Y-75996020D01*
X122937568Y-76006124D01*
X122872988Y-75976630D01*
X122866405Y-75970501D01*
X121707328Y-74811424D01*
X121673302Y-74749112D01*
X121678367Y-74678297D01*
X121681541Y-74670579D01*
X121702276Y-74624548D01*
X121702278Y-74624542D01*
X121704199Y-74620278D01*
X121741209Y-74489051D01*
X121775893Y-74366072D01*
X121775894Y-74366069D01*
X121777163Y-74361568D01*
X121795193Y-74219843D01*
X121810688Y-74098045D01*
X121810688Y-74098041D01*
X121811086Y-74094915D01*
X121811367Y-74084209D01*
X121813488Y-74003160D01*
X121813571Y-74000000D01*
X121793650Y-73731937D01*
X121787811Y-73706132D01*
X121735361Y-73474331D01*
X121735360Y-73474326D01*
X121734327Y-73469763D01*
X121636902Y-73219238D01*
X121503518Y-72985864D01*
X121337105Y-72774769D01*
X121141317Y-72590591D01*
X120946872Y-72455699D01*
X120924299Y-72440039D01*
X120924296Y-72440037D01*
X120920457Y-72437374D01*
X120916264Y-72435306D01*
X120683564Y-72320551D01*
X120683561Y-72320550D01*
X120679376Y-72318486D01*
X120671951Y-72316109D01*
X120459777Y-72248192D01*
X120423370Y-72236538D01*
X120418763Y-72235788D01*
X120418760Y-72235787D01*
X120162674Y-72194081D01*
X120162675Y-72194081D01*
X120158063Y-72193330D01*
X120027719Y-72191624D01*
X119893961Y-72189873D01*
X119893958Y-72189873D01*
X119889284Y-72189812D01*
X119622937Y-72226060D01*
X119618451Y-72227368D01*
X119618449Y-72227368D01*
X119550466Y-72247183D01*
X119364874Y-72301278D01*
X119120763Y-72413815D01*
X119116854Y-72416378D01*
X118899881Y-72558631D01*
X118899876Y-72558635D01*
X118895968Y-72561197D01*
X118800974Y-72645983D01*
X118731919Y-72707617D01*
X118695426Y-72740188D01*
X118523544Y-72946854D01*
X118384096Y-73176656D01*
X118382287Y-73180970D01*
X118382285Y-73180974D01*
X118336892Y-73289225D01*
X118292103Y-73344312D01*
X118220695Y-73366500D01*
X116780363Y-73366500D01*
X116712242Y-73346498D01*
X116665749Y-73292842D01*
X116662930Y-73286168D01*
X116638595Y-73223592D01*
X116636902Y-73219238D01*
X116503518Y-72985864D01*
X116337105Y-72774769D01*
X116141317Y-72590591D01*
X115946872Y-72455699D01*
X115924299Y-72440039D01*
X115924296Y-72440037D01*
X115920457Y-72437374D01*
X115916264Y-72435306D01*
X115683564Y-72320551D01*
X115683561Y-72320550D01*
X115679376Y-72318486D01*
X115671951Y-72316109D01*
X115459777Y-72248192D01*
X115423370Y-72236538D01*
X115418763Y-72235788D01*
X115418760Y-72235787D01*
X115162674Y-72194081D01*
X115162675Y-72194081D01*
X115158063Y-72193330D01*
X115027719Y-72191624D01*
X114893961Y-72189873D01*
X114893958Y-72189873D01*
X114889284Y-72189812D01*
X114622937Y-72226060D01*
X114618451Y-72227368D01*
X114618449Y-72227368D01*
X114550466Y-72247183D01*
X114364874Y-72301278D01*
X114120763Y-72413815D01*
X114116854Y-72416378D01*
X113899881Y-72558631D01*
X113899876Y-72558635D01*
X113895968Y-72561197D01*
X113800974Y-72645983D01*
X113731919Y-72707617D01*
X113695426Y-72740188D01*
X113523544Y-72946854D01*
X113384096Y-73176656D01*
X113382287Y-73180970D01*
X113382285Y-73180974D01*
X113281957Y-73420231D01*
X113280148Y-73424545D01*
X113213981Y-73685077D01*
X113187050Y-73952526D01*
X113187274Y-73957192D01*
X113187274Y-73957197D01*
X113191075Y-74036317D01*
X113199947Y-74221019D01*
X113252388Y-74484656D01*
X113343220Y-74737646D01*
X113345432Y-74741762D01*
X113345433Y-74741765D01*
X113409555Y-74861100D01*
X113470450Y-74974431D01*
X113473241Y-74978168D01*
X113473245Y-74978175D01*
X113530170Y-75054406D01*
X113631281Y-75189810D01*
X113634590Y-75193090D01*
X113634595Y-75193096D01*
X113798625Y-75355700D01*
X113822180Y-75379050D01*
X113825942Y-75381808D01*
X113825945Y-75381811D01*
X113975543Y-75491500D01*
X114038954Y-75537995D01*
X114043089Y-75540171D01*
X114043093Y-75540173D01*
X114244464Y-75646120D01*
X114276840Y-75663154D01*
X114530613Y-75751775D01*
X114535206Y-75752647D01*
X114790109Y-75801042D01*
X114790112Y-75801042D01*
X114794698Y-75801913D01*
X114922370Y-75806929D01*
X115058625Y-75812283D01*
X115058630Y-75812283D01*
X115063293Y-75812466D01*
X115167607Y-75801042D01*
X115325844Y-75783713D01*
X115325850Y-75783712D01*
X115330497Y-75783203D01*
X115335021Y-75782012D01*
X115585918Y-75715956D01*
X115585920Y-75715955D01*
X115590441Y-75714765D01*
X115594738Y-75712919D01*
X115833120Y-75610502D01*
X115833122Y-75610501D01*
X115837414Y-75608657D01*
X115956071Y-75535230D01*
X116062017Y-75469669D01*
X116062021Y-75469666D01*
X116065990Y-75467210D01*
X116271149Y-75293530D01*
X116448382Y-75091434D01*
X116457944Y-75076569D01*
X116572639Y-74898255D01*
X116593797Y-74865361D01*
X116664796Y-74707749D01*
X116711012Y-74653855D01*
X116779678Y-74633500D01*
X118217192Y-74633500D01*
X118285313Y-74653502D01*
X118331806Y-74707158D01*
X118335773Y-74716905D01*
X118343220Y-74737646D01*
X118345432Y-74741762D01*
X118345433Y-74741765D01*
X118409555Y-74861100D01*
X118470450Y-74974431D01*
X118473241Y-74978168D01*
X118473245Y-74978175D01*
X118530170Y-75054406D01*
X118631281Y-75189810D01*
X118634590Y-75193090D01*
X118634595Y-75193096D01*
X118798625Y-75355700D01*
X118822180Y-75379050D01*
X118825942Y-75381808D01*
X118825945Y-75381811D01*
X118975543Y-75491500D01*
X119038954Y-75537995D01*
X119043089Y-75540171D01*
X119043093Y-75540173D01*
X119244464Y-75646120D01*
X119276840Y-75663154D01*
X119530613Y-75751775D01*
X119535206Y-75752647D01*
X119790109Y-75801042D01*
X119790112Y-75801042D01*
X119794698Y-75801913D01*
X119922370Y-75806929D01*
X120058625Y-75812283D01*
X120058630Y-75812283D01*
X120063293Y-75812466D01*
X120167607Y-75801042D01*
X120325844Y-75783713D01*
X120325850Y-75783712D01*
X120330497Y-75783203D01*
X120335021Y-75782012D01*
X120585918Y-75715956D01*
X120585920Y-75715955D01*
X120590441Y-75714765D01*
X120594738Y-75712919D01*
X120594744Y-75712917D01*
X120671761Y-75679827D01*
X120742246Y-75671314D01*
X120810595Y-75706499D01*
X122595084Y-77490989D01*
X122629110Y-77553301D01*
X122631989Y-77580084D01*
X122631989Y-80831894D01*
X122611987Y-80900015D01*
X122558331Y-80946508D01*
X122488057Y-80956612D01*
X122423477Y-80927118D01*
X122416894Y-80920989D01*
X122103652Y-80607747D01*
X122096112Y-80599461D01*
X122092000Y-80592982D01*
X122042348Y-80546356D01*
X122039507Y-80543602D01*
X122019770Y-80523865D01*
X122016573Y-80521385D01*
X122007551Y-80513680D01*
X121981100Y-80488841D01*
X121975321Y-80483414D01*
X121968375Y-80479595D01*
X121968372Y-80479593D01*
X121957566Y-80473652D01*
X121941047Y-80462801D01*
X121940583Y-80462441D01*
X121925041Y-80450386D01*
X121917772Y-80447241D01*
X121917768Y-80447238D01*
X121884463Y-80432826D01*
X121873813Y-80427609D01*
X121835060Y-80406305D01*
X121815437Y-80401267D01*
X121796734Y-80394863D01*
X121785420Y-80389967D01*
X121785419Y-80389967D01*
X121778145Y-80386819D01*
X121770317Y-80385579D01*
X121768569Y-80385302D01*
X121767310Y-80384705D01*
X121762701Y-80383366D01*
X121762917Y-80382623D01*
X121704416Y-80354891D01*
X121670845Y-80306521D01*
X121658121Y-80273802D01*
X121636902Y-80219238D01*
X121503518Y-79985864D01*
X121488255Y-79966502D01*
X121418109Y-79877523D01*
X121337105Y-79774769D01*
X121141317Y-79590591D01*
X120920457Y-79437374D01*
X120916264Y-79435306D01*
X120683564Y-79320551D01*
X120683561Y-79320550D01*
X120679376Y-79318486D01*
X120631745Y-79303239D01*
X120474113Y-79252781D01*
X120423370Y-79236538D01*
X120418763Y-79235788D01*
X120418760Y-79235787D01*
X120162674Y-79194081D01*
X120162675Y-79194081D01*
X120158063Y-79193330D01*
X120027719Y-79191624D01*
X119893961Y-79189873D01*
X119893958Y-79189873D01*
X119889284Y-79189812D01*
X119622937Y-79226060D01*
X119364874Y-79301278D01*
X119120763Y-79413815D01*
X119116854Y-79416378D01*
X118899881Y-79558631D01*
X118899876Y-79558635D01*
X118895968Y-79561197D01*
X118892476Y-79564314D01*
X118706171Y-79730598D01*
X118695426Y-79740188D01*
X118523544Y-79946854D01*
X118384096Y-80176656D01*
X118382287Y-80180970D01*
X118382285Y-80180974D01*
X118336892Y-80289225D01*
X118292103Y-80344312D01*
X118220695Y-80366500D01*
X116780363Y-80366500D01*
X116712242Y-80346498D01*
X116665749Y-80292842D01*
X116662930Y-80286168D01*
X116656893Y-80270643D01*
X116636902Y-80219238D01*
X116503518Y-79985864D01*
X116488255Y-79966502D01*
X116418109Y-79877523D01*
X116337105Y-79774769D01*
X116141317Y-79590591D01*
X115920457Y-79437374D01*
X115916264Y-79435306D01*
X115683564Y-79320551D01*
X115683561Y-79320550D01*
X115679376Y-79318486D01*
X115631745Y-79303239D01*
X115474113Y-79252781D01*
X115423370Y-79236538D01*
X115418763Y-79235788D01*
X115418760Y-79235787D01*
X115162674Y-79194081D01*
X115162675Y-79194081D01*
X115158063Y-79193330D01*
X115027719Y-79191624D01*
X114893961Y-79189873D01*
X114893958Y-79189873D01*
X114889284Y-79189812D01*
X114622937Y-79226060D01*
X114364874Y-79301278D01*
X114120763Y-79413815D01*
X114116854Y-79416378D01*
X113899881Y-79558631D01*
X113899876Y-79558635D01*
X113895968Y-79561197D01*
X113892476Y-79564314D01*
X113706171Y-79730598D01*
X113695426Y-79740188D01*
X113523544Y-79946854D01*
X113384096Y-80176656D01*
X113382287Y-80180970D01*
X113382285Y-80180974D01*
X113290943Y-80398801D01*
X113280148Y-80424545D01*
X113213981Y-80685077D01*
X113187050Y-80952526D01*
X113187274Y-80957192D01*
X113187274Y-80957197D01*
X113193930Y-81095757D01*
X113199947Y-81221019D01*
X113252388Y-81484656D01*
X113343220Y-81737646D01*
X113345432Y-81741762D01*
X113345433Y-81741765D01*
X113366806Y-81781542D01*
X113470450Y-81974431D01*
X113473241Y-81978168D01*
X113473245Y-81978175D01*
X113554887Y-82087506D01*
X113631281Y-82189810D01*
X113634590Y-82193090D01*
X113634595Y-82193096D01*
X113780579Y-82337811D01*
X113822180Y-82379050D01*
X113825942Y-82381808D01*
X113825945Y-82381811D01*
X113980053Y-82494807D01*
X114038954Y-82537995D01*
X114043089Y-82540171D01*
X114043093Y-82540173D01*
X114272417Y-82660827D01*
X114276840Y-82663154D01*
X114530613Y-82751775D01*
X114535206Y-82752647D01*
X114790109Y-82801042D01*
X114790112Y-82801042D01*
X114794698Y-82801913D01*
X114922370Y-82806929D01*
X115058625Y-82812283D01*
X115058630Y-82812283D01*
X115063293Y-82812466D01*
X115167607Y-82801042D01*
X115325844Y-82783713D01*
X115325850Y-82783712D01*
X115330497Y-82783203D01*
X115335021Y-82782012D01*
X115585918Y-82715956D01*
X115585920Y-82715955D01*
X115590441Y-82714765D01*
X115594738Y-82712919D01*
X115833120Y-82610502D01*
X115833122Y-82610501D01*
X115837414Y-82608657D01*
X116027347Y-82491123D01*
X116062017Y-82469669D01*
X116062021Y-82469666D01*
X116065990Y-82467210D01*
X116271149Y-82293530D01*
X116448382Y-82091434D01*
X116450913Y-82087500D01*
X116580794Y-81885577D01*
X116593797Y-81865361D01*
X116664796Y-81707749D01*
X116711012Y-81653855D01*
X116779678Y-81633500D01*
X118217192Y-81633500D01*
X118285313Y-81653502D01*
X118331806Y-81707158D01*
X118335773Y-81716905D01*
X118343220Y-81737646D01*
X118345432Y-81741762D01*
X118345433Y-81741765D01*
X118366806Y-81781542D01*
X118470450Y-81974431D01*
X118473241Y-81978168D01*
X118473245Y-81978175D01*
X118554887Y-82087506D01*
X118631281Y-82189810D01*
X118634590Y-82193090D01*
X118634595Y-82193096D01*
X118780579Y-82337811D01*
X118822180Y-82379050D01*
X118825942Y-82381808D01*
X118825945Y-82381811D01*
X118980053Y-82494807D01*
X119038954Y-82537995D01*
X119043089Y-82540171D01*
X119043093Y-82540173D01*
X119272417Y-82660827D01*
X119276840Y-82663154D01*
X119530613Y-82751775D01*
X119535206Y-82752647D01*
X119790109Y-82801042D01*
X119790112Y-82801042D01*
X119794698Y-82801913D01*
X119922370Y-82806929D01*
X120058625Y-82812283D01*
X120058630Y-82812283D01*
X120063293Y-82812466D01*
X120167607Y-82801042D01*
X120325844Y-82783713D01*
X120325850Y-82783712D01*
X120330497Y-82783203D01*
X120335021Y-82782012D01*
X120585918Y-82715956D01*
X120585920Y-82715955D01*
X120590441Y-82714765D01*
X120594738Y-82712919D01*
X120833120Y-82610502D01*
X120833122Y-82610501D01*
X120837414Y-82608657D01*
X121027347Y-82491123D01*
X121062017Y-82469669D01*
X121062021Y-82469666D01*
X121065990Y-82467210D01*
X121271149Y-82293530D01*
X121448382Y-82091434D01*
X121450909Y-82087505D01*
X121450913Y-82087500D01*
X121499719Y-82011622D01*
X121553393Y-81965150D01*
X121623671Y-81955074D01*
X121688240Y-81984592D01*
X121694785Y-81990689D01*
X121979595Y-82275499D01*
X122013621Y-82337811D01*
X122016500Y-82364594D01*
X122016500Y-87081233D01*
X122015973Y-87092416D01*
X122014298Y-87099909D01*
X122014547Y-87107835D01*
X122014547Y-87107836D01*
X122016438Y-87167986D01*
X122016500Y-87171945D01*
X122016500Y-87199856D01*
X122016997Y-87203790D01*
X122016997Y-87203791D01*
X122017005Y-87203856D01*
X122017938Y-87215699D01*
X122018593Y-87236542D01*
X122000740Y-87305258D01*
X121948571Y-87353413D01*
X121892655Y-87366500D01*
X121780363Y-87366500D01*
X121712242Y-87346498D01*
X121665749Y-87292842D01*
X121662930Y-87286168D01*
X121636902Y-87219238D01*
X121503518Y-86985864D01*
X121337105Y-86774769D01*
X121141317Y-86590591D01*
X120984751Y-86481976D01*
X120924299Y-86440039D01*
X120924296Y-86440037D01*
X120920457Y-86437374D01*
X120916264Y-86435306D01*
X120683564Y-86320551D01*
X120683561Y-86320550D01*
X120679376Y-86318486D01*
X120631745Y-86303239D01*
X120577621Y-86285914D01*
X120423370Y-86236538D01*
X120418763Y-86235788D01*
X120418760Y-86235787D01*
X120162674Y-86194081D01*
X120162675Y-86194081D01*
X120158063Y-86193330D01*
X120027719Y-86191624D01*
X119893961Y-86189873D01*
X119893958Y-86189873D01*
X119889284Y-86189812D01*
X119622937Y-86226060D01*
X119364874Y-86301278D01*
X119120763Y-86413815D01*
X119116854Y-86416378D01*
X118899881Y-86558631D01*
X118899876Y-86558635D01*
X118895968Y-86561197D01*
X118859443Y-86593797D01*
X118706432Y-86730365D01*
X118695426Y-86740188D01*
X118523544Y-86946854D01*
X118384096Y-87176656D01*
X118382287Y-87180970D01*
X118382285Y-87180974D01*
X118336892Y-87289225D01*
X118292103Y-87344312D01*
X118220695Y-87366500D01*
X116780363Y-87366500D01*
X116712242Y-87346498D01*
X116665749Y-87292842D01*
X116662930Y-87286168D01*
X116636902Y-87219238D01*
X116503518Y-86985864D01*
X116337105Y-86774769D01*
X116141317Y-86590591D01*
X115984751Y-86481976D01*
X115924299Y-86440039D01*
X115924296Y-86440037D01*
X115920457Y-86437374D01*
X115916264Y-86435306D01*
X115683564Y-86320551D01*
X115683561Y-86320550D01*
X115679376Y-86318486D01*
X115631745Y-86303239D01*
X115577621Y-86285914D01*
X115423370Y-86236538D01*
X115418763Y-86235788D01*
X115418760Y-86235787D01*
X115162674Y-86194081D01*
X115162675Y-86194081D01*
X115158063Y-86193330D01*
X115027719Y-86191624D01*
X114893961Y-86189873D01*
X114893958Y-86189873D01*
X114889284Y-86189812D01*
X114622937Y-86226060D01*
X114364874Y-86301278D01*
X114120763Y-86413815D01*
X114116854Y-86416378D01*
X113899881Y-86558631D01*
X113899876Y-86558635D01*
X113895968Y-86561197D01*
X113859443Y-86593797D01*
X113706432Y-86730365D01*
X113695426Y-86740188D01*
X113523544Y-86946854D01*
X113384096Y-87176656D01*
X113382287Y-87180970D01*
X113382285Y-87180974D01*
X113318898Y-87332136D01*
X113280148Y-87424545D01*
X113278997Y-87429077D01*
X113275711Y-87442017D01*
X113213981Y-87685077D01*
X113187050Y-87952526D01*
X113199947Y-88221019D01*
X113252388Y-88484656D01*
X113343220Y-88737646D01*
X113470450Y-88974431D01*
X113473241Y-88978168D01*
X113473245Y-88978175D01*
X113480441Y-88987811D01*
X113631281Y-89189810D01*
X113634590Y-89193090D01*
X113634595Y-89193096D01*
X113797137Y-89354225D01*
X113822180Y-89379050D01*
X113825942Y-89381808D01*
X113825945Y-89381811D01*
X113885737Y-89425652D01*
X114038954Y-89537995D01*
X114043089Y-89540171D01*
X114043093Y-89540173D01*
X114272698Y-89660975D01*
X114276840Y-89663154D01*
X114419346Y-89712919D01*
X114509208Y-89744300D01*
X114530613Y-89751775D01*
X114535206Y-89752647D01*
X114790109Y-89801042D01*
X114790112Y-89801042D01*
X114794698Y-89801913D01*
X114922370Y-89806929D01*
X115058625Y-89812283D01*
X115058630Y-89812283D01*
X115063293Y-89812466D01*
X115167607Y-89801042D01*
X115325844Y-89783713D01*
X115325850Y-89783712D01*
X115330497Y-89783203D01*
X115335021Y-89782012D01*
X115585918Y-89715956D01*
X115585920Y-89715955D01*
X115590441Y-89714765D01*
X115594738Y-89712919D01*
X115833120Y-89610502D01*
X115833122Y-89610501D01*
X115837414Y-89608657D01*
X115956071Y-89535230D01*
X116062017Y-89469669D01*
X116062021Y-89469666D01*
X116065990Y-89467210D01*
X116271149Y-89293530D01*
X116448382Y-89091434D01*
X116593797Y-88865361D01*
X116664796Y-88707749D01*
X116711012Y-88653855D01*
X116779678Y-88633500D01*
X118217192Y-88633500D01*
X118285313Y-88653502D01*
X118331806Y-88707158D01*
X118335773Y-88716905D01*
X118343220Y-88737646D01*
X118470450Y-88974431D01*
X118473241Y-88978168D01*
X118473245Y-88978175D01*
X118480441Y-88987811D01*
X118631281Y-89189810D01*
X118634590Y-89193090D01*
X118634595Y-89193096D01*
X118797137Y-89354225D01*
X118822180Y-89379050D01*
X118825942Y-89381808D01*
X118825945Y-89381811D01*
X118885737Y-89425652D01*
X119038954Y-89537995D01*
X119043089Y-89540171D01*
X119043093Y-89540173D01*
X119272698Y-89660975D01*
X119276840Y-89663154D01*
X119419346Y-89712919D01*
X119509208Y-89744300D01*
X119530613Y-89751775D01*
X119535206Y-89752647D01*
X119790109Y-89801042D01*
X119790112Y-89801042D01*
X119794698Y-89801913D01*
X119922370Y-89806929D01*
X120058625Y-89812283D01*
X120058630Y-89812283D01*
X120063293Y-89812466D01*
X120167607Y-89801042D01*
X120325844Y-89783713D01*
X120325850Y-89783712D01*
X120330497Y-89783203D01*
X120335021Y-89782012D01*
X120585918Y-89715956D01*
X120585920Y-89715955D01*
X120590441Y-89714765D01*
X120594738Y-89712919D01*
X120833120Y-89610502D01*
X120833122Y-89610501D01*
X120837414Y-89608657D01*
X120956071Y-89535230D01*
X121062017Y-89469669D01*
X121062021Y-89469666D01*
X121065990Y-89467210D01*
X121271149Y-89293530D01*
X121448382Y-89091434D01*
X121593797Y-88865361D01*
X121664796Y-88707749D01*
X121711012Y-88653855D01*
X121779678Y-88633500D01*
X121785406Y-88633500D01*
X121853527Y-88653502D01*
X121874501Y-88670405D01*
X122129595Y-88925499D01*
X122163621Y-88987811D01*
X122166500Y-89014594D01*
X122166500Y-89771233D01*
X122165973Y-89782416D01*
X122164298Y-89789909D01*
X122164547Y-89797835D01*
X122164547Y-89797836D01*
X122166438Y-89857986D01*
X122166500Y-89861945D01*
X122166500Y-89889856D01*
X122166997Y-89893790D01*
X122166997Y-89893791D01*
X122167005Y-89893856D01*
X122167938Y-89905693D01*
X122169327Y-89949889D01*
X122174978Y-89969339D01*
X122178987Y-89988700D01*
X122181526Y-90008797D01*
X122184445Y-90016168D01*
X122184445Y-90016170D01*
X122197804Y-90049912D01*
X122201649Y-90061142D01*
X122213982Y-90103593D01*
X122218015Y-90110412D01*
X122218017Y-90110417D01*
X122224293Y-90121028D01*
X122232988Y-90138776D01*
X122240448Y-90157617D01*
X122245110Y-90164033D01*
X122245110Y-90164034D01*
X122266436Y-90193387D01*
X122272952Y-90203307D01*
X122295458Y-90241362D01*
X122309779Y-90255683D01*
X122322619Y-90270716D01*
X122334528Y-90287107D01*
X122353107Y-90302477D01*
X122368605Y-90315298D01*
X122377384Y-90323288D01*
X123080848Y-91026752D01*
X123114874Y-91089064D01*
X123113459Y-91148459D01*
X123097882Y-91206591D01*
X123097880Y-91206602D01*
X123096457Y-91211913D01*
X123076502Y-91440000D01*
X123096457Y-91668087D01*
X123155716Y-91889243D01*
X123158039Y-91894224D01*
X123158039Y-91894225D01*
X123250151Y-92091762D01*
X123250154Y-92091767D01*
X123252477Y-92096749D01*
X123383802Y-92284300D01*
X123545700Y-92446198D01*
X123550208Y-92449355D01*
X123550211Y-92449357D01*
X123568500Y-92462163D01*
X123733251Y-92577523D01*
X123738233Y-92579846D01*
X123738238Y-92579849D01*
X123772457Y-92595805D01*
X123825742Y-92642722D01*
X123845203Y-92710999D01*
X123824661Y-92778959D01*
X123772457Y-92824195D01*
X123738238Y-92840151D01*
X123738233Y-92840154D01*
X123733251Y-92842477D01*
X123628389Y-92915902D01*
X123550211Y-92970643D01*
X123550208Y-92970645D01*
X123545700Y-92973802D01*
X123383802Y-93135700D01*
X123380645Y-93140208D01*
X123380643Y-93140211D01*
X123345470Y-93190443D01*
X123252477Y-93323251D01*
X123250154Y-93328233D01*
X123250151Y-93328238D01*
X123209051Y-93416378D01*
X123155716Y-93530757D01*
X123154294Y-93536065D01*
X123154293Y-93536067D01*
X123146724Y-93564314D01*
X123096457Y-93751913D01*
X123076502Y-93980000D01*
X123096457Y-94208087D01*
X123097881Y-94213400D01*
X123098801Y-94218620D01*
X123090932Y-94289179D01*
X123046165Y-94344283D01*
X122974715Y-94366500D01*
X121780363Y-94366500D01*
X121712242Y-94346498D01*
X121665749Y-94292842D01*
X121662930Y-94286168D01*
X121638595Y-94223592D01*
X121636902Y-94219238D01*
X121503518Y-93985864D01*
X121498896Y-93980000D01*
X121437416Y-93902014D01*
X121337105Y-93774769D01*
X121141317Y-93590591D01*
X120920457Y-93437374D01*
X120916264Y-93435306D01*
X120683564Y-93320551D01*
X120683561Y-93320550D01*
X120679376Y-93318486D01*
X120631745Y-93303239D01*
X120577621Y-93285914D01*
X120423370Y-93236538D01*
X120418763Y-93235788D01*
X120418760Y-93235787D01*
X120162674Y-93194081D01*
X120162675Y-93194081D01*
X120158063Y-93193330D01*
X120027719Y-93191624D01*
X119893961Y-93189873D01*
X119893958Y-93189873D01*
X119889284Y-93189812D01*
X119622937Y-93226060D01*
X119364874Y-93301278D01*
X119360621Y-93303238D01*
X119360620Y-93303239D01*
X119323068Y-93320551D01*
X119120763Y-93413815D01*
X119116854Y-93416378D01*
X118899881Y-93558631D01*
X118899876Y-93558635D01*
X118895968Y-93561197D01*
X118695426Y-93740188D01*
X118523544Y-93946854D01*
X118384096Y-94176656D01*
X118382287Y-94180970D01*
X118382285Y-94180974D01*
X118336892Y-94289225D01*
X118292103Y-94344312D01*
X118220695Y-94366500D01*
X116780363Y-94366500D01*
X116712242Y-94346498D01*
X116665749Y-94292842D01*
X116662930Y-94286168D01*
X116638595Y-94223592D01*
X116636902Y-94219238D01*
X116503518Y-93985864D01*
X116498896Y-93980000D01*
X116437416Y-93902014D01*
X116337105Y-93774769D01*
X116141317Y-93590591D01*
X115920457Y-93437374D01*
X115916264Y-93435306D01*
X115683564Y-93320551D01*
X115683561Y-93320550D01*
X115679376Y-93318486D01*
X115631745Y-93303239D01*
X115577621Y-93285914D01*
X115423370Y-93236538D01*
X115418763Y-93235788D01*
X115418760Y-93235787D01*
X115162674Y-93194081D01*
X115162675Y-93194081D01*
X115158063Y-93193330D01*
X115027719Y-93191624D01*
X114893961Y-93189873D01*
X114893958Y-93189873D01*
X114889284Y-93189812D01*
X114622937Y-93226060D01*
X114364874Y-93301278D01*
X114360621Y-93303238D01*
X114360620Y-93303239D01*
X114323068Y-93320551D01*
X114120763Y-93413815D01*
X114116854Y-93416378D01*
X113899881Y-93558631D01*
X113899876Y-93558635D01*
X113895968Y-93561197D01*
X113695426Y-93740188D01*
X113523544Y-93946854D01*
X113384096Y-94176656D01*
X113280148Y-94424545D01*
X113213981Y-94685077D01*
X113187050Y-94952526D01*
X113199947Y-95221019D01*
X113252388Y-95484656D01*
X113343220Y-95737646D01*
X113470450Y-95974431D01*
X113473241Y-95978168D01*
X113473245Y-95978175D01*
X113542380Y-96070757D01*
X113631281Y-96189810D01*
X113634590Y-96193090D01*
X113634595Y-96193096D01*
X113739807Y-96297393D01*
X113822180Y-96379050D01*
X113825942Y-96381808D01*
X113825945Y-96381811D01*
X113938299Y-96464192D01*
X114038954Y-96537995D01*
X114043089Y-96540171D01*
X114043093Y-96540173D01*
X114241246Y-96644427D01*
X114276840Y-96663154D01*
X114301218Y-96671667D01*
X114504360Y-96742607D01*
X114530613Y-96751775D01*
X114535206Y-96752647D01*
X114790109Y-96801042D01*
X114790112Y-96801042D01*
X114794698Y-96801913D01*
X114922370Y-96806929D01*
X115058625Y-96812283D01*
X115058630Y-96812283D01*
X115063293Y-96812466D01*
X115167607Y-96801042D01*
X115325844Y-96783713D01*
X115325850Y-96783712D01*
X115330497Y-96783203D01*
X115443662Y-96753409D01*
X115585918Y-96715956D01*
X115585920Y-96715955D01*
X115590441Y-96714765D01*
X115641957Y-96692632D01*
X115833120Y-96610502D01*
X115833122Y-96610501D01*
X115837414Y-96608657D01*
X115989530Y-96514525D01*
X116062017Y-96469669D01*
X116062021Y-96469666D01*
X116065990Y-96467210D01*
X116271149Y-96293530D01*
X116448382Y-96091434D01*
X116458267Y-96076067D01*
X116591269Y-95869291D01*
X116593797Y-95865361D01*
X116664796Y-95707749D01*
X116711012Y-95653855D01*
X116779678Y-95633500D01*
X118217192Y-95633500D01*
X118285313Y-95653502D01*
X118331806Y-95707158D01*
X118335773Y-95716905D01*
X118343220Y-95737646D01*
X118470450Y-95974431D01*
X118473241Y-95978168D01*
X118473245Y-95978175D01*
X118542380Y-96070757D01*
X118631281Y-96189810D01*
X118634590Y-96193090D01*
X118634595Y-96193096D01*
X118739807Y-96297393D01*
X118822180Y-96379050D01*
X118825942Y-96381808D01*
X118825945Y-96381811D01*
X118938299Y-96464192D01*
X119038954Y-96537995D01*
X119043089Y-96540171D01*
X119043093Y-96540173D01*
X119241246Y-96644427D01*
X119276840Y-96663154D01*
X119301218Y-96671667D01*
X119504360Y-96742607D01*
X119530613Y-96751775D01*
X119535206Y-96752647D01*
X119790109Y-96801042D01*
X119790112Y-96801042D01*
X119794698Y-96801913D01*
X119922370Y-96806929D01*
X120058625Y-96812283D01*
X120058630Y-96812283D01*
X120063293Y-96812466D01*
X120167607Y-96801042D01*
X120325844Y-96783713D01*
X120325850Y-96783712D01*
X120330497Y-96783203D01*
X120443662Y-96753409D01*
X120585918Y-96715956D01*
X120585920Y-96715955D01*
X120590441Y-96714765D01*
X120641957Y-96692632D01*
X120833120Y-96610502D01*
X120833122Y-96610501D01*
X120837414Y-96608657D01*
X120989530Y-96514525D01*
X121062017Y-96469669D01*
X121062021Y-96469666D01*
X121065990Y-96467210D01*
X121271149Y-96293530D01*
X121448382Y-96091434D01*
X121458267Y-96076067D01*
X121591269Y-95869291D01*
X121593797Y-95865361D01*
X121664796Y-95707749D01*
X121711012Y-95653855D01*
X121779678Y-95633500D01*
X123171307Y-95633500D01*
X123239428Y-95653502D01*
X123285921Y-95707158D01*
X123296025Y-95777432D01*
X123274519Y-95831772D01*
X123252477Y-95863251D01*
X123250154Y-95868233D01*
X123250151Y-95868238D01*
X123236855Y-95896752D01*
X123155716Y-96070757D01*
X123154294Y-96076065D01*
X123154293Y-96076067D01*
X123122935Y-96193096D01*
X123096457Y-96291913D01*
X123076502Y-96520000D01*
X123096457Y-96748087D01*
X123097880Y-96753398D01*
X123097882Y-96753409D01*
X123113459Y-96811541D01*
X123111770Y-96882517D01*
X123080848Y-96933248D01*
X119844071Y-100170024D01*
X119781759Y-100204050D01*
X119771967Y-100205778D01*
X119722458Y-100212516D01*
X119622937Y-100226060D01*
X119364874Y-100301278D01*
X119120763Y-100413815D01*
X119116854Y-100416378D01*
X118899881Y-100558631D01*
X118899876Y-100558635D01*
X118895968Y-100561197D01*
X118695426Y-100740188D01*
X118651692Y-100792773D01*
X118526541Y-100943251D01*
X118523544Y-100946854D01*
X118384096Y-101176656D01*
X118382287Y-101180970D01*
X118382285Y-101180974D01*
X118336892Y-101289225D01*
X118292103Y-101344312D01*
X118220695Y-101366500D01*
X116780363Y-101366500D01*
X116712242Y-101346498D01*
X116665749Y-101292842D01*
X116662930Y-101286168D01*
X116638595Y-101223592D01*
X116636902Y-101219238D01*
X116503518Y-100985864D01*
X116337105Y-100774769D01*
X116141317Y-100590591D01*
X115984751Y-100481976D01*
X115924299Y-100440039D01*
X115924296Y-100440037D01*
X115920457Y-100437374D01*
X115906496Y-100430489D01*
X115683564Y-100320551D01*
X115683561Y-100320550D01*
X115679376Y-100318486D01*
X115631745Y-100303239D01*
X115577621Y-100285914D01*
X115423370Y-100236538D01*
X115418763Y-100235788D01*
X115418760Y-100235787D01*
X115162674Y-100194081D01*
X115162675Y-100194081D01*
X115158063Y-100193330D01*
X115027719Y-100191624D01*
X114893961Y-100189873D01*
X114893958Y-100189873D01*
X114889284Y-100189812D01*
X114622937Y-100226060D01*
X114364874Y-100301278D01*
X114120763Y-100413815D01*
X114116854Y-100416378D01*
X113899881Y-100558631D01*
X113899876Y-100558635D01*
X113895968Y-100561197D01*
X113695426Y-100740188D01*
X113651692Y-100792773D01*
X113526541Y-100943251D01*
X113523544Y-100946854D01*
X113384096Y-101176656D01*
X113280148Y-101424545D01*
X113213981Y-101685077D01*
X113187050Y-101952526D01*
X113187274Y-101957192D01*
X113187274Y-101957197D01*
X113191441Y-102043933D01*
X113199947Y-102221019D01*
X113252388Y-102484656D01*
X113343220Y-102737646D01*
X113345432Y-102741762D01*
X113345433Y-102741765D01*
X113392104Y-102828623D01*
X113470450Y-102974431D01*
X113473241Y-102978168D01*
X113473245Y-102978175D01*
X113554887Y-103087506D01*
X113631281Y-103189810D01*
X113634590Y-103193090D01*
X113634595Y-103193096D01*
X113818863Y-103375762D01*
X113822180Y-103379050D01*
X113825942Y-103381808D01*
X113825945Y-103381811D01*
X114035183Y-103535230D01*
X114038954Y-103537995D01*
X114043089Y-103540171D01*
X114043093Y-103540173D01*
X114272698Y-103660975D01*
X114276840Y-103663154D01*
X114371089Y-103696067D01*
X114504844Y-103742776D01*
X114530613Y-103751775D01*
X114535206Y-103752647D01*
X114790109Y-103801042D01*
X114790112Y-103801042D01*
X114794698Y-103801913D01*
X114922370Y-103806929D01*
X115058625Y-103812283D01*
X115058630Y-103812283D01*
X115063293Y-103812466D01*
X115188472Y-103798757D01*
X115325844Y-103783713D01*
X115325850Y-103783712D01*
X115330497Y-103783203D01*
X115335021Y-103782012D01*
X115585918Y-103715956D01*
X115585920Y-103715955D01*
X115590441Y-103714765D01*
X115657917Y-103685775D01*
X115833120Y-103610502D01*
X115833122Y-103610501D01*
X115837414Y-103608657D01*
X115992077Y-103512949D01*
X116062017Y-103469669D01*
X116062021Y-103469666D01*
X116065990Y-103467210D01*
X116271149Y-103293530D01*
X116448382Y-103091434D01*
X116462484Y-103069511D01*
X116591269Y-102869291D01*
X116593797Y-102865361D01*
X116664796Y-102707749D01*
X116711012Y-102653855D01*
X116779678Y-102633500D01*
X118217192Y-102633500D01*
X118285313Y-102653502D01*
X118331806Y-102707158D01*
X118335773Y-102716905D01*
X118343220Y-102737646D01*
X118345432Y-102741762D01*
X118345433Y-102741765D01*
X118392104Y-102828623D01*
X118470450Y-102974431D01*
X118473241Y-102978168D01*
X118473245Y-102978175D01*
X118554887Y-103087506D01*
X118631281Y-103189810D01*
X118634590Y-103193090D01*
X118634595Y-103193096D01*
X118818863Y-103375762D01*
X118822180Y-103379050D01*
X118825942Y-103381808D01*
X118825945Y-103381811D01*
X119035183Y-103535230D01*
X119038954Y-103537995D01*
X119043089Y-103540171D01*
X119043093Y-103540173D01*
X119272698Y-103660975D01*
X119276840Y-103663154D01*
X119447469Y-103722740D01*
X119504844Y-103742776D01*
X119562561Y-103784118D01*
X119588765Y-103850102D01*
X119575136Y-103919778D01*
X119555154Y-103947983D01*
X119546358Y-103957350D01*
X119543602Y-103960193D01*
X119523865Y-103979930D01*
X119521385Y-103983127D01*
X119513682Y-103992147D01*
X119483414Y-104024379D01*
X119479595Y-104031325D01*
X119479593Y-104031328D01*
X119473652Y-104042134D01*
X119462801Y-104058653D01*
X119462441Y-104059117D01*
X119450386Y-104074659D01*
X119447241Y-104081928D01*
X119447238Y-104081932D01*
X119432826Y-104115237D01*
X119427609Y-104125887D01*
X119406305Y-104164640D01*
X119404334Y-104172315D01*
X119404334Y-104172316D01*
X119401267Y-104184262D01*
X119394863Y-104202966D01*
X119386819Y-104221555D01*
X119385580Y-104229378D01*
X119385577Y-104229388D01*
X119379901Y-104265224D01*
X119377495Y-104276844D01*
X119366500Y-104319670D01*
X119366500Y-104339924D01*
X119364949Y-104359634D01*
X119361780Y-104379643D01*
X119362526Y-104387535D01*
X119365941Y-104423661D01*
X119366500Y-104435519D01*
X119366500Y-107219871D01*
X119346498Y-107287992D01*
X119293252Y-107334296D01*
X119120763Y-107413815D01*
X119116854Y-107416378D01*
X118899881Y-107558631D01*
X118899876Y-107558635D01*
X118895968Y-107561197D01*
X118892476Y-107564314D01*
X118755917Y-107686198D01*
X118695426Y-107740188D01*
X118523544Y-107946854D01*
X118521121Y-107950847D01*
X118441246Y-108082477D01*
X118384096Y-108176656D01*
X118382287Y-108180970D01*
X118382285Y-108180974D01*
X118336892Y-108289225D01*
X118292103Y-108344312D01*
X118220695Y-108366500D01*
X116780363Y-108366500D01*
X116712242Y-108346498D01*
X116665749Y-108292842D01*
X116662930Y-108286168D01*
X116638595Y-108223592D01*
X116636902Y-108219238D01*
X116503518Y-107985864D01*
X116492024Y-107971283D01*
X116420883Y-107881041D01*
X116337105Y-107774769D01*
X116141317Y-107590591D01*
X115920457Y-107437374D01*
X115916264Y-107435306D01*
X115683564Y-107320551D01*
X115683561Y-107320550D01*
X115679376Y-107318486D01*
X115631745Y-107303239D01*
X115566796Y-107282449D01*
X115423370Y-107236538D01*
X115418763Y-107235788D01*
X115418760Y-107235787D01*
X115162674Y-107194081D01*
X115162675Y-107194081D01*
X115158063Y-107193330D01*
X115027719Y-107191624D01*
X114893961Y-107189873D01*
X114893958Y-107189873D01*
X114889284Y-107189812D01*
X114622937Y-107226060D01*
X114364874Y-107301278D01*
X114120763Y-107413815D01*
X114116854Y-107416378D01*
X113899881Y-107558631D01*
X113899876Y-107558635D01*
X113895968Y-107561197D01*
X113892476Y-107564314D01*
X113755917Y-107686198D01*
X113695426Y-107740188D01*
X113523544Y-107946854D01*
X113521121Y-107950847D01*
X113441246Y-108082477D01*
X113384096Y-108176656D01*
X113280148Y-108424545D01*
X113213981Y-108685077D01*
X113187050Y-108952526D01*
X113187274Y-108957192D01*
X113187274Y-108957197D01*
X113188942Y-108991913D01*
X113199947Y-109221019D01*
X113252388Y-109484656D01*
X113343220Y-109737646D01*
X113345432Y-109741762D01*
X113345433Y-109741765D01*
X113406411Y-109855250D01*
X113470450Y-109974431D01*
X113473241Y-109978168D01*
X113473245Y-109978175D01*
X113537558Y-110064300D01*
X113631281Y-110189810D01*
X113634590Y-110193090D01*
X113634595Y-110193096D01*
X113818863Y-110375762D01*
X113822180Y-110379050D01*
X113825942Y-110381808D01*
X113825945Y-110381811D01*
X114035183Y-110535230D01*
X114038954Y-110537995D01*
X114043089Y-110540171D01*
X114043093Y-110540173D01*
X114272698Y-110660975D01*
X114276840Y-110663154D01*
X114530613Y-110751775D01*
X114535206Y-110752647D01*
X114790109Y-110801042D01*
X114790112Y-110801042D01*
X114794698Y-110801913D01*
X114922370Y-110806929D01*
X115058625Y-110812283D01*
X115058630Y-110812283D01*
X115063293Y-110812466D01*
X115167607Y-110801042D01*
X115325844Y-110783713D01*
X115325850Y-110783712D01*
X115330497Y-110783203D01*
X115335021Y-110782012D01*
X115585918Y-110715956D01*
X115585920Y-110715955D01*
X115590441Y-110714765D01*
X115594738Y-110712919D01*
X115833120Y-110610502D01*
X115833122Y-110610501D01*
X115837414Y-110608657D01*
X116029162Y-110490000D01*
X116062017Y-110469669D01*
X116062021Y-110469666D01*
X116065990Y-110467210D01*
X116271149Y-110293530D01*
X116448382Y-110091434D01*
X116465836Y-110064300D01*
X116575580Y-109893682D01*
X116593797Y-109865361D01*
X116664796Y-109707749D01*
X116711012Y-109653855D01*
X116779678Y-109633500D01*
X118217192Y-109633500D01*
X118285313Y-109653502D01*
X118331806Y-109707158D01*
X118335773Y-109716905D01*
X118343220Y-109737646D01*
X118345432Y-109741762D01*
X118345433Y-109741765D01*
X118406411Y-109855250D01*
X118470450Y-109974431D01*
X118473241Y-109978168D01*
X118473245Y-109978175D01*
X118537558Y-110064300D01*
X118631281Y-110189810D01*
X118634590Y-110193090D01*
X118634595Y-110193096D01*
X118818863Y-110375762D01*
X118822180Y-110379050D01*
X118825942Y-110381808D01*
X118825945Y-110381811D01*
X119035183Y-110535230D01*
X119038954Y-110537995D01*
X119043089Y-110540171D01*
X119043093Y-110540173D01*
X119272698Y-110660975D01*
X119276840Y-110663154D01*
X119530613Y-110751775D01*
X119535206Y-110752647D01*
X119790109Y-110801042D01*
X119790112Y-110801042D01*
X119794698Y-110801913D01*
X119922370Y-110806929D01*
X120058625Y-110812283D01*
X120058630Y-110812283D01*
X120063293Y-110812466D01*
X120167607Y-110801042D01*
X120325844Y-110783713D01*
X120325850Y-110783712D01*
X120330497Y-110783203D01*
X120335021Y-110782012D01*
X120585918Y-110715956D01*
X120585920Y-110715955D01*
X120590441Y-110714765D01*
X120594738Y-110712919D01*
X120833120Y-110610502D01*
X120833122Y-110610501D01*
X120837414Y-110608657D01*
X121029162Y-110490000D01*
X121062017Y-110469669D01*
X121062021Y-110469666D01*
X121065990Y-110467210D01*
X121076020Y-110458719D01*
X121140937Y-110429973D01*
X121211089Y-110440887D01*
X121264205Y-110487995D01*
X121283429Y-110554889D01*
X121283429Y-114449025D01*
X121263427Y-114517146D01*
X121209771Y-114563639D01*
X121139497Y-114573743D01*
X121085610Y-114552553D01*
X120924042Y-114440470D01*
X120916010Y-114435738D01*
X120683376Y-114321016D01*
X120674743Y-114317528D01*
X120427703Y-114238450D01*
X120418643Y-114236274D01*
X120162630Y-114194580D01*
X120153343Y-114193768D01*
X119893992Y-114190373D01*
X119884681Y-114190943D01*
X119627682Y-114225919D01*
X119618546Y-114227860D01*
X119369543Y-114300439D01*
X119360800Y-114303707D01*
X119125252Y-114412296D01*
X119117097Y-114416816D01*
X118926240Y-114541947D01*
X118917102Y-114552689D01*
X118921675Y-114562465D01*
X121436094Y-117076884D01*
X121448474Y-117083644D01*
X121456815Y-117077400D01*
X121590832Y-116869048D01*
X121595275Y-116860864D01*
X121701807Y-116624370D01*
X121704997Y-116615605D01*
X121775402Y-116365972D01*
X121777262Y-116356830D01*
X121810187Y-116098019D01*
X121810668Y-116091733D01*
X121812987Y-116003160D01*
X121812836Y-115996833D01*
X121808401Y-115937165D01*
X121823299Y-115867749D01*
X121873361Y-115817407D01*
X121942693Y-115802122D01*
X122009282Y-115826748D01*
X122023149Y-115838730D01*
X124475716Y-118291294D01*
X124483254Y-118299578D01*
X124487366Y-118306058D01*
X124526100Y-118342431D01*
X124537033Y-118352698D01*
X124539875Y-118355453D01*
X124559597Y-118375175D01*
X124562721Y-118377598D01*
X124562725Y-118377602D01*
X124562790Y-118377652D01*
X124571811Y-118385357D01*
X124604045Y-118415626D01*
X124610993Y-118419445D01*
X124610995Y-118419447D01*
X124621798Y-118425386D01*
X124638325Y-118436242D01*
X124648064Y-118443797D01*
X124648066Y-118443798D01*
X124654326Y-118448654D01*
X124694900Y-118466212D01*
X124705558Y-118471433D01*
X124744306Y-118492735D01*
X124763938Y-118497776D01*
X124782630Y-118504176D01*
X124801222Y-118512221D01*
X124844891Y-118519137D01*
X124856511Y-118521544D01*
X124876230Y-118526607D01*
X124891659Y-118530569D01*
X124891660Y-118530569D01*
X124899336Y-118532540D01*
X124919590Y-118532540D01*
X124939302Y-118534091D01*
X124959309Y-118537260D01*
X124967201Y-118536514D01*
X125003327Y-118533099D01*
X125015185Y-118532540D01*
X138685406Y-118532540D01*
X138753527Y-118552542D01*
X138774501Y-118569445D01*
X140246348Y-120041293D01*
X140253888Y-120049579D01*
X140258000Y-120056058D01*
X140263777Y-120061483D01*
X140307651Y-120102683D01*
X140310493Y-120105438D01*
X140330230Y-120125175D01*
X140333427Y-120127655D01*
X140342447Y-120135358D01*
X140374679Y-120165626D01*
X140381625Y-120169445D01*
X140381628Y-120169447D01*
X140392434Y-120175388D01*
X140408953Y-120186239D01*
X140424959Y-120198654D01*
X140432228Y-120201799D01*
X140432232Y-120201802D01*
X140465537Y-120216214D01*
X140476187Y-120221431D01*
X140514940Y-120242735D01*
X140522615Y-120244706D01*
X140522616Y-120244706D01*
X140534562Y-120247773D01*
X140553267Y-120254177D01*
X140571855Y-120262221D01*
X140579678Y-120263460D01*
X140579688Y-120263463D01*
X140615524Y-120269139D01*
X140627144Y-120271545D01*
X140658959Y-120279713D01*
X140669970Y-120282540D01*
X140690224Y-120282540D01*
X140709934Y-120284091D01*
X140729943Y-120287260D01*
X140737835Y-120286514D01*
X140756580Y-120284742D01*
X140773962Y-120283099D01*
X140785819Y-120282540D01*
X148195316Y-120282540D01*
X148206499Y-120283067D01*
X148213992Y-120284742D01*
X148221918Y-120284493D01*
X148221919Y-120284493D01*
X148282069Y-120282602D01*
X148286028Y-120282540D01*
X148313939Y-120282540D01*
X148317874Y-120282043D01*
X148317939Y-120282035D01*
X148329776Y-120281102D01*
X148362034Y-120280088D01*
X148366053Y-120279962D01*
X148373972Y-120279713D01*
X148393426Y-120274061D01*
X148412783Y-120270053D01*
X148425013Y-120268508D01*
X148425014Y-120268508D01*
X148432880Y-120267514D01*
X148440251Y-120264595D01*
X148440253Y-120264595D01*
X148473995Y-120251236D01*
X148485225Y-120247391D01*
X148520066Y-120237269D01*
X148520067Y-120237269D01*
X148527676Y-120235058D01*
X148534495Y-120231025D01*
X148534500Y-120231023D01*
X148545111Y-120224747D01*
X148562859Y-120216052D01*
X148581700Y-120208592D01*
X148617470Y-120182604D01*
X148627390Y-120176088D01*
X148658618Y-120157620D01*
X148658621Y-120157618D01*
X148665445Y-120153582D01*
X148679766Y-120139261D01*
X148694800Y-120126420D01*
X148704777Y-120119171D01*
X148711190Y-120114512D01*
X148739381Y-120080435D01*
X148747371Y-120071656D01*
X150373622Y-118445405D01*
X150435934Y-118411379D01*
X150462717Y-118408500D01*
X150495487Y-118408500D01*
X150501939Y-118407128D01*
X150501944Y-118407128D01*
X150589303Y-118388559D01*
X150660094Y-118393961D01*
X150716727Y-118436778D01*
X150741220Y-118503416D01*
X150741500Y-118511806D01*
X150741500Y-126615500D01*
X150721498Y-126683621D01*
X150667842Y-126730114D01*
X150615500Y-126741500D01*
X112634500Y-126741500D01*
X112566379Y-126721498D01*
X112519886Y-126667842D01*
X112508500Y-126615500D01*
X112508500Y-123832703D01*
X113440743Y-123832703D01*
X113478268Y-124117734D01*
X113554129Y-124395036D01*
X113666923Y-124659476D01*
X113814561Y-124906161D01*
X113994313Y-125130528D01*
X114202851Y-125328423D01*
X114436317Y-125496186D01*
X114440112Y-125498195D01*
X114440113Y-125498196D01*
X114461869Y-125509715D01*
X114690392Y-125630712D01*
X114960373Y-125729511D01*
X115241264Y-125790755D01*
X115269841Y-125793004D01*
X115464282Y-125808307D01*
X115464291Y-125808307D01*
X115466739Y-125808500D01*
X115622271Y-125808500D01*
X115624407Y-125808354D01*
X115624418Y-125808354D01*
X115832548Y-125794165D01*
X115832554Y-125794164D01*
X115836825Y-125793873D01*
X115841020Y-125793004D01*
X115841022Y-125793004D01*
X115977583Y-125764724D01*
X116118342Y-125735574D01*
X116389343Y-125639607D01*
X116644812Y-125507750D01*
X116648313Y-125505289D01*
X116648317Y-125505287D01*
X116762418Y-125425095D01*
X116880023Y-125342441D01*
X117090622Y-125146740D01*
X117272713Y-124924268D01*
X117422927Y-124679142D01*
X117538483Y-124415898D01*
X117617244Y-124139406D01*
X117657751Y-123854784D01*
X117657845Y-123836951D01*
X117657867Y-123832703D01*
X145590743Y-123832703D01*
X145628268Y-124117734D01*
X145704129Y-124395036D01*
X145816923Y-124659476D01*
X145964561Y-124906161D01*
X146144313Y-125130528D01*
X146352851Y-125328423D01*
X146586317Y-125496186D01*
X146590112Y-125498195D01*
X146590113Y-125498196D01*
X146611869Y-125509715D01*
X146840392Y-125630712D01*
X147110373Y-125729511D01*
X147391264Y-125790755D01*
X147419841Y-125793004D01*
X147614282Y-125808307D01*
X147614291Y-125808307D01*
X147616739Y-125808500D01*
X147772271Y-125808500D01*
X147774407Y-125808354D01*
X147774418Y-125808354D01*
X147982548Y-125794165D01*
X147982554Y-125794164D01*
X147986825Y-125793873D01*
X147991020Y-125793004D01*
X147991022Y-125793004D01*
X148127583Y-125764724D01*
X148268342Y-125735574D01*
X148539343Y-125639607D01*
X148794812Y-125507750D01*
X148798313Y-125505289D01*
X148798317Y-125505287D01*
X148912418Y-125425095D01*
X149030023Y-125342441D01*
X149240622Y-125146740D01*
X149422713Y-124924268D01*
X149572927Y-124679142D01*
X149688483Y-124415898D01*
X149767244Y-124139406D01*
X149807751Y-123854784D01*
X149807845Y-123836951D01*
X149809235Y-123571583D01*
X149809235Y-123571576D01*
X149809257Y-123567297D01*
X149771732Y-123282266D01*
X149695871Y-123004964D01*
X149583077Y-122740524D01*
X149435439Y-122493839D01*
X149255687Y-122269472D01*
X149047149Y-122071577D01*
X148813683Y-121903814D01*
X148791843Y-121892250D01*
X148768654Y-121879972D01*
X148559608Y-121769288D01*
X148289627Y-121670489D01*
X148008736Y-121609245D01*
X147977685Y-121606801D01*
X147785718Y-121591693D01*
X147785709Y-121591693D01*
X147783261Y-121591500D01*
X147627729Y-121591500D01*
X147625593Y-121591646D01*
X147625582Y-121591646D01*
X147417452Y-121605835D01*
X147417446Y-121605836D01*
X147413175Y-121606127D01*
X147408980Y-121606996D01*
X147408978Y-121606996D01*
X147272417Y-121635276D01*
X147131658Y-121664426D01*
X146860657Y-121760393D01*
X146605188Y-121892250D01*
X146601687Y-121894711D01*
X146601683Y-121894713D01*
X146591594Y-121901804D01*
X146369977Y-122057559D01*
X146159378Y-122253260D01*
X145977287Y-122475732D01*
X145827073Y-122720858D01*
X145711517Y-122984102D01*
X145632756Y-123260594D01*
X145592249Y-123545216D01*
X145592227Y-123549505D01*
X145592226Y-123549512D01*
X145590765Y-123828417D01*
X145590743Y-123832703D01*
X117657867Y-123832703D01*
X117659235Y-123571583D01*
X117659235Y-123571576D01*
X117659257Y-123567297D01*
X117621732Y-123282266D01*
X117545871Y-123004964D01*
X117433077Y-122740524D01*
X117285439Y-122493839D01*
X117105687Y-122269472D01*
X116897149Y-122071577D01*
X116663683Y-121903814D01*
X116641843Y-121892250D01*
X116618654Y-121879972D01*
X116409608Y-121769288D01*
X116139627Y-121670489D01*
X115858736Y-121609245D01*
X115827685Y-121606801D01*
X115635718Y-121591693D01*
X115635709Y-121591693D01*
X115633261Y-121591500D01*
X115477729Y-121591500D01*
X115475593Y-121591646D01*
X115475582Y-121591646D01*
X115267452Y-121605835D01*
X115267446Y-121605836D01*
X115263175Y-121606127D01*
X115258980Y-121606996D01*
X115258978Y-121606996D01*
X115122417Y-121635276D01*
X114981658Y-121664426D01*
X114710657Y-121760393D01*
X114455188Y-121892250D01*
X114451687Y-121894711D01*
X114451683Y-121894713D01*
X114441594Y-121901804D01*
X114219977Y-122057559D01*
X114009378Y-122253260D01*
X113827287Y-122475732D01*
X113677073Y-122720858D01*
X113561517Y-122984102D01*
X113482756Y-123260594D01*
X113442249Y-123545216D01*
X113442227Y-123549505D01*
X113442226Y-123549512D01*
X113440765Y-123828417D01*
X113440743Y-123832703D01*
X112508500Y-123832703D01*
X112508500Y-117444906D01*
X113919839Y-117444906D01*
X113928553Y-117456427D01*
X114035452Y-117534809D01*
X114043351Y-117539745D01*
X114272905Y-117660519D01*
X114281454Y-117664236D01*
X114526327Y-117749749D01*
X114535336Y-117752163D01*
X114790166Y-117800544D01*
X114799423Y-117801598D01*
X115058607Y-117811783D01*
X115067921Y-117811457D01*
X115325753Y-117783220D01*
X115334930Y-117781519D01*
X115585758Y-117715481D01*
X115594574Y-117712445D01*
X115832880Y-117610062D01*
X115841167Y-117605748D01*
X116061718Y-117469266D01*
X116069268Y-117463780D01*
X116074559Y-117459301D01*
X116082997Y-117446497D01*
X116082065Y-117444906D01*
X118919839Y-117444906D01*
X118928553Y-117456427D01*
X119035452Y-117534809D01*
X119043351Y-117539745D01*
X119272905Y-117660519D01*
X119281454Y-117664236D01*
X119526327Y-117749749D01*
X119535336Y-117752163D01*
X119790166Y-117800544D01*
X119799423Y-117801598D01*
X120058607Y-117811783D01*
X120067921Y-117811457D01*
X120325753Y-117783220D01*
X120334930Y-117781519D01*
X120585758Y-117715481D01*
X120594574Y-117712445D01*
X120832880Y-117610062D01*
X120841167Y-117605748D01*
X121061718Y-117469266D01*
X121069268Y-117463780D01*
X121074559Y-117459301D01*
X121082997Y-117446497D01*
X121076935Y-117436145D01*
X120012812Y-116372022D01*
X119998868Y-116364408D01*
X119997035Y-116364539D01*
X119990420Y-116368790D01*
X118926497Y-117432713D01*
X118919839Y-117444906D01*
X116082065Y-117444906D01*
X116076935Y-117436145D01*
X115012812Y-116372022D01*
X114998868Y-116364408D01*
X114997035Y-116364539D01*
X114990420Y-116368790D01*
X113926497Y-117432713D01*
X113919839Y-117444906D01*
X112508500Y-117444906D01*
X112508500Y-115957211D01*
X113187775Y-115957211D01*
X113200220Y-116216288D01*
X113201356Y-116225543D01*
X113251961Y-116479945D01*
X113254449Y-116488917D01*
X113342095Y-116733033D01*
X113345895Y-116741568D01*
X113468658Y-116970042D01*
X113473666Y-116977904D01*
X113543720Y-117071716D01*
X113554979Y-117080165D01*
X113567397Y-117073393D01*
X114627978Y-116012812D01*
X114634356Y-116001132D01*
X115364408Y-116001132D01*
X115364539Y-116002965D01*
X115368790Y-116009580D01*
X116436094Y-117076884D01*
X116448474Y-117083644D01*
X116456815Y-117077400D01*
X116590832Y-116869048D01*
X116595275Y-116860864D01*
X116701807Y-116624370D01*
X116704997Y-116615605D01*
X116775402Y-116365972D01*
X116777262Y-116356830D01*
X116810187Y-116098019D01*
X116810668Y-116091733D01*
X116812987Y-116003160D01*
X116812836Y-115996851D01*
X116809890Y-115957211D01*
X118187775Y-115957211D01*
X118200220Y-116216288D01*
X118201356Y-116225543D01*
X118251961Y-116479945D01*
X118254449Y-116488917D01*
X118342095Y-116733033D01*
X118345895Y-116741568D01*
X118468658Y-116970042D01*
X118473666Y-116977904D01*
X118543720Y-117071716D01*
X118554979Y-117080165D01*
X118567397Y-117073393D01*
X119627978Y-116012812D01*
X119635592Y-115998868D01*
X119635461Y-115997035D01*
X119631210Y-115990420D01*
X118565816Y-114925026D01*
X118552507Y-114917758D01*
X118542472Y-114924878D01*
X118526937Y-114943556D01*
X118521531Y-114951135D01*
X118386965Y-115172891D01*
X118382736Y-115181192D01*
X118282432Y-115420389D01*
X118279471Y-115429239D01*
X118215628Y-115680625D01*
X118214006Y-115689822D01*
X118188020Y-115947885D01*
X118187775Y-115957211D01*
X116809890Y-115957211D01*
X116793501Y-115736663D01*
X116792125Y-115727457D01*
X116734878Y-115474467D01*
X116732154Y-115465556D01*
X116638143Y-115223806D01*
X116634132Y-115215397D01*
X116505422Y-114990202D01*
X116500211Y-114982476D01*
X116456996Y-114927658D01*
X116445071Y-114919187D01*
X116433537Y-114925673D01*
X115372022Y-115987188D01*
X115364408Y-116001132D01*
X114634356Y-116001132D01*
X114635592Y-115998868D01*
X114635461Y-115997035D01*
X114631210Y-115990420D01*
X113565816Y-114925026D01*
X113552507Y-114917758D01*
X113542472Y-114924878D01*
X113526937Y-114943556D01*
X113521531Y-114951135D01*
X113386965Y-115172891D01*
X113382736Y-115181192D01*
X113282432Y-115420389D01*
X113279471Y-115429239D01*
X113215628Y-115680625D01*
X113214006Y-115689822D01*
X113188020Y-115947885D01*
X113187775Y-115957211D01*
X112508500Y-115957211D01*
X112508500Y-114552689D01*
X113917102Y-114552689D01*
X113921675Y-114562465D01*
X114987188Y-115627978D01*
X115001132Y-115635592D01*
X115002965Y-115635461D01*
X115009580Y-115631210D01*
X116074349Y-114566441D01*
X116080733Y-114554751D01*
X116071321Y-114542641D01*
X115924045Y-114440471D01*
X115916010Y-114435738D01*
X115683376Y-114321016D01*
X115674743Y-114317528D01*
X115427703Y-114238450D01*
X115418643Y-114236274D01*
X115162630Y-114194580D01*
X115153343Y-114193768D01*
X114893992Y-114190373D01*
X114884681Y-114190943D01*
X114627682Y-114225919D01*
X114618546Y-114227860D01*
X114369543Y-114300439D01*
X114360800Y-114303707D01*
X114125252Y-114412296D01*
X114117097Y-114416816D01*
X113926240Y-114541947D01*
X113917102Y-114552689D01*
X112508500Y-114552689D01*
X112508500Y-67432703D01*
X113440743Y-67432703D01*
X113478268Y-67717734D01*
X113554129Y-67995036D01*
X113555813Y-67998984D01*
X113660275Y-68243889D01*
X113666923Y-68259476D01*
X113691152Y-68299959D01*
X113808713Y-68496389D01*
X113814561Y-68506161D01*
X113994313Y-68730528D01*
X114104830Y-68835405D01*
X114195574Y-68921517D01*
X114202851Y-68928423D01*
X114392936Y-69065013D01*
X114428765Y-69090759D01*
X114436317Y-69096186D01*
X114440112Y-69098195D01*
X114440113Y-69098196D01*
X114459527Y-69108475D01*
X114690392Y-69230712D01*
X114960373Y-69329511D01*
X115241264Y-69390755D01*
X115269841Y-69393004D01*
X115464282Y-69408307D01*
X115464291Y-69408307D01*
X115466739Y-69408500D01*
X115622271Y-69408500D01*
X115624407Y-69408354D01*
X115624418Y-69408354D01*
X115832548Y-69394165D01*
X115832554Y-69394164D01*
X115836825Y-69393873D01*
X115841020Y-69393004D01*
X115841022Y-69393004D01*
X115987838Y-69362600D01*
X116118342Y-69335574D01*
X116389343Y-69239607D01*
X116532929Y-69165497D01*
X116641005Y-69109715D01*
X116641006Y-69109715D01*
X116644812Y-69107750D01*
X116648313Y-69105289D01*
X116648317Y-69105287D01*
X116762417Y-69025096D01*
X116880023Y-68942441D01*
X117036693Y-68796854D01*
X117087479Y-68749661D01*
X117087481Y-68749658D01*
X117090622Y-68746740D01*
X117272713Y-68524268D01*
X117422927Y-68279142D01*
X117428067Y-68267434D01*
X117536757Y-68019830D01*
X117538483Y-68015898D01*
X117543699Y-67997589D01*
X117589987Y-67835092D01*
X117617244Y-67739406D01*
X117648895Y-67517012D01*
X117657146Y-67459036D01*
X117657146Y-67459034D01*
X117657751Y-67454784D01*
X117657840Y-67437893D01*
X117659235Y-67171583D01*
X117659235Y-67171576D01*
X117659257Y-67167297D01*
X117621732Y-66882266D01*
X117619126Y-66872738D01*
X117582701Y-66739594D01*
X117545871Y-66604964D01*
X117468543Y-66423672D01*
X117434763Y-66344476D01*
X117434761Y-66344472D01*
X117433077Y-66340524D01*
X117298305Y-66115336D01*
X117287643Y-66097521D01*
X117287640Y-66097517D01*
X117285439Y-66093839D01*
X117105687Y-65869472D01*
X116897149Y-65671577D01*
X116663683Y-65503814D01*
X116641843Y-65492250D01*
X116618654Y-65479972D01*
X116409608Y-65369288D01*
X116139627Y-65270489D01*
X115858736Y-65209245D01*
X115827685Y-65206801D01*
X115635718Y-65191693D01*
X115635709Y-65191693D01*
X115633261Y-65191500D01*
X115477729Y-65191500D01*
X115475593Y-65191646D01*
X115475582Y-65191646D01*
X115267452Y-65205835D01*
X115267446Y-65205836D01*
X115263175Y-65206127D01*
X115258980Y-65206996D01*
X115258978Y-65206996D01*
X115190708Y-65221134D01*
X114981658Y-65264426D01*
X114710657Y-65360393D01*
X114455188Y-65492250D01*
X114451687Y-65494711D01*
X114451683Y-65494713D01*
X114443176Y-65500692D01*
X114219977Y-65657559D01*
X114009378Y-65853260D01*
X113827287Y-66075732D01*
X113677073Y-66320858D01*
X113675347Y-66324791D01*
X113675346Y-66324792D01*
X113610527Y-66472453D01*
X113561517Y-66584102D01*
X113482756Y-66860594D01*
X113442249Y-67145216D01*
X113442227Y-67149505D01*
X113442226Y-67149512D01*
X113440765Y-67428417D01*
X113440743Y-67432703D01*
X112508500Y-67432703D01*
X112508500Y-64384500D01*
X112528502Y-64316379D01*
X112582158Y-64269886D01*
X112634500Y-64258500D01*
X119574088Y-64258500D01*
X119642209Y-64278502D01*
G37*
%TD.AperFunction*%
%TA.AperFunction,Conductor*%
G36*
X150710567Y-87150928D02*
G01*
X150740183Y-87215452D01*
X150741500Y-87233622D01*
X150741500Y-116488194D01*
X150721498Y-116556315D01*
X150667842Y-116602808D01*
X150597568Y-116612912D01*
X150589303Y-116611441D01*
X150501944Y-116592872D01*
X150501939Y-116592872D01*
X150495487Y-116591500D01*
X150304513Y-116591500D01*
X150298061Y-116592872D01*
X150298056Y-116592872D01*
X150211113Y-116611353D01*
X150117712Y-116631206D01*
X149950502Y-116705652D01*
X149880137Y-116715086D01*
X149848006Y-116705652D01*
X149686828Y-116633891D01*
X149686827Y-116633891D01*
X149680797Y-116631206D01*
X149587396Y-116611353D01*
X149500453Y-116592872D01*
X149500448Y-116592872D01*
X149493996Y-116591500D01*
X149303022Y-116591500D01*
X149296570Y-116592872D01*
X149296565Y-116592872D01*
X149209622Y-116611353D01*
X149116221Y-116631206D01*
X149110194Y-116633889D01*
X149110186Y-116633892D01*
X148950005Y-116705209D01*
X148879638Y-116714643D01*
X148847508Y-116705209D01*
X148687325Y-116633891D01*
X148687324Y-116633891D01*
X148681294Y-116631206D01*
X148587893Y-116611353D01*
X148500950Y-116592872D01*
X148500945Y-116592872D01*
X148494493Y-116591500D01*
X148303519Y-116591500D01*
X148297067Y-116592872D01*
X148297062Y-116592872D01*
X148210119Y-116611353D01*
X148116718Y-116631206D01*
X148110691Y-116633889D01*
X148110683Y-116633892D01*
X147950502Y-116705209D01*
X147880135Y-116714643D01*
X147848005Y-116705209D01*
X147687822Y-116633891D01*
X147687821Y-116633891D01*
X147681791Y-116631206D01*
X147588390Y-116611353D01*
X147501447Y-116592872D01*
X147501442Y-116592872D01*
X147494990Y-116591500D01*
X147304016Y-116591500D01*
X147297564Y-116592872D01*
X147297559Y-116592872D01*
X147210616Y-116611353D01*
X147117215Y-116631206D01*
X147111188Y-116633889D01*
X147111180Y-116633892D01*
X146950999Y-116705209D01*
X146880632Y-116714643D01*
X146848502Y-116705209D01*
X146688319Y-116633891D01*
X146688318Y-116633891D01*
X146682288Y-116631206D01*
X146588887Y-116611353D01*
X146501944Y-116592872D01*
X146501939Y-116592872D01*
X146495487Y-116591500D01*
X146304513Y-116591500D01*
X146298056Y-116592872D01*
X146291485Y-116593563D01*
X146291236Y-116591197D01*
X146231258Y-116586612D01*
X146174632Y-116543788D01*
X146150147Y-116477147D01*
X146155535Y-116431409D01*
X146197034Y-116297760D01*
X146199317Y-116287376D01*
X146201361Y-116271957D01*
X146199165Y-116257793D01*
X146185978Y-116254000D01*
X143251308Y-116254000D01*
X143237777Y-116257973D01*
X143236252Y-116268580D01*
X143260977Y-116386421D01*
X143264037Y-116396617D01*
X143344763Y-116601029D01*
X143349494Y-116610561D01*
X143388678Y-116675134D01*
X143406917Y-116743748D01*
X143385166Y-116811331D01*
X143330329Y-116856425D01*
X143280959Y-116866500D01*
X141898558Y-116866500D01*
X141830437Y-116846498D01*
X141809463Y-116829595D01*
X140612636Y-115632767D01*
X140605096Y-115624481D01*
X140600984Y-115618002D01*
X140551332Y-115571376D01*
X140548491Y-115568622D01*
X140528754Y-115548885D01*
X140525557Y-115546405D01*
X140516535Y-115538700D01*
X140490084Y-115513861D01*
X140484305Y-115508434D01*
X140477359Y-115504615D01*
X140477356Y-115504613D01*
X140466550Y-115498672D01*
X140450031Y-115487821D01*
X140443150Y-115482484D01*
X140434025Y-115475406D01*
X140426756Y-115472261D01*
X140426752Y-115472258D01*
X140393447Y-115457846D01*
X140382797Y-115452629D01*
X140344044Y-115431325D01*
X140324421Y-115426287D01*
X140305718Y-115419883D01*
X140294404Y-115414987D01*
X140294403Y-115414987D01*
X140287129Y-115411839D01*
X140279306Y-115410600D01*
X140279296Y-115410597D01*
X140243460Y-115404921D01*
X140231840Y-115402515D01*
X140196695Y-115393492D01*
X140196694Y-115393492D01*
X140189014Y-115391520D01*
X140168760Y-115391520D01*
X140149049Y-115389969D01*
X140136870Y-115388040D01*
X140129041Y-115386800D01*
X140121149Y-115387546D01*
X140085023Y-115390961D01*
X140073165Y-115391520D01*
X138934500Y-115391520D01*
X138866379Y-115371518D01*
X138819886Y-115317862D01*
X138808500Y-115265520D01*
X138808500Y-113018479D01*
X138828502Y-112950358D01*
X138882158Y-112903865D01*
X138952432Y-112893761D01*
X138987750Y-112904284D01*
X139180757Y-112994284D01*
X139186065Y-112995706D01*
X139186067Y-112995707D01*
X139396598Y-113052119D01*
X139396600Y-113052119D01*
X139401913Y-113053543D01*
X139630000Y-113073498D01*
X139858087Y-113053543D01*
X139863400Y-113052119D01*
X139863402Y-113052119D01*
X140073933Y-112995707D01*
X140073935Y-112995706D01*
X140079243Y-112994284D01*
X140115153Y-112977539D01*
X140281762Y-112899849D01*
X140281767Y-112899846D01*
X140286749Y-112897523D01*
X140451500Y-112782163D01*
X140469789Y-112769357D01*
X140469792Y-112769355D01*
X140474300Y-112766198D01*
X140636198Y-112604300D01*
X140639357Y-112599789D01*
X140746181Y-112447229D01*
X140801638Y-112402901D01*
X140849394Y-112393500D01*
X141902134Y-112393500D01*
X141970255Y-112413502D01*
X141985162Y-112424884D01*
X141988747Y-112428866D01*
X142143248Y-112541118D01*
X142149276Y-112543802D01*
X142149278Y-112543803D01*
X142311681Y-112616109D01*
X142317712Y-112618794D01*
X142411113Y-112638647D01*
X142498056Y-112657128D01*
X142498061Y-112657128D01*
X142504513Y-112658500D01*
X142695487Y-112658500D01*
X142701939Y-112657128D01*
X142701944Y-112657128D01*
X142788888Y-112638647D01*
X142882288Y-112618794D01*
X142906090Y-112608197D01*
X143050717Y-112543805D01*
X143056752Y-112541118D01*
X143057492Y-112540581D01*
X143124433Y-112524337D01*
X143191526Y-112547555D01*
X143235416Y-112603359D01*
X143242168Y-112674034D01*
X143238037Y-112689861D01*
X143221869Y-112738608D01*
X143219703Y-112745139D01*
X143219003Y-112751975D01*
X143219002Y-112751978D01*
X143214591Y-112795031D01*
X143209000Y-112849600D01*
X143209000Y-114150400D01*
X143209337Y-114153646D01*
X143209337Y-114153650D01*
X143218136Y-114238450D01*
X143219974Y-114256166D01*
X143275950Y-114423946D01*
X143369022Y-114574348D01*
X143494197Y-114699305D01*
X143639758Y-114789030D01*
X143640280Y-114789352D01*
X143687773Y-114842124D01*
X143699197Y-114912196D01*
X143670923Y-114977320D01*
X143661136Y-114987782D01*
X143550594Y-115093234D01*
X143543559Y-115101186D01*
X143412359Y-115277525D01*
X143406755Y-115286562D01*
X143307143Y-115482484D01*
X143303143Y-115492335D01*
X143237966Y-115702240D01*
X143235683Y-115712624D01*
X143233639Y-115728043D01*
X143235835Y-115742207D01*
X143249022Y-115746000D01*
X146183692Y-115746000D01*
X146197223Y-115742027D01*
X146198748Y-115731420D01*
X146174023Y-115613579D01*
X146170963Y-115603383D01*
X146090237Y-115398971D01*
X146085506Y-115389439D01*
X145971484Y-115201538D01*
X145965220Y-115192948D01*
X145821173Y-115026948D01*
X145813544Y-115019530D01*
X145781931Y-114993609D01*
X145741936Y-114934949D01*
X145740004Y-114863979D01*
X145776748Y-114803230D01*
X145795518Y-114789030D01*
X145935620Y-114702332D01*
X145941848Y-114698478D01*
X146066805Y-114573303D01*
X146079596Y-114552553D01*
X146155775Y-114428968D01*
X146155776Y-114428966D01*
X146159615Y-114422738D01*
X146186064Y-114342995D01*
X146213132Y-114261389D01*
X146213132Y-114261387D01*
X146215297Y-114254861D01*
X146216979Y-114238450D01*
X146221473Y-114194580D01*
X146226000Y-114150400D01*
X146226000Y-113045660D01*
X146246002Y-112977539D01*
X146262905Y-112956565D01*
X149180031Y-110039439D01*
X149186296Y-110033585D01*
X149186749Y-110033190D01*
X149229896Y-109995550D01*
X149266640Y-109943269D01*
X149270572Y-109937975D01*
X149305302Y-109893682D01*
X149309987Y-109887707D01*
X149313110Y-109880791D01*
X149314494Y-109878505D01*
X149322868Y-109863824D01*
X149324133Y-109861464D01*
X149328501Y-109855250D01*
X149351714Y-109795712D01*
X149354270Y-109789631D01*
X149377429Y-109738341D01*
X149380556Y-109731416D01*
X149381940Y-109723949D01*
X149382741Y-109721394D01*
X149387370Y-109705141D01*
X149388033Y-109702561D01*
X149390793Y-109695480D01*
X149399133Y-109632128D01*
X149400164Y-109625621D01*
X149410423Y-109570269D01*
X149411807Y-109562803D01*
X149408220Y-109500597D01*
X149408011Y-109493343D01*
X149408011Y-87616826D01*
X149428013Y-87548705D01*
X149481669Y-87502212D01*
X149548930Y-87491712D01*
X149728777Y-87513158D01*
X149734912Y-87512686D01*
X149734914Y-87512686D01*
X149919830Y-87498457D01*
X149919834Y-87498456D01*
X149925972Y-87497984D01*
X150116463Y-87444798D01*
X150121967Y-87442018D01*
X150121969Y-87442017D01*
X150287495Y-87358404D01*
X150287497Y-87358403D01*
X150292996Y-87355625D01*
X150448847Y-87233861D01*
X150520121Y-87151289D01*
X150579771Y-87112794D01*
X150650768Y-87112658D01*
X150710567Y-87150928D01*
G37*
%TD.AperFunction*%
%TA.AperFunction,Conductor*%
G36*
X147909043Y-92594549D02*
G01*
X147965879Y-92637096D01*
X147990690Y-92703616D01*
X147991011Y-92712605D01*
X147991011Y-109172329D01*
X147971009Y-109240450D01*
X147954106Y-109261424D01*
X145110935Y-112104595D01*
X145048623Y-112138621D01*
X145021840Y-112141500D01*
X143917100Y-112141500D01*
X143913854Y-112141837D01*
X143913850Y-112141837D01*
X143818192Y-112151762D01*
X143818188Y-112151763D01*
X143811334Y-112152474D01*
X143804798Y-112154655D01*
X143804796Y-112154655D01*
X143672694Y-112198728D01*
X143643554Y-112208450D01*
X143637323Y-112212306D01*
X143630703Y-112215407D01*
X143629937Y-112213771D01*
X143570525Y-112230123D01*
X143502754Y-112208964D01*
X143457182Y-112154524D01*
X143448276Y-112084089D01*
X143452837Y-112065205D01*
X143491502Y-111946206D01*
X143493542Y-111939928D01*
X143513504Y-111750000D01*
X143493542Y-111560072D01*
X143434527Y-111378444D01*
X143339040Y-111213056D01*
X143211253Y-111071134D01*
X143056752Y-110958882D01*
X143050724Y-110956198D01*
X143050722Y-110956197D01*
X142888319Y-110883891D01*
X142888318Y-110883891D01*
X142882288Y-110881206D01*
X142788887Y-110861353D01*
X142701944Y-110842872D01*
X142701939Y-110842872D01*
X142695487Y-110841500D01*
X142504513Y-110841500D01*
X142498061Y-110842872D01*
X142498056Y-110842872D01*
X142411113Y-110861353D01*
X142317712Y-110881206D01*
X142311682Y-110883891D01*
X142311681Y-110883891D01*
X142149278Y-110956197D01*
X142149276Y-110956198D01*
X142143248Y-110958882D01*
X141988747Y-111071134D01*
X141984334Y-111076036D01*
X141984332Y-111076037D01*
X141976432Y-111084811D01*
X141915985Y-111122050D01*
X141882796Y-111126500D01*
X140849394Y-111126500D01*
X140781273Y-111106498D01*
X140746181Y-111072771D01*
X140639357Y-110920211D01*
X140639355Y-110920208D01*
X140636198Y-110915700D01*
X140474300Y-110753802D01*
X140469792Y-110750645D01*
X140469789Y-110750643D01*
X140347045Y-110664697D01*
X140286749Y-110622477D01*
X140281767Y-110620154D01*
X140281762Y-110620151D01*
X140247543Y-110604195D01*
X140194258Y-110557278D01*
X140174797Y-110489001D01*
X140195339Y-110421041D01*
X140247543Y-110375805D01*
X140281762Y-110359849D01*
X140281767Y-110359846D01*
X140286749Y-110357523D01*
X140451500Y-110242163D01*
X140469789Y-110229357D01*
X140469792Y-110229355D01*
X140474300Y-110226198D01*
X140636198Y-110064300D01*
X140767523Y-109876749D01*
X140769846Y-109871767D01*
X140769849Y-109871762D01*
X140861961Y-109674225D01*
X140861961Y-109674224D01*
X140864284Y-109669243D01*
X140873862Y-109633500D01*
X140922119Y-109453402D01*
X140922119Y-109453400D01*
X140923543Y-109448087D01*
X140943498Y-109220000D01*
X140923543Y-108991913D01*
X140864284Y-108770757D01*
X140824331Y-108685077D01*
X140769849Y-108568238D01*
X140769846Y-108568233D01*
X140767523Y-108563251D01*
X140636198Y-108375700D01*
X140474300Y-108213802D01*
X140469792Y-108210645D01*
X140469789Y-108210643D01*
X140391611Y-108155902D01*
X140286749Y-108082477D01*
X140281767Y-108080154D01*
X140281762Y-108080151D01*
X140247543Y-108064195D01*
X140194258Y-108017278D01*
X140174797Y-107949001D01*
X140195339Y-107881041D01*
X140247543Y-107835805D01*
X140281762Y-107819849D01*
X140281767Y-107819846D01*
X140286749Y-107817523D01*
X140451500Y-107702163D01*
X140469789Y-107689357D01*
X140469792Y-107689355D01*
X140474300Y-107686198D01*
X140636198Y-107524300D01*
X140641633Y-107516539D01*
X140764366Y-107341257D01*
X140767523Y-107336749D01*
X140769846Y-107331767D01*
X140769849Y-107331762D01*
X140861961Y-107134225D01*
X140861961Y-107134224D01*
X140864284Y-107129243D01*
X140923543Y-106908087D01*
X140943498Y-106680000D01*
X140923543Y-106451913D01*
X140916588Y-106425955D01*
X140865707Y-106236067D01*
X140865706Y-106236065D01*
X140864284Y-106230757D01*
X140808236Y-106110561D01*
X140769849Y-106028238D01*
X140769846Y-106028233D01*
X140767523Y-106023251D01*
X140636198Y-105835700D01*
X140569078Y-105768580D01*
X143261252Y-105768580D01*
X143285977Y-105886421D01*
X143289037Y-105896617D01*
X143369763Y-106101029D01*
X143374494Y-106110561D01*
X143488516Y-106298462D01*
X143494780Y-106307052D01*
X143638827Y-106473052D01*
X143646458Y-106480472D01*
X143816411Y-106619826D01*
X143825178Y-106625850D01*
X144016182Y-106734576D01*
X144025846Y-106739041D01*
X144232441Y-106814031D01*
X144242708Y-106816802D01*
X144445674Y-106853504D01*
X144458914Y-106852085D01*
X144463500Y-106837450D01*
X144463500Y-106833849D01*
X144971500Y-106833849D01*
X144975810Y-106848527D01*
X144987693Y-106850590D01*
X145066825Y-106843876D01*
X145077297Y-106842086D01*
X145290035Y-106786870D01*
X145300075Y-106783335D01*
X145500470Y-106693063D01*
X145509756Y-106687894D01*
X145692075Y-106565150D01*
X145700370Y-106558481D01*
X145859400Y-106406772D01*
X145866441Y-106398814D01*
X145997641Y-106222475D01*
X146003245Y-106213438D01*
X146102857Y-106017516D01*
X146106857Y-106007665D01*
X146172034Y-105797760D01*
X146174317Y-105787376D01*
X146176361Y-105771957D01*
X146174165Y-105757793D01*
X146160978Y-105754000D01*
X144989615Y-105754000D01*
X144974376Y-105758475D01*
X144973171Y-105759865D01*
X144971500Y-105767548D01*
X144971500Y-106833849D01*
X144463500Y-106833849D01*
X144463500Y-105772115D01*
X144459025Y-105756876D01*
X144457635Y-105755671D01*
X144449952Y-105754000D01*
X143276308Y-105754000D01*
X143262777Y-105757973D01*
X143261252Y-105768580D01*
X140569078Y-105768580D01*
X140474300Y-105673802D01*
X140469792Y-105670645D01*
X140469789Y-105670643D01*
X140391611Y-105615902D01*
X140286749Y-105542477D01*
X140281767Y-105540154D01*
X140281762Y-105540151D01*
X140247543Y-105524195D01*
X140194258Y-105477278D01*
X140174797Y-105409001D01*
X140195339Y-105341041D01*
X140247543Y-105295805D01*
X140281762Y-105279849D01*
X140281767Y-105279846D01*
X140286749Y-105277523D01*
X140451500Y-105162163D01*
X140469789Y-105149357D01*
X140469792Y-105149355D01*
X140474300Y-105146198D01*
X140636198Y-104984300D01*
X140767523Y-104796749D01*
X140769846Y-104791767D01*
X140769849Y-104791762D01*
X140861961Y-104594225D01*
X140861961Y-104594224D01*
X140864284Y-104589243D01*
X140906541Y-104431541D01*
X140922119Y-104373402D01*
X140922120Y-104373398D01*
X140923543Y-104368087D01*
X140943498Y-104140000D01*
X140923543Y-103911913D01*
X140922119Y-103906598D01*
X140865707Y-103696067D01*
X140865706Y-103696065D01*
X140864284Y-103690757D01*
X140826861Y-103610502D01*
X140769849Y-103488238D01*
X140769846Y-103488233D01*
X140767523Y-103483251D01*
X140636198Y-103295700D01*
X140474300Y-103133802D01*
X140469792Y-103130645D01*
X140469789Y-103130643D01*
X140367322Y-103058895D01*
X140286749Y-103002477D01*
X140281767Y-103000154D01*
X140281762Y-103000151D01*
X140247543Y-102984195D01*
X140194258Y-102937278D01*
X140174797Y-102869001D01*
X140195339Y-102801041D01*
X140247543Y-102755805D01*
X140281762Y-102739849D01*
X140281767Y-102739846D01*
X140286749Y-102737523D01*
X140463975Y-102613428D01*
X140469789Y-102609357D01*
X140469792Y-102609355D01*
X140474300Y-102606198D01*
X140636198Y-102444300D01*
X140767523Y-102256749D01*
X140769846Y-102251767D01*
X140769849Y-102251762D01*
X140861961Y-102054225D01*
X140861961Y-102054224D01*
X140864284Y-102049243D01*
X140870355Y-102026588D01*
X140922119Y-101833402D01*
X140922119Y-101833400D01*
X140923543Y-101828087D01*
X140943498Y-101600000D01*
X140923543Y-101371913D01*
X140916147Y-101344312D01*
X140865707Y-101156067D01*
X140865706Y-101156065D01*
X140864284Y-101150757D01*
X140843517Y-101106221D01*
X140769849Y-100948238D01*
X140769846Y-100948233D01*
X140767523Y-100943251D01*
X140662157Y-100792773D01*
X140639357Y-100760211D01*
X140639355Y-100760208D01*
X140636198Y-100755700D01*
X140474300Y-100593802D01*
X140469792Y-100590645D01*
X140469789Y-100590643D01*
X140389750Y-100534599D01*
X140286749Y-100462477D01*
X140281767Y-100460154D01*
X140281762Y-100460151D01*
X140247543Y-100444195D01*
X140194258Y-100397278D01*
X140174797Y-100329001D01*
X140195339Y-100261041D01*
X140247543Y-100215805D01*
X140281762Y-100199849D01*
X140281767Y-100199846D01*
X140286749Y-100197523D01*
X140451500Y-100082163D01*
X140469789Y-100069357D01*
X140469792Y-100069355D01*
X140474300Y-100066198D01*
X140636198Y-99904300D01*
X140640089Y-99898744D01*
X140722154Y-99781542D01*
X140767523Y-99716749D01*
X140769846Y-99711767D01*
X140769849Y-99711762D01*
X140861961Y-99514225D01*
X140861961Y-99514224D01*
X140864284Y-99509243D01*
X140883524Y-99437441D01*
X140922119Y-99293402D01*
X140922119Y-99293400D01*
X140923543Y-99288087D01*
X140943498Y-99060000D01*
X140923543Y-98831913D01*
X140893143Y-98718458D01*
X140865707Y-98616067D01*
X140865706Y-98616065D01*
X140864284Y-98610757D01*
X140816299Y-98507852D01*
X140769849Y-98408238D01*
X140769846Y-98408233D01*
X140767523Y-98403251D01*
X140636198Y-98215700D01*
X140474300Y-98053802D01*
X140469792Y-98050645D01*
X140469789Y-98050643D01*
X140313352Y-97941105D01*
X140286749Y-97922477D01*
X140281767Y-97920154D01*
X140281762Y-97920151D01*
X140247543Y-97904195D01*
X140194258Y-97857278D01*
X140174797Y-97789001D01*
X140195339Y-97721041D01*
X140247543Y-97675805D01*
X140281762Y-97659849D01*
X140281767Y-97659846D01*
X140286749Y-97657523D01*
X140451500Y-97542163D01*
X140469789Y-97529357D01*
X140469792Y-97529355D01*
X140474300Y-97526198D01*
X140636198Y-97364300D01*
X140767523Y-97176749D01*
X140769846Y-97171767D01*
X140769849Y-97171762D01*
X140861961Y-96974225D01*
X140861961Y-96974224D01*
X140864284Y-96969243D01*
X140872806Y-96937441D01*
X140922119Y-96753402D01*
X140922119Y-96753400D01*
X140923543Y-96748087D01*
X140943498Y-96520000D01*
X140923543Y-96291913D01*
X140897065Y-96193096D01*
X140865707Y-96076067D01*
X140865706Y-96076065D01*
X140864284Y-96070757D01*
X140783145Y-95896752D01*
X140769849Y-95868238D01*
X140769846Y-95868233D01*
X140767523Y-95863251D01*
X140676496Y-95733251D01*
X140639357Y-95680211D01*
X140639355Y-95680208D01*
X140636198Y-95675700D01*
X140474300Y-95513802D01*
X140469792Y-95510645D01*
X140469789Y-95510643D01*
X140355317Y-95430489D01*
X140286749Y-95382477D01*
X140281767Y-95380154D01*
X140281762Y-95380151D01*
X140247543Y-95364195D01*
X140194258Y-95317278D01*
X140174797Y-95249001D01*
X140195339Y-95181041D01*
X140247543Y-95135805D01*
X140281762Y-95119849D01*
X140281767Y-95119846D01*
X140286749Y-95117523D01*
X140465810Y-94992143D01*
X140469789Y-94989357D01*
X140469792Y-94989355D01*
X140474300Y-94986198D01*
X140615573Y-94844925D01*
X140677885Y-94810899D01*
X140704668Y-94808020D01*
X143215289Y-94808020D01*
X143283410Y-94828022D01*
X143329903Y-94881678D01*
X143340007Y-94951952D01*
X143332032Y-94981422D01*
X143331675Y-94982300D01*
X143329260Y-94987051D01*
X143260893Y-95207227D01*
X143260192Y-95212516D01*
X143237666Y-95382477D01*
X143230602Y-95435774D01*
X143239251Y-95666158D01*
X143240346Y-95671377D01*
X143255115Y-95741765D01*
X143286593Y-95891791D01*
X143288551Y-95896750D01*
X143288552Y-95896752D01*
X143366824Y-96094947D01*
X143371276Y-96106221D01*
X143490877Y-96303317D01*
X143494374Y-96307347D01*
X143633096Y-96467210D01*
X143641977Y-96477445D01*
X143646108Y-96480832D01*
X143816127Y-96620240D01*
X143816133Y-96620244D01*
X143820255Y-96623624D01*
X143851750Y-96641552D01*
X143901055Y-96692632D01*
X143914917Y-96762262D01*
X143888934Y-96828333D01*
X143859784Y-96855573D01*
X143738181Y-96937441D01*
X143734324Y-96941120D01*
X143734322Y-96941122D01*
X143664964Y-97007287D01*
X143571365Y-97096576D01*
X143433746Y-97281542D01*
X143329260Y-97487051D01*
X143327678Y-97492145D01*
X143327677Y-97492148D01*
X143277307Y-97654366D01*
X143260893Y-97707227D01*
X143260192Y-97712516D01*
X143231946Y-97925634D01*
X143230602Y-97935774D01*
X143239251Y-98166158D01*
X143286593Y-98391791D01*
X143371276Y-98606221D01*
X143374043Y-98610780D01*
X143374044Y-98610783D01*
X143406714Y-98664621D01*
X143490877Y-98803317D01*
X143494374Y-98807347D01*
X143623437Y-98956079D01*
X143641977Y-98977445D01*
X143646108Y-98980832D01*
X143816127Y-99120240D01*
X143816133Y-99120244D01*
X143820255Y-99123624D01*
X143851750Y-99141552D01*
X143901055Y-99192632D01*
X143914917Y-99262262D01*
X143888934Y-99328333D01*
X143859784Y-99355573D01*
X143738181Y-99437441D01*
X143571365Y-99596576D01*
X143433746Y-99781542D01*
X143329260Y-99987051D01*
X143327678Y-99992145D01*
X143327677Y-99992148D01*
X143272445Y-100170024D01*
X143260893Y-100207227D01*
X143260192Y-100212516D01*
X143233173Y-100416378D01*
X143230602Y-100435774D01*
X143239251Y-100666158D01*
X143286593Y-100891791D01*
X143288551Y-100896750D01*
X143288552Y-100896752D01*
X143308339Y-100946854D01*
X143371276Y-101106221D01*
X143374043Y-101110780D01*
X143374044Y-101110783D01*
X143441982Y-101222740D01*
X143490877Y-101303317D01*
X143494374Y-101307347D01*
X143600006Y-101429077D01*
X143641977Y-101477445D01*
X143646108Y-101480832D01*
X143816127Y-101620240D01*
X143816133Y-101620244D01*
X143820255Y-101623624D01*
X143851750Y-101641552D01*
X143901055Y-101692632D01*
X143914917Y-101762262D01*
X143888934Y-101828333D01*
X143859784Y-101855573D01*
X143738181Y-101937441D01*
X143734324Y-101941120D01*
X143734322Y-101941122D01*
X143722368Y-101952526D01*
X143571365Y-102096576D01*
X143433746Y-102281542D01*
X143329260Y-102487051D01*
X143327678Y-102492145D01*
X143327677Y-102492148D01*
X143287306Y-102622163D01*
X143260893Y-102707227D01*
X143260192Y-102712516D01*
X143234586Y-102905716D01*
X143230602Y-102935774D01*
X143239251Y-103166158D01*
X143286593Y-103391791D01*
X143288551Y-103396750D01*
X143288552Y-103396752D01*
X143322713Y-103483251D01*
X143371276Y-103606221D01*
X143374043Y-103610780D01*
X143374044Y-103610783D01*
X143422574Y-103690757D01*
X143490877Y-103803317D01*
X143494374Y-103807347D01*
X143627007Y-103960193D01*
X143641977Y-103977445D01*
X143683530Y-104011516D01*
X143816127Y-104120240D01*
X143816133Y-104120244D01*
X143820255Y-104123624D01*
X143824898Y-104126267D01*
X143852235Y-104141829D01*
X143901541Y-104192912D01*
X143915402Y-104262542D01*
X143889418Y-104328613D01*
X143860268Y-104355851D01*
X143742922Y-104434852D01*
X143734630Y-104441519D01*
X143575600Y-104593228D01*
X143568559Y-104601186D01*
X143437359Y-104777525D01*
X143431755Y-104786562D01*
X143332143Y-104982484D01*
X143328143Y-104992335D01*
X143262966Y-105202240D01*
X143260683Y-105212624D01*
X143258639Y-105228043D01*
X143260835Y-105242207D01*
X143274022Y-105246000D01*
X146158692Y-105246000D01*
X146172223Y-105242027D01*
X146173748Y-105231420D01*
X146149023Y-105113579D01*
X146145963Y-105103383D01*
X146065237Y-104898971D01*
X146060506Y-104889439D01*
X145946484Y-104701538D01*
X145940220Y-104692948D01*
X145796173Y-104526948D01*
X145788542Y-104519528D01*
X145618589Y-104380174D01*
X145609826Y-104374152D01*
X145582789Y-104358762D01*
X145533482Y-104307680D01*
X145519620Y-104238049D01*
X145545603Y-104171978D01*
X145574753Y-104144739D01*
X145678846Y-104074659D01*
X145696819Y-104062559D01*
X145729558Y-104031328D01*
X145816925Y-103947983D01*
X145863635Y-103903424D01*
X146001254Y-103718458D01*
X146004071Y-103712919D01*
X146060842Y-103601256D01*
X146105740Y-103512949D01*
X146116362Y-103478743D01*
X146172524Y-103297871D01*
X146174107Y-103292773D01*
X146187318Y-103193096D01*
X146203698Y-103069511D01*
X146203698Y-103069506D01*
X146204398Y-103064226D01*
X146195749Y-102833842D01*
X146148407Y-102608209D01*
X146083676Y-102444300D01*
X146065685Y-102398744D01*
X146065684Y-102398742D01*
X146063724Y-102393779D01*
X145944123Y-102196683D01*
X145857255Y-102096576D01*
X145796523Y-102026588D01*
X145796521Y-102026586D01*
X145793023Y-102022555D01*
X145751470Y-101988484D01*
X145618873Y-101879760D01*
X145618867Y-101879756D01*
X145614745Y-101876376D01*
X145583250Y-101858448D01*
X145533945Y-101807368D01*
X145520083Y-101737738D01*
X145546066Y-101671667D01*
X145575216Y-101644427D01*
X145633073Y-101605475D01*
X145696819Y-101562559D01*
X145721498Y-101539017D01*
X145798660Y-101465407D01*
X145863635Y-101403424D01*
X146001254Y-101218458D01*
X146105740Y-101012949D01*
X146115290Y-100982195D01*
X146172524Y-100797871D01*
X146174107Y-100792773D01*
X146179537Y-100751803D01*
X146203698Y-100569511D01*
X146203698Y-100569506D01*
X146204398Y-100564226D01*
X146195749Y-100333842D01*
X146148407Y-100108209D01*
X146145656Y-100101242D01*
X146065685Y-99898744D01*
X146065684Y-99898742D01*
X146063724Y-99893779D01*
X145944123Y-99696683D01*
X145857255Y-99596576D01*
X145796523Y-99526588D01*
X145796521Y-99526586D01*
X145793023Y-99522555D01*
X145751470Y-99488484D01*
X145618873Y-99379760D01*
X145618867Y-99379756D01*
X145614745Y-99376376D01*
X145583250Y-99358448D01*
X145533945Y-99307368D01*
X145520083Y-99237738D01*
X145546066Y-99171667D01*
X145575216Y-99144427D01*
X145611142Y-99120240D01*
X145696819Y-99062559D01*
X145705253Y-99054514D01*
X145853039Y-98913532D01*
X145863635Y-98903424D01*
X146001254Y-98718458D01*
X146105740Y-98512949D01*
X146139803Y-98403251D01*
X146172524Y-98297871D01*
X146174107Y-98292773D01*
X146184839Y-98211803D01*
X146203698Y-98069511D01*
X146203698Y-98069506D01*
X146204398Y-98064226D01*
X146195749Y-97833842D01*
X146148407Y-97608209D01*
X146146448Y-97603248D01*
X146065685Y-97398744D01*
X146065684Y-97398742D01*
X146063724Y-97393779D01*
X146048201Y-97368197D01*
X145946890Y-97201243D01*
X145944123Y-97196683D01*
X145857255Y-97096576D01*
X145796523Y-97026588D01*
X145796521Y-97026586D01*
X145793023Y-97022555D01*
X145734080Y-96974225D01*
X145618873Y-96879760D01*
X145618867Y-96879756D01*
X145614745Y-96876376D01*
X145583250Y-96858448D01*
X145533945Y-96807368D01*
X145520083Y-96737738D01*
X145546066Y-96671667D01*
X145575216Y-96644427D01*
X145611142Y-96620240D01*
X145696819Y-96562559D01*
X145747172Y-96514525D01*
X145790269Y-96473412D01*
X145863635Y-96403424D01*
X146001254Y-96218458D01*
X146015820Y-96189810D01*
X146103322Y-96017704D01*
X146105740Y-96012949D01*
X146117701Y-95974431D01*
X146172524Y-95797871D01*
X146174107Y-95792773D01*
X146176140Y-95777432D01*
X146203698Y-95569511D01*
X146203698Y-95569506D01*
X146204398Y-95564226D01*
X146195749Y-95333842D01*
X146148407Y-95108209D01*
X146088769Y-94957197D01*
X146065685Y-94898744D01*
X146065684Y-94898742D01*
X146063724Y-94893779D01*
X145944123Y-94696683D01*
X145934052Y-94685077D01*
X145908918Y-94656111D01*
X145879379Y-94591551D01*
X145889434Y-94521270D01*
X145914989Y-94484437D01*
X147775916Y-92623510D01*
X147838228Y-92589484D01*
X147909043Y-92594549D01*
G37*
%TD.AperFunction*%
%TA.AperFunction,Conductor*%
G36*
X143011364Y-76919663D02*
G01*
X143029651Y-76927920D01*
X143029654Y-76927921D01*
X143036573Y-76931045D01*
X143044038Y-76932429D01*
X143046582Y-76933226D01*
X143062848Y-76937859D01*
X143065428Y-76938521D01*
X143072509Y-76941282D01*
X143080042Y-76942274D01*
X143080043Y-76942274D01*
X143112699Y-76946573D01*
X143135857Y-76949622D01*
X143142355Y-76950650D01*
X143205187Y-76962296D01*
X143208756Y-76962090D01*
X143273876Y-76985744D01*
X143316909Y-77042212D01*
X143322581Y-77112982D01*
X143319567Y-77124621D01*
X143295468Y-77202232D01*
X143293183Y-77212624D01*
X143291139Y-77228043D01*
X143293335Y-77242207D01*
X143306522Y-77246000D01*
X144878000Y-77246000D01*
X144946121Y-77266002D01*
X144992614Y-77319658D01*
X145004000Y-77372000D01*
X145004000Y-77628000D01*
X144983998Y-77696121D01*
X144930342Y-77742614D01*
X144878000Y-77754000D01*
X143308808Y-77754000D01*
X143295277Y-77757973D01*
X143293752Y-77768580D01*
X143318477Y-77886421D01*
X143321537Y-77896617D01*
X143402263Y-78101029D01*
X143406994Y-78110561D01*
X143521016Y-78298462D01*
X143527280Y-78307052D01*
X143671327Y-78473052D01*
X143678958Y-78480472D01*
X143848911Y-78619826D01*
X143857674Y-78625848D01*
X143884711Y-78641238D01*
X143934018Y-78692320D01*
X143947880Y-78761951D01*
X143921897Y-78828022D01*
X143892747Y-78855261D01*
X143865310Y-78873733D01*
X143770681Y-78937441D01*
X143603865Y-79096576D01*
X143466246Y-79281542D01*
X143463830Y-79286293D01*
X143463828Y-79286297D01*
X143446413Y-79320551D01*
X143361760Y-79487051D01*
X143360178Y-79492145D01*
X143360177Y-79492148D01*
X143326265Y-79601363D01*
X143293393Y-79707227D01*
X143292692Y-79712516D01*
X143270572Y-79879414D01*
X143263102Y-79935774D01*
X143263302Y-79941103D01*
X143263302Y-79941105D01*
X143264548Y-79974284D01*
X143271751Y-80166158D01*
X143272846Y-80171377D01*
X143282888Y-80219238D01*
X143319093Y-80391791D01*
X143321051Y-80396750D01*
X143321052Y-80396752D01*
X143400912Y-80598968D01*
X143403776Y-80606221D01*
X143406543Y-80610780D01*
X143406544Y-80610783D01*
X143462135Y-80702394D01*
X143523377Y-80803317D01*
X143526874Y-80807347D01*
X143656907Y-80957197D01*
X143674477Y-80977445D01*
X143678608Y-80980832D01*
X143848627Y-81120240D01*
X143848633Y-81120244D01*
X143852755Y-81123624D01*
X143884250Y-81141552D01*
X143933555Y-81192632D01*
X143947417Y-81262262D01*
X143921434Y-81328333D01*
X143892284Y-81355573D01*
X143770681Y-81437441D01*
X143603865Y-81596576D01*
X143466246Y-81781542D01*
X143463830Y-81786293D01*
X143463828Y-81786297D01*
X143423840Y-81864949D01*
X143361760Y-81987051D01*
X143360178Y-81992145D01*
X143360177Y-81992148D01*
X143320543Y-82119789D01*
X143293393Y-82207227D01*
X143292692Y-82212516D01*
X143265213Y-82419849D01*
X143263102Y-82435774D01*
X143263302Y-82441103D01*
X143263302Y-82441105D01*
X143264801Y-82481041D01*
X143271751Y-82666158D01*
X143319093Y-82891791D01*
X143321051Y-82896750D01*
X143321052Y-82896752D01*
X143397962Y-83091498D01*
X143403776Y-83106221D01*
X143406543Y-83110780D01*
X143406544Y-83110783D01*
X143461777Y-83201803D01*
X143523377Y-83303317D01*
X143526874Y-83307347D01*
X143613438Y-83407103D01*
X143674477Y-83477445D01*
X143678608Y-83480832D01*
X143848627Y-83620240D01*
X143848633Y-83620244D01*
X143852755Y-83623624D01*
X143857391Y-83626263D01*
X143857394Y-83626265D01*
X143966422Y-83688327D01*
X144053114Y-83737675D01*
X144269825Y-83816337D01*
X144275074Y-83817286D01*
X144275077Y-83817287D01*
X144492608Y-83856623D01*
X144492615Y-83856624D01*
X144496692Y-83857361D01*
X144514414Y-83858197D01*
X144519356Y-83858430D01*
X144519363Y-83858430D01*
X144520844Y-83858500D01*
X144932890Y-83858500D01*
X144999809Y-83852822D01*
X145099409Y-83844371D01*
X145099413Y-83844370D01*
X145104720Y-83843920D01*
X145109875Y-83842582D01*
X145109881Y-83842581D01*
X145322703Y-83787343D01*
X145322707Y-83787342D01*
X145327872Y-83786001D01*
X145332738Y-83783809D01*
X145332741Y-83783808D01*
X145533202Y-83693507D01*
X145538075Y-83691312D01*
X145729319Y-83562559D01*
X145896135Y-83403424D01*
X145941919Y-83341889D01*
X145998628Y-83299176D01*
X146069428Y-83293903D01*
X146132103Y-83328007D01*
X146492422Y-83688327D01*
X146780076Y-83975981D01*
X146814101Y-84038293D01*
X146816980Y-84065076D01*
X146816980Y-89834925D01*
X146796978Y-89903046D01*
X146780075Y-89924020D01*
X146416095Y-90288000D01*
X146353783Y-90322026D01*
X146282968Y-90316961D01*
X146226132Y-90274414D01*
X146201321Y-90207894D01*
X146201000Y-90198905D01*
X146201000Y-89849600D01*
X146200663Y-89846350D01*
X146190738Y-89750692D01*
X146190737Y-89750688D01*
X146190026Y-89743834D01*
X146134050Y-89576054D01*
X146040978Y-89425652D01*
X145915803Y-89300695D01*
X145909079Y-89296550D01*
X145771468Y-89211725D01*
X145771466Y-89211724D01*
X145765238Y-89207885D01*
X145604754Y-89154655D01*
X145603889Y-89154368D01*
X145603887Y-89154368D01*
X145597361Y-89152203D01*
X145590525Y-89151503D01*
X145590522Y-89151502D01*
X145547469Y-89147091D01*
X145492900Y-89141500D01*
X143942100Y-89141500D01*
X143938854Y-89141837D01*
X143938850Y-89141837D01*
X143843192Y-89151762D01*
X143843188Y-89151763D01*
X143836334Y-89152474D01*
X143829798Y-89154655D01*
X143829796Y-89154655D01*
X143735629Y-89186072D01*
X143668554Y-89208450D01*
X143518152Y-89301522D01*
X143393195Y-89426697D01*
X143389355Y-89432927D01*
X143389354Y-89432928D01*
X143310251Y-89561257D01*
X143300385Y-89577262D01*
X143289972Y-89608657D01*
X143254383Y-89715956D01*
X143244703Y-89745139D01*
X143244003Y-89751975D01*
X143244002Y-89751978D01*
X143242029Y-89771233D01*
X143234000Y-89849600D01*
X143234000Y-91040500D01*
X143213998Y-91108621D01*
X143160342Y-91155114D01*
X143108000Y-91166500D01*
X141008058Y-91166500D01*
X140939937Y-91146498D01*
X140893444Y-91092842D01*
X140886351Y-91073111D01*
X140865708Y-90996071D01*
X140865708Y-90996070D01*
X140864284Y-90990757D01*
X140818975Y-90893591D01*
X140769849Y-90788238D01*
X140769846Y-90788233D01*
X140767523Y-90783251D01*
X140636198Y-90595700D01*
X140474300Y-90433802D01*
X140469792Y-90430645D01*
X140469789Y-90430643D01*
X140316470Y-90323288D01*
X140286749Y-90302477D01*
X140281767Y-90300154D01*
X140281762Y-90300151D01*
X140247543Y-90284195D01*
X140194258Y-90237278D01*
X140174797Y-90169001D01*
X140195339Y-90101041D01*
X140247543Y-90055805D01*
X140281762Y-90039849D01*
X140281767Y-90039846D01*
X140286749Y-90037523D01*
X140411903Y-89949889D01*
X140469789Y-89909357D01*
X140469792Y-89909355D01*
X140474300Y-89906198D01*
X140636198Y-89744300D01*
X140640182Y-89738611D01*
X140694543Y-89660975D01*
X140767523Y-89556749D01*
X140769846Y-89551767D01*
X140769849Y-89551762D01*
X140861961Y-89354225D01*
X140861961Y-89354224D01*
X140864284Y-89349243D01*
X140875683Y-89306704D01*
X140922119Y-89133402D01*
X140922119Y-89133400D01*
X140923543Y-89128087D01*
X140943498Y-88900000D01*
X140923543Y-88671913D01*
X140864284Y-88450757D01*
X140861961Y-88445775D01*
X140769849Y-88248238D01*
X140769846Y-88248233D01*
X140767523Y-88243251D01*
X140636198Y-88055700D01*
X140474300Y-87893802D01*
X140469792Y-87890645D01*
X140469789Y-87890643D01*
X140391611Y-87835902D01*
X140286749Y-87762477D01*
X140281767Y-87760154D01*
X140281762Y-87760151D01*
X140247543Y-87744195D01*
X140194258Y-87697278D01*
X140174797Y-87629001D01*
X140195339Y-87561041D01*
X140247543Y-87515805D01*
X140281762Y-87499849D01*
X140281767Y-87499846D01*
X140286749Y-87497523D01*
X140451500Y-87382163D01*
X140469789Y-87369357D01*
X140469792Y-87369355D01*
X140474300Y-87366198D01*
X140636198Y-87204300D01*
X140642086Y-87195892D01*
X140703743Y-87107836D01*
X140767523Y-87016749D01*
X140769846Y-87011767D01*
X140769849Y-87011762D01*
X140861961Y-86814225D01*
X140861961Y-86814224D01*
X140864284Y-86809243D01*
X140873522Y-86774769D01*
X140922119Y-86593402D01*
X140922119Y-86593400D01*
X140923543Y-86588087D01*
X140943498Y-86360000D01*
X140923543Y-86131913D01*
X140917241Y-86108392D01*
X140865707Y-85916067D01*
X140865706Y-85916065D01*
X140864284Y-85910757D01*
X140854999Y-85890845D01*
X140769849Y-85708238D01*
X140769846Y-85708233D01*
X140767523Y-85703251D01*
X140636198Y-85515700D01*
X140474300Y-85353802D01*
X140469792Y-85350645D01*
X140469789Y-85350643D01*
X140391611Y-85295902D01*
X140286749Y-85222477D01*
X140281767Y-85220154D01*
X140281762Y-85220151D01*
X140247543Y-85204195D01*
X140194258Y-85157278D01*
X140174797Y-85089001D01*
X140195339Y-85021041D01*
X140247543Y-84975805D01*
X140281762Y-84959849D01*
X140281767Y-84959846D01*
X140286749Y-84957523D01*
X140451500Y-84842163D01*
X140469789Y-84829357D01*
X140469792Y-84829355D01*
X140474300Y-84826198D01*
X140636198Y-84664300D01*
X140693665Y-84582229D01*
X140749122Y-84537901D01*
X140796878Y-84528500D01*
X141974340Y-84528500D01*
X142042461Y-84548502D01*
X142063435Y-84565405D01*
X143009832Y-85511803D01*
X143954374Y-86456345D01*
X143988400Y-86518657D01*
X143990837Y-86534897D01*
X143995304Y-86588087D01*
X144003268Y-86682934D01*
X144013436Y-86718393D01*
X144039487Y-86809243D01*
X144057783Y-86873050D01*
X144060602Y-86878535D01*
X144133952Y-87021257D01*
X144148187Y-87048956D01*
X144271035Y-87203953D01*
X144275728Y-87207947D01*
X144275729Y-87207948D01*
X144405977Y-87318797D01*
X144421650Y-87332136D01*
X144594294Y-87428624D01*
X144782392Y-87489740D01*
X144978777Y-87513158D01*
X144984912Y-87512686D01*
X144984914Y-87512686D01*
X145169830Y-87498457D01*
X145169834Y-87498456D01*
X145175972Y-87497984D01*
X145366463Y-87444798D01*
X145371967Y-87442018D01*
X145371969Y-87442017D01*
X145537495Y-87358404D01*
X145537497Y-87358403D01*
X145542996Y-87355625D01*
X145698847Y-87233861D01*
X145814471Y-87099909D01*
X145824049Y-87088813D01*
X145824050Y-87088811D01*
X145828078Y-87084145D01*
X145925769Y-86912179D01*
X145988197Y-86724513D01*
X146012985Y-86528295D01*
X146013380Y-86500000D01*
X145994080Y-86303167D01*
X145973964Y-86236538D01*
X145960900Y-86193269D01*
X145936916Y-86113831D01*
X145844066Y-85939204D01*
X145758466Y-85834248D01*
X145722960Y-85790713D01*
X145722957Y-85790710D01*
X145719065Y-85785938D01*
X145714316Y-85782009D01*
X145571425Y-85663799D01*
X145571421Y-85663797D01*
X145566675Y-85659870D01*
X145392701Y-85565802D01*
X145203768Y-85507318D01*
X145197643Y-85506674D01*
X145197642Y-85506674D01*
X145134084Y-85499994D01*
X145030820Y-85489141D01*
X144965164Y-85462128D01*
X144954896Y-85452926D01*
X142841450Y-83339480D01*
X142835596Y-83333215D01*
X142831053Y-83328007D01*
X142797561Y-83289615D01*
X142745280Y-83252871D01*
X142739986Y-83248939D01*
X142695693Y-83214209D01*
X142689718Y-83209524D01*
X142682802Y-83206401D01*
X142680516Y-83205017D01*
X142665835Y-83196643D01*
X142663475Y-83195378D01*
X142657261Y-83191010D01*
X142650182Y-83188250D01*
X142650180Y-83188249D01*
X142597725Y-83167798D01*
X142591656Y-83165247D01*
X142533427Y-83138955D01*
X142525960Y-83137571D01*
X142523405Y-83136770D01*
X142507152Y-83132141D01*
X142504572Y-83131478D01*
X142497491Y-83128718D01*
X142489960Y-83127727D01*
X142489958Y-83127726D01*
X142460339Y-83123827D01*
X142434139Y-83120378D01*
X142427641Y-83119348D01*
X142364814Y-83107704D01*
X142357234Y-83108141D01*
X142357233Y-83108141D01*
X142302608Y-83111291D01*
X142295354Y-83111500D01*
X140796878Y-83111500D01*
X140728757Y-83091498D01*
X140693665Y-83057771D01*
X140639357Y-82980211D01*
X140639355Y-82980208D01*
X140636198Y-82975700D01*
X140474300Y-82813802D01*
X140469792Y-82810645D01*
X140469789Y-82810643D01*
X140386962Y-82752647D01*
X140286749Y-82682477D01*
X140281767Y-82680154D01*
X140281762Y-82680151D01*
X140247543Y-82664195D01*
X140194258Y-82617278D01*
X140174797Y-82549001D01*
X140195339Y-82481041D01*
X140247543Y-82435805D01*
X140281762Y-82419849D01*
X140281767Y-82419846D01*
X140286749Y-82417523D01*
X140463829Y-82293530D01*
X140469789Y-82289357D01*
X140469792Y-82289355D01*
X140474300Y-82286198D01*
X140636198Y-82124300D01*
X140652162Y-82101502D01*
X140704560Y-82026669D01*
X140767523Y-81936749D01*
X140769846Y-81931767D01*
X140769849Y-81931762D01*
X140861961Y-81734225D01*
X140861961Y-81734224D01*
X140864284Y-81729243D01*
X140870044Y-81707749D01*
X140922119Y-81513402D01*
X140922119Y-81513400D01*
X140923543Y-81508087D01*
X140943498Y-81280000D01*
X140923543Y-81051913D01*
X140864284Y-80830757D01*
X140831057Y-80759500D01*
X140769849Y-80628238D01*
X140769846Y-80628233D01*
X140767523Y-80623251D01*
X140666932Y-80479593D01*
X140639357Y-80440211D01*
X140639355Y-80440208D01*
X140636198Y-80435700D01*
X140474300Y-80273802D01*
X140469792Y-80270645D01*
X140469789Y-80270643D01*
X140341728Y-80180974D01*
X140286749Y-80142477D01*
X140281767Y-80140154D01*
X140281762Y-80140151D01*
X140246951Y-80123919D01*
X140193666Y-80077002D01*
X140174205Y-80008725D01*
X140194747Y-79940765D01*
X140246951Y-79895529D01*
X140281511Y-79879414D01*
X140291007Y-79873931D01*
X140469467Y-79748972D01*
X140477875Y-79741916D01*
X140631916Y-79587875D01*
X140638972Y-79579467D01*
X140763931Y-79401007D01*
X140769414Y-79391511D01*
X140861490Y-79194053D01*
X140865236Y-79183761D01*
X140911394Y-79011497D01*
X140911058Y-78997401D01*
X140903116Y-78994000D01*
X139502000Y-78994000D01*
X139433879Y-78973998D01*
X139387386Y-78920342D01*
X139376000Y-78868000D01*
X139376000Y-78612000D01*
X139396002Y-78543879D01*
X139449658Y-78497386D01*
X139502000Y-78486000D01*
X140897967Y-78486000D01*
X140911498Y-78482027D01*
X140912727Y-78473478D01*
X140865236Y-78296239D01*
X140861490Y-78285947D01*
X140769414Y-78088489D01*
X140763931Y-78078993D01*
X140638972Y-77900533D01*
X140631916Y-77892125D01*
X140477875Y-77738084D01*
X140469467Y-77731028D01*
X140291007Y-77606069D01*
X140281511Y-77600586D01*
X140246951Y-77584471D01*
X140193666Y-77537554D01*
X140174205Y-77469277D01*
X140194747Y-77401317D01*
X140246951Y-77356081D01*
X140281762Y-77339849D01*
X140281767Y-77339846D01*
X140286749Y-77337523D01*
X140422874Y-77242207D01*
X140469789Y-77209357D01*
X140469792Y-77209355D01*
X140474300Y-77206198D01*
X140636198Y-77044300D01*
X140639357Y-77039789D01*
X140693665Y-76962229D01*
X140749122Y-76917901D01*
X140796878Y-76908500D01*
X142959514Y-76908500D01*
X143011364Y-76919663D01*
G37*
%TD.AperFunction*%
%TA.AperFunction,Conductor*%
G36*
X130224167Y-67274257D02*
G01*
X130288611Y-67295632D01*
X130288613Y-67295632D01*
X130295139Y-67297797D01*
X130301975Y-67298497D01*
X130301978Y-67298498D01*
X130345031Y-67302909D01*
X130399600Y-67308500D01*
X130891405Y-67308500D01*
X130959526Y-67328502D01*
X131006019Y-67382158D01*
X131016123Y-67452432D01*
X130986629Y-67517012D01*
X130980504Y-67523592D01*
X130677978Y-67826117D01*
X130382742Y-68121353D01*
X130374463Y-68128887D01*
X130367982Y-68133000D01*
X130327778Y-68175813D01*
X130321357Y-68182651D01*
X130318602Y-68185493D01*
X130298865Y-68205230D01*
X130296385Y-68208427D01*
X130288682Y-68217447D01*
X130258414Y-68249679D01*
X130254595Y-68256625D01*
X130254593Y-68256628D01*
X130248652Y-68267434D01*
X130237807Y-68283945D01*
X130234902Y-68287691D01*
X130177351Y-68329264D01*
X130106459Y-68333123D01*
X130044735Y-68298042D01*
X130015810Y-68250352D01*
X129993412Y-68183216D01*
X129987241Y-68170042D01*
X129907942Y-68041899D01*
X129889104Y-67973447D01*
X129907826Y-67909479D01*
X129916142Y-67895989D01*
X129975508Y-67799679D01*
X129988275Y-67778968D01*
X129988276Y-67778966D01*
X129992115Y-67772738D01*
X130047797Y-67604861D01*
X130049976Y-67583599D01*
X130055584Y-67528857D01*
X130058500Y-67500400D01*
X130058500Y-67393850D01*
X130078502Y-67325729D01*
X130132158Y-67279236D01*
X130202432Y-67269132D01*
X130224167Y-67274257D01*
G37*
%TD.AperFunction*%
%TA.AperFunction,Conductor*%
G36*
X137674167Y-67274257D02*
G01*
X137738611Y-67295632D01*
X137738613Y-67295632D01*
X137745139Y-67297797D01*
X137751975Y-67298497D01*
X137751978Y-67298498D01*
X137795031Y-67302909D01*
X137849600Y-67308500D01*
X138191405Y-67308500D01*
X138259526Y-67328502D01*
X138306019Y-67382158D01*
X138316123Y-67452432D01*
X138286629Y-67517012D01*
X138280500Y-67523595D01*
X137832747Y-67971348D01*
X137824461Y-67978888D01*
X137817982Y-67983000D01*
X137812557Y-67988777D01*
X137771357Y-68032651D01*
X137768602Y-68035493D01*
X137748865Y-68055230D01*
X137746385Y-68058427D01*
X137738682Y-68067447D01*
X137708414Y-68099679D01*
X137704595Y-68106625D01*
X137704593Y-68106628D01*
X137698652Y-68117434D01*
X137687801Y-68133953D01*
X137675386Y-68149959D01*
X137669824Y-68162813D01*
X137667600Y-68167952D01*
X137622191Y-68222527D01*
X137554484Y-68243889D01*
X137485977Y-68225254D01*
X137441832Y-68175813D01*
X137441094Y-68176269D01*
X137438508Y-68172091D01*
X137437863Y-68171368D01*
X137437246Y-68170050D01*
X137357942Y-68041899D01*
X137339104Y-67973447D01*
X137357826Y-67909479D01*
X137366142Y-67895989D01*
X137425508Y-67799679D01*
X137438275Y-67778968D01*
X137438276Y-67778966D01*
X137442115Y-67772738D01*
X137497797Y-67604861D01*
X137499976Y-67583599D01*
X137505584Y-67528857D01*
X137508500Y-67500400D01*
X137508500Y-67393850D01*
X137528502Y-67325729D01*
X137582158Y-67279236D01*
X137652432Y-67269132D01*
X137674167Y-67274257D01*
G37*
%TD.AperFunction*%
%TD*%
M02*
